<svg width="36" height="34" viewBox="0 0 36 34" fill="none" xmlns="http://www.w3.org/2000/svg">
<path d="M2.59708 8.70269C2.59708 11.5097 3.55631 13.5352 5.44595 14.7245C6.99534 15.7015 8.79078 15.8481 9.72503 15.8481C9.95186 15.8481 10.1345 15.8368 10.2614 15.8293C10.2614 15.8293 9.96532 17.7157 11.3955 19.5795H11.3302C8.8523 19.5795 0.770874 20.0849 0.770874 26.5821C0.770874 33.1882 8.19294 33.5245 9.68274 33.5245C9.8 33.5245 9.8692 33.5208 9.8692 33.5208C9.88458 33.5208 9.99031 33.5245 10.1729 33.5245C11.1283 33.5245 13.5985 33.408 15.8918 32.3164C18.8676 30.9072 20.3766 28.4478 20.3766 25.017C20.3766 21.7026 18.0775 19.7298 16.3993 18.2868C15.3747 17.4056 14.4885 16.6466 14.4885 15.9082C14.4885 15.1566 15.1364 14.5911 15.9533 13.8752C17.2778 12.7197 18.5273 11.0719 18.5273 7.95677C18.5273 5.21925 18.164 3.37983 15.9245 2.21305C16.1571 2.09656 16.9837 2.01201 17.3912 1.95564C18.6042 1.79406 20.3785 1.60993 20.3785 0.642308V0.456299H11.5378C11.4493 0.460057 2.59708 0.779465 2.59708 8.70269ZM16.8684 25.637C17.0375 28.2787 14.725 30.2271 11.2513 30.4732C7.7239 30.7269 4.8212 29.1749 4.65203 26.5351C4.56937 25.265 5.1403 24.0249 6.25717 23.0348C7.38941 22.0333 8.94457 21.4133 10.6362 21.2912C10.8361 21.2799 11.0341 21.2686 11.2321 21.2686C14.4981 21.2705 16.7088 23.1456 16.8684 25.637ZM14.5597 6.89333C15.4266 9.87698 14.1175 12.9922 12.0299 13.569C11.7896 13.6344 11.5412 13.6673 11.2917 13.6667C9.38093 13.6667 7.48745 11.7765 6.78388 9.17053C6.39173 7.71252 6.42441 6.43113 6.87423 5.20234C7.31444 3.99047 8.11028 3.17691 9.10989 2.90072C9.35018 2.83496 9.59816 2.80114 9.84998 2.80114C12.1568 2.80114 13.6408 3.73682 14.5597 6.89333ZM29.5307 13.2327V7.59603H25.686V13.2327H19.9191V16.9904H25.686V22.627H29.5307V16.9904H35.2976V13.2327H29.5307Z" fill="url(#paint0_linear_1006_224)"/>
<defs>
<linearGradient id="paint0_linear_1006_224" x1="18.0342" y1="0.456299" x2="18.0342" y2="33.5245" gradientUnits="userSpaceOnUse">
<stop stop-color="#00FFAE"/>
<stop offset="1" stop-color="#30BC90"/>
</linearGradient>
</defs>
</svg>
