<svg width="41" height="34" viewBox="0 0 41 34" fill="none" xmlns="http://www.w3.org/2000/svg">
<path d="M36.727 8.8193C36.7537 9.17652 36.7537 9.5317 36.7537 9.88688C36.7537 20.7565 28.4241 33.2816 13.2015 33.2816C8.51164 33.2816 4.15469 31.9324 0.488281 29.589C1.15415 29.6645 1.79537 29.6911 2.48796 29.6911C6.21395 29.7 9.83443 28.4625 12.7658 26.1781C11.0383 26.147 9.36366 25.5809 7.97573 24.5588C6.5878 23.5367 5.55587 22.1097 5.02403 20.4769C5.53576 20.5524 6.04955 20.6034 6.58801 20.6034C7.32992 20.6034 8.07594 20.5014 8.76853 20.3238C6.89373 19.9478 5.20791 18.9385 3.99772 17.4674C2.78752 15.9964 2.12767 14.1544 2.13036 12.2547V12.1527C3.23398 12.763 4.51435 13.1447 5.87075 13.1957C4.73443 12.4458 3.80268 11.4281 3.15864 10.2335C2.51459 9.03886 2.17827 7.70449 2.17968 6.34939C2.17968 4.82254 2.58866 3.42224 3.30591 2.20158C5.38602 4.74297 7.98038 6.82207 10.921 8.30421C13.8616 9.78636 17.0828 10.6385 20.3761 10.8054C20.2487 10.1931 20.1706 9.55824 20.1706 8.92137C20.17 7.84147 20.3838 6.77205 20.7996 5.77425C21.2154 4.77645 21.8252 3.86984 22.594 3.10623C23.3628 2.34263 24.2756 1.73701 25.2802 1.324C26.2848 0.910989 27.3615 0.698683 28.4488 0.69922C30.8328 0.69922 32.9845 1.69127 34.4971 3.29569C36.3504 2.93973 38.1277 2.26776 39.7501 1.30955C39.1324 3.20958 37.8383 4.82071 36.1104 5.84112C37.7541 5.65492 39.3605 5.22559 40.8763 4.56738C39.7442 6.20671 38.3413 7.64425 36.727 8.8193Z" fill="url(#paint0_linear_1006_222)"/>
<defs>
<linearGradient id="paint0_linear_1006_222" x1="20.6823" y1="0.699219" x2="20.6823" y2="33.2816" gradientUnits="userSpaceOnUse">
<stop stop-color="#00FFAE"/>
<stop offset="1" stop-color="#30BC90"/>
</linearGradient>
</defs>
</svg>
