<svg width="48" height="34" viewBox="0 0 48 34" fill="none" xmlns="http://www.w3.org/2000/svg">
<path d="M46.2311 5.96085C45.9678 4.99039 45.4531 4.10537 44.7384 3.39386C44.0236 2.68235 43.1337 2.16917 42.1572 1.9054C38.5366 0.917947 24.0515 0.901873 24.0515 0.901873C24.0515 0.901873 9.56878 0.885798 5.94579 1.82962C4.96992 2.10552 4.08186 2.62596 3.36684 3.34096C2.65182 4.05596 2.13386 4.94153 1.86269 5.91263C0.907812 9.5088 0.898563 16.9675 0.898563 16.9675C0.898563 16.9675 0.889315 24.463 1.83726 28.0224C2.36903 29.9904 3.92967 31.5451 5.91342 32.0756C9.5711 33.063 24.0168 33.0791 24.0168 33.0791C24.0168 33.0791 38.5019 33.0952 42.1226 32.1536C43.0994 31.8903 43.9901 31.3783 44.7066 30.6683C45.4232 29.9582 45.9407 29.0747 46.208 28.1051C47.1652 24.5112 47.1721 17.0548 47.1721 17.0548C47.1721 17.0548 47.2183 9.55702 46.2311 5.96085ZM19.4182 23.8774L19.4297 10.099L31.4686 16.9997L19.4182 23.8774Z" fill="url(#paint0_linear_1006_221)"/>
<defs>
<linearGradient id="paint0_linear_1006_221" x1="24.0355" y1="0.901855" x2="24.0355" y2="33.0791" gradientUnits="userSpaceOnUse">
<stop stop-color="#00FFAE"/>
<stop offset="1" stop-color="#30BC90"/>
</linearGradient>
</defs>
</svg>
