<svg id="Layer_1" data-name="Layer 1" xmlns="http://www.w3.org/2000/svg" viewBox="0 0 1000 1000"><defs><style>.cls-1{fill:#e84242;fill-rule:evenodd;}</style></defs><path class="cls-1" d="M819,500c0,176.18-142.81,319-319,319S181,676.18,181,500,323.82,181,500,181,819,323.82,819,500ZM409.61,626.94H347.7c-13,0-19.44,0-23.35-2.5a15.71,15.71,0,0,1-7.13-12.31c-.24-4.62,3-10.26,9.4-21.55L479.48,321.15c6.5-11.44,9.79-17.16,13.95-19.28a15.78,15.78,0,0,1,14.26,0c4.15,2.12,7.44,7.84,13.95,19.28L553.06,376l.16.28c7,12.28,10.59,18.5,12.14,25a46.35,46.35,0,0,1,0,21.78c-1.56,6.58-5.09,12.85-12.22,25.31L472.85,590.35l-.21.36C465.57,603.09,462,609.36,457,614.09a46.77,46.77,0,0,1-19,11C431.47,626.94,424.18,626.94,409.61,626.94Zm156.33,0h88.71c13.09,0,19.67,0,23.59-2.58A15.68,15.68,0,0,0,685.37,612c.23-4.47-2.92-9.9-9.07-20.53-.22-.36-.43-.73-.65-1.1l-44.43-76-.5-.86c-6.25-10.56-9.4-15.89-13.45-18a15.61,15.61,0,0,0-14.18,0c-4.08,2.11-7.37,7.68-13.87,18.88l-44.28,76-.15.26c-6.48,11.19-9.72,16.78-9.49,21.37a15.91,15.91,0,0,0,7.13,12.38C546.27,626.94,552.86,626.94,565.94,626.94Z"/></svg>