<svg id="Layer_1" data-name="Layer 1" xmlns="http://www.w3.org/2000/svg" xmlns:xlink="http://www.w3.org/1999/xlink" viewBox="0 0 1000 1000"><defs><style>.cls-1{stroke:#fff;}.cls-2{fill:#0b76ff;}.cls-2,.cls-3,.cls-4,.cls-5,.cls-6,.cls-7,.cls-8,.cls-9{fill-rule:evenodd;}.cls-3{fill:#24c1ff;}.cls-4{fill:#39fff2;}.cls-5{fill:#00e2c2;}.cls-6{fill:url(#linear-gradient);}.cls-7{fill:url(#linear-gradient-2);}.cls-8{fill:url(#linear-gradient-3);}.cls-9{fill:url(#linear-gradient-4);}</style><linearGradient id="linear-gradient" x1="2583.09" y1="6539.7" x2="2593.77" y2="6539.7" gradientTransform="matrix(19.04, 0, 0, -8.97, -48982.67, 59106)" gradientUnits="userSpaceOnUse"><stop offset="0" stop-color="#fff" stop-opacity="0"/><stop offset="1" stop-color="#fff"/></linearGradient><linearGradient id="linear-gradient-2" x1="2612.28" y1="6424.62" x2="2602.38" y2="6424.13" gradientTransform="matrix(19.04, 0, 0, -11.47, -48960.63, 74105.6)" gradientUnits="userSpaceOnUse"><stop offset="0" stop-color="#fd76fd" stop-opacity="0"/><stop offset="1" stop-color="#ff51ff"/></linearGradient><linearGradient id="linear-gradient-3" x1="2611.93" y1="6957.1" x2="2604.15" y2="6957.1" gradientTransform="matrix(19.03, 0, 0, -5.04, -48919.91, 35503.27)" gradientUnits="userSpaceOnUse"><stop offset="0" stop-color="#5300ff" stop-opacity="0"/><stop offset="1" stop-color="#9d6eff"/></linearGradient><linearGradient id="linear-gradient-4" x1="2612.34" y1="6592.09" x2="2604.27" y2="6591.04" gradientTransform="matrix(19.04, 0, 0, -8.19, -48960.63, 54425.44)" gradientUnits="userSpaceOnUse"><stop offset="0" stop-color="#ae60d6" stop-opacity="0"/><stop offset="1" stop-color="#ab38e6"/></linearGradient></defs><circle cx="500" cy="500" r="358.99"/><circle class="cls-1" cx="500" cy="500" r="327.51"/><polygon class="cls-2" points="498.32 573.13 618.54 573.13 498.35 364.87 498.35 364.89 498.35 238.66 733.91 640.15 498.32 640.15 498.32 573.13"/><polygon class="cls-3" points="498.3 573.13 498.32 640.15 262.7 640.15 498.27 238.66 498.29 364.89 498.27 364.87 378.08 573.13 498.3 573.13"/><polygon class="cls-4" points="498.32 416.56 498.32 548.66 423.78 548.8 498.32 416.56"/><polygon class="cls-5" points="498.32 416.56 572.83 548.8 498.32 548.66 498.32 416.56"/><polygon class="cls-6" points="207.41 375.7 498.32 495.91 498.32 512.73 207.41 440.61 207.41 375.7"/><polygon class="cls-7" points="789.21 325.29 498.32 495.91 498.32 500.52 789.21 380.51 789.21 325.29"/><polygon class="cls-8" points="788.98 491.1 498.32 512.71 498.32 507.93 788.98 435.8 788.98 491.1"/><polygon class="cls-9" points="789.21 382.82 498.32 500.8 498.32 507.93 789.21 433.4 789.21 382.82"/></svg>