<svg id="图层_1" data-name="图层 1" xmlns="http://www.w3.org/2000/svg" viewBox="0 0 1000 1000"><defs><style>.cls-1{fill:#fff;}</style></defs><polygon class="cls-1" points="587.51 406.69 587.25 406.69 522.02 406.69 522.02 472.18 522.02 537.67 587.51 537.67 587.51 472.18 652.74 472.18 652.74 406.69 587.51 406.69"/><polygon class="cls-1" points="440.05 449.03 439.86 448.85 393.74 402.72 347.43 449.03 301.12 495.34 347.43 541.65 393.74 495.34 439.86 541.46 486.17 495.15 440.05 449.03"/><polygon class="cls-1" points="172.66 425.78 172.47 425.97 126.35 472.09 172.66 518.4 218.97 564.71 265.27 518.4 218.97 472.09 265.09 425.97 218.78 379.66 172.66 425.78"/><polygon class="cls-1" points="873.65 449.03 827.34 402.73 781.04 449.03 734.91 402.9 688.6 449.2 734.91 495.51 734.91 495.51 781.05 541.64 827.35 495.33 827.35 495.33 873.65 449.03"/></svg>