<svg id="Layer_1" data-name="Layer 1" xmlns="http://www.w3.org/2000/svg" xmlns:xlink="http://www.w3.org/1999/xlink" viewBox="0 0 800 800"><defs><style>.cls-1{fill:#fff;}.cls-2{fill:#e183ff;}.cls-3{fill:url(#linear-gradient);}.cls-4{fill:url(#linear-gradient-2);}.cls-5{fill:url(#linear-gradient-3);}.cls-6{fill:url(#linear-gradient-4);}</style><linearGradient id="linear-gradient" x1="418.15" y1="397.2" x2="536.9" y2="278.44" gradientUnits="userSpaceOnUse"><stop offset="0" stop-color="#3269ba"/><stop offset="0.24" stop-color="#6070cc"/><stop offset="0.77" stop-color="#bd7ef0"/><stop offset="1" stop-color="#e284ff"/></linearGradient><linearGradient id="linear-gradient-2" x1="263.1" y1="397.12" x2="381.84" y2="278.37" xlink:href="#linear-gradient"/><linearGradient id="linear-gradient-3" x1="442.88" y1="366.86" x2="501.55" y2="308.19" xlink:href="#linear-gradient"/><linearGradient id="linear-gradient-4" x1="295.93" y1="366" x2="351.46" y2="310.48" xlink:href="#linear-gradient"/></defs><title>GET SET PLAY - pngs</title><circle class="cls-1" cx="400" cy="400" r="386.18"/><path class="cls-2" d="M143.41,490.7a32.53,32.53,0,0,1,32.2-8.13,28.38,28.38,0,0,1,7.29,3.24,43.74,43.74,0,0,1,5.07,3.83,21.3,21.3,0,0,1,3.15,3.3l1,1.37-4.54,4.05q-.26-.44-.79-1.17a24.78,24.78,0,0,0-2.47-2.58,23.89,23.89,0,0,0-10.17-5.9,25.18,25.18,0,0,0-7.75-1.19,24.7,24.7,0,0,0-18.28,7.53,27,27,0,0,0,0,37.26,24.7,24.7,0,0,0,18.28,7.53,28.32,28.32,0,0,0,7.22-.9,23.59,23.59,0,0,0,5.64-2.16,42.68,42.68,0,0,0,3.88-2.47,11.56,11.56,0,0,0,2.38-2.14l.75-.88v-12.2H171.82v-6.3H193v20.31a13.21,13.21,0,0,1-1.12,1.39q-.77.86-3.28,3.11a37,37,0,0,1-5.4,4,32.64,32.64,0,0,1-7.44,3.15,32,32,0,0,1-9.36,1.39,32.52,32.52,0,0,1-23-55.46Z"/><path class="cls-2" d="M246,539v6.3H201.77V482.11h43.3v6.34H208.55V509.2h29.29v6.3H208.55V539Z"/><path class="cls-2" d="M290.33,482.11v6.34H270.47v56.82h-6.74V488.45H243.86v-6.34Z"/><path class="cls-2" d="M325.79,521.66a31.54,31.54,0,0,0-7.8-3.24q-4.6-1.3-9.16-3.06a18.18,18.18,0,0,1-7.77-5.81,16,16,0,0,1-3.22-10.26A16.84,16.84,0,0,1,304,486.21q6.14-5.42,16-5.42a30.75,30.75,0,0,1,7.49.9,27.08,27.08,0,0,1,5.92,2.11,33.52,33.52,0,0,1,4.05,2.47,13.3,13.3,0,0,1,2.49,2.18l.79.88-8.1,8.59q-.53-.62-1.48-1.52a18.09,18.09,0,0,0-4-2.4,14,14,0,0,0-6.25-1.5,9.36,9.36,0,0,0-6.23,2,6.06,6.06,0,0,0-2.36,4.8,5.76,5.76,0,0,0,3.19,5.09,32.84,32.84,0,0,0,7.75,3.24q4.56,1.32,9.16,3.08a18.14,18.14,0,0,1,7.82,5.81,16,16,0,0,1,3.22,10.26,18.12,18.12,0,0,1-6.36,14.32q-6.36,5.55-17.55,5.55a33.48,33.48,0,0,1-8.52-1.08,28.92,28.92,0,0,1-6.78-2.58,40.6,40.6,0,0,1-4.69-3,18.51,18.51,0,0,1-2.91-2.6l-1-1.1,8.15-8.1q.62.7,1.74,1.83a21.2,21.2,0,0,0,5,3,18.24,18.24,0,0,0,8.1,1.89q4.89,0,7.64-2.29a7.24,7.24,0,0,0,2.75-5.81A5.81,5.81,0,0,0,325.79,521.66Z"/><path class="cls-2" d="M395,533.12v12.16H347.61V482.11h46.47v12.2h-32.9V507h25.68v12.16H361.18v14Z"/><path class="cls-2" d="M442.92,482.11v12.2h-18v51H411.38v-51H393.32v-12.2Z"/><path class="cls-2" d="M483.38,482.11q11,0,17.69,6.5a23.78,23.78,0,0,1,0,33q-6.67,6.5-17.69,6.5h-9.47v17.13H453.65V482.11Zm-9.47,18.06v9.91h8.15a5.48,5.48,0,0,0,3.88-1.43,4.6,4.6,0,0,0,1.54-3.5,4.66,4.66,0,0,0-1.54-3.52,5.43,5.43,0,0,0-3.88-1.45Z"/><path class="cls-2" d="M509.27,545.27V482.11h20.26v44.66h26.65v18.5Z"/><path class="cls-2" d="M574.36,533.12l-3.61,12.16H549.12l23-63.16h22.55l23,63.16H596l-3.57-12.16Zm9-31.14-4.54,15.77h9Z"/><path class="cls-2" d="M666.06,482.11l-22.55,40.61v22.55H623.24V522.72l-22.55-40.61h21.63l10.84,21.67h.44l10.84-21.67Z"/><path class="cls-3" d="M444.52,260.56c-19.11,8.54-33.71,22.57-47,38.17-9.12,10.68-17.25,22.12-25.56,33.41h0l12.58,9.67c3.09-4.21,6.15-8.44,9.28-12.61,13.5-18,27.11-36,46.5-48.28,21.45-13.6,44.08-16.34,66.91-4.32,25.32,13.33,40.36,34.15,39.62,63.65-.71,28.38-18.53,52.8-44.84,61.85-27.5,9.46-52.09,3.73-72.93-16.77-1.26-1.24-2.25-2.22-3.09-3l-9.8,12.75.18.2a84.56,84.56,0,0,0,146.45-57.38C563.63,284.24,503.14,234.35,444.52,260.56Z"/><path class="cls-4" d="M415.58,333.65c-3.11,4.25-6.2,8.51-9.36,12.72-13.5,18-27.11,36-46.5,48.28-21.45,13.6-44.08,16.34-66.91,4.32-25.32-13.33-40.36-34.15-39.62-63.65.71-28.38,18.53-52.8,44.84-61.85,27.5-9.46,52.09-3.73,72.93,16.77.84.82,1.55,1.53,2.19,2.14L383,279.56a84.54,84.54,0,0,0-145.78,58.06c-.86,53.7,59.63,103.59,118.25,77.38,19.11-8.54,33.71-22.57,47-38.17,9.12-10.68,17.25-22.12,25.56-33.41v-.16Z"/><path class="cls-5" d="M505.27,311.91q-7.53-7.17-19-7.17H462l-7,9.09V379l19-24.39h12.3q11.5,0,19-7.17a24.73,24.73,0,0,0,0-35.52Zm-11.55,25.3a11,11,0,0,1-7.95,3.06H471V319.08h14.81a11,11,0,0,1,7.95,3.08,10.48,10.48,0,0,1,0,15Z"/><path class="cls-6" d="M340.14,334.66v21.69l-1.61,1.35a18,18,0,0,1-5.75,3,26.52,26.52,0,0,1-9.06,1.48,24.39,24.39,0,1,1,0-48.78,24,24,0,0,1,7.41,1.17,27.08,27.08,0,0,1,5.85,2.54,24.58,24.58,0,0,1,4.12,3.18l.33.33,8.76-11.37-.65-.56a60.28,60.28,0,0,0-6-4.35,33.19,33.19,0,0,0-8.67-3.7,39.89,39.89,0,0,0-11.13-1.53q-17,0-28.66,11.34a37.88,37.88,0,0,0,0,54.71q11.68,11.37,28.66,11.37a42.44,42.44,0,0,0,11.47-1.55,43,43,0,0,0,9-3.44,45.63,45.63,0,0,0,6.53-4.35,39.36,39.36,0,0,0,4-3.47q.91-1,1.32-1.53V346.9Z"/></svg>