<svg width="1179" height="862" viewBox="0 0 1179 862" fill="none" xmlns="http://www.w3.org/2000/svg">
<path d="M753.304 266.871C753.304 266.871 746.151 234.045 723.251 229.957C713.839 228.794 704.296 230.535 695.902 234.947" fill="#AAD118"/>
<path d="M310.934 212.241C307.693 214.317 307.914 219.123 311.332 220.892L389.475 261.34L385.027 164.787L310.934 212.241Z" fill="#AAD118"/>
<path d="M334.412 373.722C332.196 376.868 334.216 381.233 338.049 381.58L440.326 390.84L393.562 289.717L334.412 373.722Z" fill="#AAD118"/>
<path d="M831.213 161.985C831.95 161.541 832.99 162.051 832.948 162.911C832.574 170.496 830.433 177.901 826.682 184.529C822.568 191.799 816.655 197.89 809.511 202.217C802.366 206.544 794.23 208.963 785.883 209.241C777.535 209.519 769.256 207.647 761.839 203.805C752.959 199.633 745.815 192.487 741.643 183.605C737.797 176.202 735.913 167.937 736.173 159.599C736.433 151.261 738.828 143.129 743.128 135.98C747.428 128.832 753.489 122.907 760.733 118.772C767.62 114.84 775.357 112.652 783.27 112.387C783.904 112.366 784.38 112.944 784.227 113.56C782.59 120.139 777.559 133.365 784.5 137.372C791.054 141.156 810.034 130.481 818.863 124.575C819.698 124.017 820.722 124.844 820.299 125.756C816.296 134.4 806.884 153.978 812.029 162.502C814.926 167.225 825.581 165.385 831.213 161.985Z" fill="#AAD118"/>
<path d="M763.162 410.199C760.241 402.593 756.598 395.285 752.282 388.375C747.9 380.983 742.999 373.911 737.616 367.213C725.407 352.359 711.822 338.691 697.044 326.391C696.853 326.214 696.712 325.99 696.633 325.742C696.555 325.493 696.542 325.229 696.597 324.974C696.652 324.72 696.771 324.484 696.944 324.29C697.118 324.095 697.338 323.949 697.585 323.866C697.585 323.866 728.72 310.098 735.212 305.83C746.692 297.834 757.692 288.695 753.244 266.932C753.244 266.932 743.747 233.685 723.19 230.018C713.79 229.167 704.336 230.892 695.842 235.008C691.875 237.533 691.093 238.014 693.798 242.282C694.459 243.424 697.885 248.294 698.907 250.519C702.453 257.072 706.601 269.697 684.481 279.497C662.002 289.94 638.625 298.33 614.637 304.567C596.003 308.956 571.84 312.683 556.092 298.555C541.366 285.569 529.705 265.308 533.853 245.108C537.76 225.869 551.885 217.513 566.912 207.593C571.119 205.007 571.119 205.248 574.064 208.555L591.771 231.996C594.415 235.497 599.965 234.138 600.691 229.811L608.494 183.359C608.731 181.948 609.561 180.705 610.775 179.947L648.417 156.43C650.821 154.867 652.384 154.687 655.63 156.911L686.405 176.991C687.2 177.554 688.141 177.875 689.114 177.915C690.088 177.955 691.052 177.713 691.89 177.217C692.729 176.721 693.407 175.994 693.841 175.122C694.276 174.249 694.448 173.27 694.339 172.302L691.093 133.825C690.947 132.752 691.032 131.66 691.343 130.623C691.654 129.586 692.184 128.628 692.896 127.813C698.907 120.779 703.415 116.871 709.306 109.777C723.371 92.9429 721.928 75.9288 709.306 52.3015C696.683 28.6741 700.35 35.3475 690.552 18.8745C679.312 0.116884 662.001 -3.73083 639.641 3.78423C628.221 7.15098 535.295 48.8145 535.295 48.8145C420.671 98.474 404.742 151.921 421.091 253.224C428.364 293.324 454.631 337.934 493.22 358.375C495.985 359.577 496.887 360.539 496.165 363.786C489.013 395.048 467.855 442.904 406.726 495.57C406.524 495.752 406.381 495.99 406.314 496.254C406.247 496.517 406.259 496.795 406.349 497.051C406.439 497.308 406.602 497.532 406.819 497.697C407.036 497.861 407.296 497.958 407.567 497.975H758.293C764.725 497.975 768.631 498.636 771.577 487.093C776.673 461.203 773.737 434.373 763.162 410.199ZM517.023 198.034C504.039 200.078 490.756 184.146 487.39 162.502C484.024 140.859 491.898 121.62 504.881 119.636C517.864 117.652 531.208 133.524 534.574 155.168C537.94 176.811 530.066 196.05 517.023 198.034Z" fill="#AAD118"/>
<path fill-rule="evenodd" clip-rule="evenodd" d="M147.443 609.796V674.966H105.128V611.299C105.128 609.848 104.551 608.456 103.526 607.43C102.5 606.404 101.109 605.828 99.6578 605.828H49.0475C47.5912 605.828 46.1938 606.402 45.1584 607.427C44.1231 608.451 43.5335 609.842 43.5177 611.299V811.981C43.5177 813.448 44.1003 814.855 45.1373 815.892C46.1744 816.929 47.5809 817.512 49.0475 817.512H99.5977C101.064 817.512 102.471 816.929 103.508 815.892C104.545 814.855 105.128 813.448 105.128 811.981V754.566H74.3527V712.001H147.443V813.544C147.443 826.3 142.377 838.534 133.359 847.553C124.341 856.573 112.11 861.641 99.3573 861.641H48.0858C35.3326 861.641 23.1019 856.573 14.084 847.553C5.06616 838.534 0 826.3 0 813.544V609.796C0.0794067 597.092 5.1806 584.936 14.1899 575.981C23.1991 567.026 35.3845 562 48.0858 562H99.3573C112.059 562 124.244 567.026 133.253 575.981C142.263 584.936 147.364 597.092 147.443 609.796ZM306.306 609.736V674.966H263.69V611.299C263.69 609.848 263.114 608.456 262.088 607.43C261.062 606.404 259.671 605.828 258.221 605.828H207.55C206.099 605.828 204.708 606.404 203.682 607.43C202.657 608.456 202.08 609.848 202.08 611.299V811.981C202.08 813.448 202.663 814.855 203.7 815.892C204.737 816.929 206.144 817.512 207.61 817.512H258.16C259.627 817.512 261.034 816.929 262.071 815.892C263.108 814.855 263.69 813.448 263.69 811.981V754.566H232.915V712.001H306.907V813.544C306.907 826.3 301.841 838.534 292.823 847.553C283.806 856.573 271.575 861.641 258.822 861.641H207.55C194.797 861.641 182.566 856.573 173.548 847.553C164.53 838.534 159.464 826.3 159.464 813.544V609.736C159.559 597.105 164.617 585.018 173.547 576.086C182.477 567.154 194.561 562.094 207.19 562H258.221C270.911 562 283.088 567.017 292.096 575.959C301.103 584.901 306.211 597.042 306.306 609.736ZM649.098 861.34V760.698H692.676V861.34H735.532V622.301C735.641 611.815 732.903 601.496 727.61 592.443C722.318 583.391 714.669 575.945 705.479 570.898C656.251 544.866 606.903 579.856 606.903 626.389V861.34H649.098ZM649.098 627.591C649.098 610.577 668.633 598.132 686.485 611.359C688.379 612.815 689.909 614.692 690.952 616.842C691.995 618.991 692.524 621.354 692.495 623.744V716.69H648.918L649.098 627.591ZM1004.69 605.828H932.564C932.309 605.811 932.054 605.847 931.814 605.934C931.574 606.02 931.354 606.155 931.168 606.329C930.982 606.504 930.834 606.715 930.733 606.949C930.632 607.184 930.58 607.436 930.58 607.692V689.756H984.677V733.584H930.58V815.348C930.58 815.922 930.808 816.472 931.214 816.878C931.62 817.284 932.17 817.512 932.744 817.512H1004.87V861.34H926.734C921.643 861.364 916.598 860.381 911.888 858.449C907.178 856.517 902.896 853.673 899.288 850.081C895.68 846.489 892.817 842.22 890.863 837.518C888.91 832.816 887.904 827.774 887.904 822.682V600.597C887.92 590.355 891.999 580.538 899.245 573.301C906.492 566.065 916.313 562 926.553 562H1004.69V605.828ZM1131.58 743.263C1130.5 740.017 1130.68 739.656 1132.9 737.251C1141.16 728.03 1145.72 716.083 1145.7 703.704V611.599C1145.7 598.455 1140.49 585.849 1131.2 576.549C1121.91 567.249 1109.32 562.016 1096.18 562H1016.89V861.34H1059.51V754.806C1061.34 754.806 1065.25 754.727 1069.67 754.637L1069.68 754.637C1075.45 754.52 1082.09 754.386 1086.14 754.386C1089.5 754.386 1089.5 754.386 1091.01 757.993L1129.42 861.34H1178.16L1131.58 743.263ZM1095.51 710.558H1059.45V605.828H1095.51C1097.46 605.828 1099.32 606.601 1100.7 607.976C1102.07 609.352 1102.85 611.217 1102.85 613.163V703.343C1102.82 705.227 1102.06 707.026 1100.74 708.37C1099.42 709.713 1097.64 710.496 1095.76 710.558H1095.51ZM483.683 811.56V568.012H526.299V810.117C526.299 812.078 527.078 813.959 528.465 815.346C529.851 816.733 531.731 817.512 533.692 817.512H594.461V861.34H533.452C520.252 861.34 507.594 856.095 498.26 846.759C488.927 837.424 483.683 824.762 483.683 811.56ZM875.342 568.012H832.786V723.062C832.776 725.394 832.229 727.692 831.187 729.778C830.144 731.863 828.634 733.68 826.775 735.087C808.743 748.433 789.268 735.988 789.268 718.914V568.012H746.712V721.199C746.709 734.517 750.835 747.508 758.521 758.383C766.207 769.258 777.075 777.481 789.629 781.92V861.34H832.185V781.92C844.767 777.504 855.669 769.291 863.388 758.415C871.107 747.54 875.263 734.536 875.281 721.199L875.342 568.012ZM429.286 810.298V779.336C429.286 757.626 404.205 737.554 391.058 727.032C388.076 724.646 385.708 722.751 384.386 721.44C346.939 694.866 342.972 662.281 342.972 647.311V603.483C342.972 598.035 344.045 592.641 346.129 587.608C348.213 582.575 351.268 578.002 355.119 574.15C358.971 570.298 363.543 567.242 368.574 565.158C373.606 563.073 378.999 562 384.446 562H430.368C441.357 562.016 451.891 566.394 459.656 574.171C467.42 581.949 471.782 592.492 471.782 603.483V671.119H429.166V612.742C429.174 611.832 429 610.929 428.656 610.086C428.311 609.244 427.802 608.479 427.159 607.835C426.516 607.191 425.75 606.682 424.908 606.338C424.066 605.993 423.163 605.82 422.253 605.828H392.921C390.997 605.859 389.163 606.646 387.813 608.018C386.464 609.39 385.708 611.238 385.708 613.163V652.722C387.025 668.53 393.699 673.901 406.417 684.135C408.209 685.577 410.121 687.116 412.155 688.794C426.207 699.697 439.317 711.764 451.345 724.866C464.048 738.124 471.374 755.629 471.902 773.985V819.797C471.91 825.249 470.843 830.65 468.762 835.69C466.682 840.73 463.628 845.31 459.776 849.169C455.924 853.027 451.349 856.088 446.313 858.176C441.277 860.265 435.88 861.34 430.428 861.34H383.965C378.595 861.348 373.277 860.296 368.314 858.244C363.352 856.192 358.843 853.181 355.046 849.383C351.249 845.586 348.239 841.076 346.187 836.112C344.136 831.149 343.084 825.829 343.092 820.458V752.221H385.708V810.298C385.708 812.211 386.468 814.046 387.821 815.399C389.173 816.752 391.008 817.512 392.921 817.512H422.133C423.078 817.512 424.013 817.325 424.884 816.962C425.756 816.598 426.547 816.066 427.212 815.395C427.877 814.725 428.403 813.929 428.759 813.054C429.115 812.179 429.294 811.242 429.286 810.298Z" fill="#AAD118"/>
</svg>
