<svg width="169" height="228" viewBox="0 0 169 228" fill="none" xmlns="http://www.w3.org/2000/svg">
<path d="M84.8082 75.6589C98.0491 75.6589 110.993 79.5945 122.002 86.968C133.012 94.3415 141.592 104.822 146.66 117.083C151.727 129.345 153.052 142.837 150.469 155.854C147.886 168.871 141.51 180.828 132.147 190.213C122.784 199.597 110.855 205.989 97.869 208.578C84.8825 211.167 71.4216 209.838 59.1885 204.759C46.9555 199.68 36.4998 191.079 29.1435 180.044C21.7872 169.009 17.8608 156.035 17.8608 142.763C17.8631 124.967 24.9173 107.9 37.4718 95.3158C50.0264 82.7319 67.0534 75.6612 84.8082 75.6589ZM84.8082 65.0439C69.4727 65.0439 54.4816 69.6021 41.7306 78.142C28.9797 86.6818 19.0415 98.8199 13.1729 113.021C7.30423 127.223 5.76872 142.849 8.76053 157.925C11.7523 173.001 19.1371 186.849 29.9809 197.719C40.8247 208.588 54.6406 215.99 69.6814 218.989C84.7222 221.988 100.312 220.448 114.481 214.566C128.649 208.684 140.758 198.722 149.278 185.941C157.798 173.161 162.346 158.134 162.346 142.763C162.313 122.161 154.133 102.412 139.599 87.8435C125.065 73.2755 105.362 65.0767 84.8082 65.0439Z" fill="#EBEBF6"/>
<path fill-rule="evenodd" clip-rule="evenodd" d="M128.757 92.2793C122.412 98.666 111.107 112.625 106.615 134.739C101.32 160.825 75.8773 196.244 67.317 207.628C81.9305 211.586 97.4509 210.461 111.345 204.438C125.238 198.415 136.684 187.848 143.815 174.464C150.945 161.08 153.338 145.668 150.603 130.745C147.869 115.821 140.168 102.268 128.757 92.297V92.2793Z" fill="#4E48C1"/>
<path fill-rule="evenodd" clip-rule="evenodd" d="M139.374 104.054C135.702 116.677 121.556 155.917 85.9288 162.87C53.7436 169.186 39.6322 181.57 34.646 187.302C45.997 200.152 61.8298 208.152 78.8868 209.658C95.9438 211.163 112.928 206.058 126.344 195.393C139.76 184.729 148.588 169.316 151.012 152.325C153.436 135.335 149.271 118.06 139.374 104.054Z" fill="#867AF8"/>
<path d="M97.0044 2.29828e-07H72.6912C72.1516 -0.000184592 71.6177 0.111104 71.1229 0.326925C70.6281 0.542747 70.1829 0.858469 69.8153 1.25439C69.4476 1.65031 69.1653 2.11793 68.9859 2.62808C68.8066 3.13822 68.734 3.67994 68.7728 4.21944L70.3084 25.7589H99.4313L100.932 4.21944C100.969 3.67949 100.895 3.13758 100.715 2.62742C100.535 2.11725 100.251 1.64974 99.8831 1.25397C99.5148 0.858201 99.0691 0.542637 98.5739 0.326909C98.0786 0.111181 97.5444 -9.52289e-05 97.0044 2.29828e-07Z" fill="#867AF8"/>
<path fill-rule="evenodd" clip-rule="evenodd" d="M60.1585 25.8037H109.5C110.385 25.8037 111.262 25.9785 112.08 26.3182C112.898 26.6578 113.641 27.1556 114.267 27.7831C114.893 28.4107 115.39 29.1557 115.729 29.9757C116.068 30.7956 116.242 31.6744 116.242 32.5619V40.417C116.241 41.9849 115.696 43.5036 114.701 44.7137C113.706 45.9237 112.323 46.75 110.788 47.0513C110.329 47.1663 104.037 48.8204 104.037 54.4641C104.037 59.4612 109.035 61.7995 110.513 62.3821C123.157 66.4436 134.783 73.4842 144.346 83.0693C160.132 98.8919 169 120.352 169 142.729C169 159.416 164.063 175.728 154.814 189.603C145.565 203.477 132.419 214.291 117.038 220.677C101.657 227.063 84.7327 228.734 68.4045 225.479C52.0764 222.223 37.078 214.187 25.3061 202.388C13.5341 190.588 5.51733 175.555 2.26945 159.189C-0.978416 142.822 0.688512 125.858 7.05944 110.441C13.4304 95.0244 24.2192 81.8475 38.0615 72.5766C44.5742 68.2148 51.6253 64.8098 59.0004 62.4268C60.3068 61.9256 65.5948 59.5811 65.5948 54.4641C65.5948 48.6258 58.8436 47.0424 58.7995 47.0424C57.278 46.7273 55.9112 45.8965 54.9292 44.6898C53.9471 43.4831 53.4097 41.9742 53.4073 40.417V32.5619C53.4073 31.6737 53.582 30.7941 53.9214 29.9736C54.2608 29.1531 54.7582 28.4077 55.3853 27.78C56.0123 27.1523 56.7566 26.6547 57.5756 26.3156C58.3947 25.9765 59.2724 25.8026 60.1585 25.8037ZM43.4891 204.739C55.7249 212.933 70.1102 217.307 84.826 217.307C104.559 217.307 123.484 209.45 137.438 195.464C151.392 181.478 159.231 162.508 159.231 142.729C159.231 127.978 154.867 113.559 146.691 101.295C138.516 89.0304 126.895 79.4715 113.299 73.8268C99.7038 68.1821 84.7435 66.7052 70.3104 69.5828C55.8774 72.4605 42.6197 79.5634 32.2141 89.9935C21.8084 100.423 14.7221 113.712 11.8511 128.179C8.98023 142.646 10.4537 157.641 16.0852 171.269C21.7167 184.896 31.2533 196.544 43.4891 204.739Z" fill="#A8AFC3"/>
</svg>
