<?xml version="1.0" encoding="utf-8"?>
<!-- Generator: Adobe Illustrator 25.3.1, SVG Export Plug-In . SVG Version: 6.00 Build 0)  -->
<svg version="1.1" id="Ebene_1" xmlns="http://www.w3.org/2000/svg" xmlns:xlink="http://www.w3.org/1999/xlink" x="0px" y="0px"
	 viewBox="0 0 1700 1080" style="enable-background:new 0 0 1700 1080;" xml:space="preserve">
<style type="text/css">
	.st0{fill:#060616;}
	.st1{fill:url(#SVGID_1_);}
</style>
<g>
	<path class="st0" d="M1084.9,517.9c0-52.9,42.3-97.2,95.5-97.2c31.9,0,59.8,15.3,76.7,39l-28.9,21c-10.6-15-26.5-24.3-46.4-24.3
		c-34.1,0-58.9,27.8-58.9,61.4c0,33.6,24.6,61.7,58.7,61.7c20.2,0,36-9.3,46.7-24.3l28.9,21c-16.9,23.7-44.8,39-76.7,39
		C1127.2,615.3,1084.9,571.4,1084.9,517.9z"/>
</g>
<linearGradient id="SVGID_1_" gradientUnits="userSpaceOnUse" x1="-2691.2498" y1="2497.2007" x2="-2899.7385" y2="2342.2251" gradientTransform="matrix(-0.5966 0.8026 0.8026 0.5966 -2566.7595 1320.0406)">
	<stop  offset="0" style="stop-color:#71F6F5"/>
	<stop  offset="1.000000e-04" style="stop-color:#43D9FF"/>
	<stop  offset="0.4896" style="stop-color:#FED617"/>
	<stop  offset="0.9792" style="stop-color:#EA2DFF"/>
</linearGradient>
<polygon class="st1" points="1043.7,392.1 981.5,390.1 1042.5,492.1 988.3,481.7 1101.7,649.9 1062.4,524.7 1104.4,530.3 "/>
<g>
	<g>
		<path d="M1105.9,405.7c-0.8,0.7-1.9,1-3.1,1c-1.9,0-3.4-0.7-4.4-2.1c-1-1.4-1.5-3.2-1.5-5.3c0-1.5,0.3-2.8,1-4.1c1-2,2.6-3,4.8-3
			c1.6,0,2.8,0.4,3.6,1.3c0.8,0.8,1.3,1.8,1.4,3h2.8c-0.2-2.7-1.4-4.7-3.7-5.8c-1.3-0.7-2.8-1-4.4-1c-2.6,0-4.7,0.9-6.3,2.8
			c-1.6,1.9-2.4,4.2-2.4,7c0,3,0.9,5.4,2.7,7.2c1.8,1.8,3.9,2.7,6.4,2.7c2,0,3.7-0.6,5.1-1.7c1.4-1.1,2.3-2.7,2.7-4.8h-2.8
			C1107.3,404.1,1106.7,405,1105.9,405.7z M1114,387.7c-3.3-3.3-7.2-4.9-11.8-4.9c-4.6,0-8.6,1.6-11.8,4.9
			c-3.3,3.3-4.9,7.2-4.9,11.8c0,4.6,1.6,8.6,4.9,11.9c3.3,3.3,7.2,4.9,11.8,4.9c4.6,0,8.6-1.6,11.8-4.9c3.3-3.3,4.9-7.2,4.9-11.9
			C1118.9,394.9,1117.3,391,1114,387.7z M1112.4,409.8c-2.8,2.8-6.2,4.2-10.2,4.2c-4,0-7.4-1.4-10.2-4.2c-2.8-2.8-4.1-6.2-4.1-10.3
			c0-4,1.4-7.4,4.2-10.2c2.8-2.8,6.2-4.2,10.1-4.2c4,0,7.4,1.4,10.1,4.2c2.8,2.8,4.2,6.2,4.2,10.2
			C1116.5,403.6,1115.1,407,1112.4,409.8z"/>
	</g>
</g>
<g>
	<g>
		<path class="st0" d="M466.3,612.1h37.9V424h-37.9V612.1z M665.6,424H620l-52.4,77v-77h-37.9v188h37.9v-75.6l60.6,75.6h49.1
			l-77-94.7L665.6,424z M748.1,420.7c-53.5,0-95.5,43.9-95.5,97.4c0,53.2,42,97.2,95.5,97.2c53.2,0,95.8-43.9,95.8-97.2
			C843.9,464.7,801.3,420.7,748.1,420.7z M748.1,579.6c-33.8,0-57.6-27.6-57.6-61.4s23.7-61.7,57.6-61.7c33.6,0,57.6,27.8,57.6,61.7
			S781.6,579.6,748.1,579.6z M961.7,424v116.5L894.5,424h-35.2v188h37.9V494.2l68.2,117.9h34.1V424H961.7z"/>
	</g>
</g>
</svg>
