<svg id="Text" xmlns="http://www.w3.org/2000/svg" viewBox="0 0 3017.23 3017.23"><defs><style>.cls-1{fill:#12161b;}.cls-2{fill:#edc59c;}.cls-10,.cls-3{fill:#2f353a;}.cls-12,.cls-4{fill:#69717e;}.cls-5{fill:#8687a3;}.cls-11,.cls-6{fill:#1e2227;}.cls-7{fill:#f7e4cb;}.cls-8{fill:#1a2a36;}.cls-9{fill:#191935;}.cls-10,.cls-11,.cls-12{fill-rule:evenodd;}</style></defs><title>Bountie Hunters Logo Design</title><path class="cls-1" d="M2301.38,1138.43c-23.58-47.46-72.19-80.61-125.61-80.61H906.83a161.38,161.38,0,0,0-32.7,3.09c-35.63,7.32-65.33,31.92-85.89,60.94-22.64,32-30.3,72.46-21.75,110.49,8.06,35.87,31.17,65,51.21,94.86,42.38,63,83.61,126.86,125.7,190.09q128.86,193.59,257.95,387,64.58,96.84,129.2,193.67,31.83,47.72,63.68,95.43c15.86,23.89,31.6,49.32,53.25,68.48,26,23,57,35.49,91.86,36.15l-37.63-37.63v0c0,20,17.24,38.11,37.63,37.63a10.65,10.65,0,0,1,1.13,0c20.34.49,37.63-17.63,37.63-37.63v0l-37.63,37.63c42-.8,79.25-19.35,106.48-51.18,27-31.62,48.58-68.37,71.62-102.89q80-119.82,159.89-239.66c106.9-160.27,214.35-320.19,320.43-481q43.13-65.37,86.67-130.44c13.48-20.11,25-43.14,29-67.19,5.14-30.84.07-59.11-13.21-87.27-8.42-17.85-35.45-23.84-51.49-13.5-18.37,11.84-22.51,32.39-13.51,51.49,4,8.38-2.45-7.77.41.75.81,2.4,1.7,4.75,2.42,7.19s1.31,4.7,1.83,7.09l.48,2.34q1,6.18-.28-3c-.86,3.92.67,9.58.52,13.72-.07,2-.83,4.81-.5,6.75q1.36-9.42.38-3.32c-.27,1.48-.57,2.95-.9,4.42-.84,3.7-1.88,7.35-3.08,11-.47,1.39-2.59,5.12-2.39,6.51l2-4.68q-.95,2.16-2,4.29a206,206,0,0,1-16.16,27.61c-25.25,37-49.91,74.42-74.46,111.92-50.72,77.47-102.48,154.27-153.82,231.32q-155.62,233.58-311.44,467c-26,38.95-51,78.87-78.29,116.89-.77,1.08-1.55,2.16-2.34,3.23-6,8.08,4-4.78-.11.24-2.86,3.51-5.73,7-8.78,10.36s-6.12,6.44-9.4,9.43c-1.39,1.27-2.84,2.47-4.25,3.71-4.8,4.24,8.17-5.77.17-.2a98.32,98.32,0,0,1-9.6,5.89c-1.62.87-3.57,1.53-5.1,2.54q9.12-3.74,3.67-1.56c-1.22.47-2.44.91-3.67,1.33a122.73,122.73,0,0,1-13.74,3.46c-7.69,1.62,9.53-.62,1.5-.23-3,.14-6,.38-9,.43-20.34.39-37.64,16.93-37.64,37.64v0l37.64-37.64a10.65,10.65,0,0,0-1.13,0l37.64,37.64v0c0-20.63-17.25-37.25-37.64-37.64-3.74-.07-7.46-.56-11.19-.65,11.83.29,1.46.12-2.38-.81a88.28,88.28,0,0,1-8.6-2.53,27.63,27.63,0,0,1-4.55-1.71l5.47,2.27c-1.16-.53-2.3-1.08-3.43-1.66-5.08-2.59-9.48-6-14.31-9,10.41,6.41,1.57,1.08-1-1.31s-5-4.8-7.43-7.33c-4.24-4.48-8-9.31-12-14,8.06,9.51.54.54-1.24-1.93q-2.94-4.1-5.78-8.25c-8.71-12.71-17.11-25.63-25.66-38.44q-63-94.41-126-188.82Q1194.57,1758.77,1068,1568.81c-42-63.08-84.3-126-125.94-189.32-20.31-30.87-40.28-62-60.93-92.61-9.53-14.15-19.87-27.89-28.61-42.55-2.07-3.49-4.06-7-5.9-10.65-.73-1.41-1.43-2.84-2.12-4.28l-1-2.14q-2.46-5.55,1,2.53c.38-2.13-2.41-6.49-3.1-8.69-1.37-4.36-2.27-8.74-3.27-13.19-1.39-6.2.55,2.61.37,3.32.37-1.51-.36-4-.44-5.62a92.06,92.06,0,0,1,.06-10.24l.18-2.3q.64-6.15-.47,3.06c.43-.47.84-4.4.9-4.68a102.48,102.48,0,0,1,3.81-13.08l.44-1.2q2.25-5.7-.75,1.7c-.18-.42,2-4.14,2.1-4.36,1.61-3.18,3.38-6.29,5.28-9.31,1-1.57,7.45-10,3.2-5s.42-.43,1.1-1.22q2.09-2.46,4.32-4.8c2.46-2.6,5.05-5.08,7.74-7.43,1.06-.93,2.27-1.78,3.28-2.75-6.89,6.65-4.12,3.12-1.65,1.39s5.3-3.55,8.06-5.14q2.31-1.32,4.66-2.5c.94-.49,1.89-1,2.85-1.39q5.41-2.43-3.17,1.31c2.59-.25,5.43-1.94,8-2.67,3.4-1,6.86-1.45,10.28-2.25-11.87,2.78-.83.39,2.9.35,12.76-.13,25.53,0,38.29,0H2178.35c1.58,0,3.17,0,4.75.12,1.39.07,2.84.32,4.23.33-9.46-.06-6.63-1.1-3.73-.45a117,117,0,0,1,12.21,3.15,22.64,22.64,0,0,0,4,1.42c-6.82-.67-6.33-2.83-2.22-.86q4.29,2.06,8.38,4.51c3.05,1.84,5.84,4,8.83,5.94-9.63-6.17-.3,0,2.21,2.37q3.14,3,6,6.12c1.45,1.59,2.82,3.25,4.23,4.88,2.44,2.8.22,3.06-1.92-2.52,1.13,2.94,4.3,6.19,6,8.93,1.84,3,3.52,6.2,5.1,9.39,8.78,17.67,35.21,24,51.5,13.51C2306,1178.27,2310.77,1157.33,2301.38,1138.43Z"/><path class="cls-2" d="M2243.75,1173.54c-16.08-33.15-49.42-59.48-86.43-59.48H930.85c-37,0-70.36,26.33-86.44,59.48-20.59,42.45-7.45,79.42,18,115.84,30.26,43.39,58.56,88.31,87.85,132.36q130.53,196.27,261.38,392.35,110.79,166.14,221.66,332.26c28.36,42.49,53.09,85.31,110.29,85.84v0h1.08v0c57.2-.53,81.93-43.35,110.3-85.84q110.85-166.11,221.66-332.26Q2007.35,1618,2138,1421.74c29.3-44,57.59-89,87.85-132.36C2251.2,1253,2264.35,1216,2243.75,1173.54Z"/><path d="M700.66,855.89h0"/><path class="cls-3" d="M2263.73,1891.29q-.63-20.79-28.93-88.06-21.54-49-77.42-149.12-69.6-178.41-116.14-260.7-15.62-30.11-50.87-70-20.2-24.27-79.33-59.83l-63.17-77c-86.14,75.11-130.08,211.25-165.51,234.74-36.8,26-76.67,33.19-135,57.07l0,1.55,0-3.58c-58.34-23.88-100.46-25.26-137.26-51.27-35.43-23.49-91.93-163.4-178.06-238.51l-63.18,77q-59.13,35.55-79.33,59.83-35.25,39.85-50.87,70-46.55,82.27-116.13,260.7-55.89,100.14-77.43,149.12-28.29,67.27-28.93,88.06-12.81,52.68,41.55,104.57c33.19,30.41,107.47,74,233.14,152l25.71,23.41q38.57-305.91,56.93-365.86,29.09-112.27,53.85-121.64,19.76-16.53,53.46,1.72Q1317.42,1707,1381,1787.09l98.65,29.4-26.85,67.64,87.12-3.85,87.11,3.85-26.85-67.64,98.66-29.4q63.62-80.13,100.22-101.64,33.71-18.24,53.46-1.72,24.78,9.36,53.85,121.64,18.38,60,56.94,365.86l25.69-23.41c125.66-77.91,200-121.55,233.15-152Q2276.55,1944,2263.73,1891.29Z"/><path class="cls-2" d="M1591.34,2131.45l-78.51-16.12-188.54-12.69-16.82-48.89q37.65-3.8,33.79-34.32.63-8.84-11.1-46.09-9-27.43-33.7-87.44l77.66-93.4,68.47,11.89a124.58,124.58,0,0,1,13.92,3.27q18.08,3.69,14.27,19.94-2.22,11.37-30.17,52.54l121.9,6.31,28.83,245"/><path class="cls-2" d="M1491.29,2132.55l75.77-17.22,188.54-12.69,16.83-48.89q-37.67-3.8-33.8-34.32-.63-8.84,11.11-46.09,9-27.43,33.69-87.44l-77.66-93.4-68.47,11.89a125.11,125.11,0,0,0-13.92,3.27q-18.08,3.69-14.27,19.94,2.22,11.37,30.18,52.54l-121.91,6.31-26.09,246.1"/><path class="cls-4" d="M1092.25,1545.32l58.14-156.94-23.55-83.53-53.38,41.76,2.88,7.05c.68,1.57,1.34,3.14,2,4.7q-7.68-1.9-12.06-11.45-45,119.77-63.49,156.45a423.87,423.87,0,0,1-24.49,44.93q-.06,2.19-48,67.63a416.14,416.14,0,0,0-24.46,40.72,482.68,482.68,0,0,0-39.57,98.24q-14.32,57.64,5.64,87.17,13.74,28.21,89.14,82.45l7.15,5.19q-44.41-50.91-57.76-79.5a119.34,119.34,0,0,1-8.54-22.93l-2.12-11.52a74.41,74.41,0,0,1,.91-23.18l3.29-11.67a134.7,134.7,0,0,1,11.7-23.85q7.43-12.13,17.12-25,54-68.22,66.92-89,6.36-7.37,32.08-56.15,25.29-47.11,65-169.83,1.92,9.79,2.85,19.07c.52,5.53.82,11.17.9,17q.39,4.14-.76,26.66Q1098.41,1502.39,1092.25,1545.32Z"/><path class="cls-4" d="M2213.63,1754.88a481.54,481.54,0,0,0-39.57-98.24,416.19,416.19,0,0,0-24.45-40.72q-48-65.43-48-67.63a422,422,0,0,1-24.5-44.93q-18.53-36.67-63.49-156.45-4.38,9.55-12,11.45,1-2.34,2-4.7l2.88-7.05-53.37-41.76-23.55,83.53,58.13,156.94q-6.15-42.93-7.57-65.61-1.14-22.51-.76-26.66c.09-5.78.39-11.42.9-17q.93-9.28,2.85-19.07,39.75,122.71,65.05,169.83,25.71,48.8,32.07,56.15,13,20.77,66.92,89,9.71,12.9,17.12,25a134.78,134.78,0,0,1,11.71,23.85l3.29,11.67a74.41,74.41,0,0,1,.9,23.18l-2.12,11.52a119.34,119.34,0,0,1-8.54,22.93q-13.34,28.59-57.76,79.5l7.15-5.19q75.39-54.23,89.15-82.45Q2228,1812.53,2213.63,1754.88Z"/><path class="cls-5" d="M1329.87,1502.15l-12.75-12.74a883.47,883.47,0,0,1-70.17-76.52q-23.58-32-26-38.46a177.69,177.69,0,0,1-11.87-25.76,149.71,149.71,0,0,1-6.78-25.88l-1.64-13a188.28,188.28,0,0,1-.36-26q1.35-32.55,17.64-91.47l21.74,23.59q-7.73,57-3.79,89.94a199.57,199.57,0,0,0,4.69,26.65l3.91,13.58a199.59,199.59,0,0,0,11.55,27.79,365.37,365.37,0,0,0,37.16,56.68q7.05,11.07,72.68,84.3,4.52,5.6,5.51,8.08,1.61,4.66-6.73.45-9.29-4.5-34.82-21.24"/><path class="cls-5" d="M1750,1502.15l12.74-12.74a883.47,883.47,0,0,0,70.17-76.52q23.6-32,26-38.46a177.69,177.69,0,0,0,11.87-25.76,147.93,147.93,0,0,0,6.78-25.88l1.64-13a188.28,188.28,0,0,0,.36-26q-1.35-32.55-17.64-91.47l-21.74,23.59q7.72,57,3.79,89.94a198,198,0,0,1-4.69,26.65l-3.91,13.58a199.59,199.59,0,0,1-11.55,27.79,365.28,365.28,0,0,1-37.15,56.68q-7.05,11.07-72.69,84.3-4.51,5.6-5.51,8.08-1.6,4.66,6.74.45,9.27-4.5,34.82-21.24"/><path class="cls-3" d="M1336.4,2122.58l-12.54,7.68q-50.68,32.84-97.19,48.59-39.14,12-69.2-3.2-5.91-1.37-28.9-20-14.8-12.37-35.56-42.08-28.63-42.77-12.1-39.28-30.71-41.1-34.05-61.29-5.47-20.25,7.6-60-20.22-40.26-24-63.87a62.59,62.59,0,0,1,4.82-38q9.42-20.67,38.48-50l88.32-23.15,47.84-96,100.3-6.86,75.94,144.46-88.21,48-17.26,61.9,25,5.94q34.56,31.34,37.06,46.41,10.1,24.32-37.49,76.86l31.13,63.94"/><path class="cls-3" d="M1743.49,2122.58l12.54,7.68q50.68,32.84,97.19,48.59,39.13,12,69.2-3.2,5.92-1.37,28.9-20,14.81-12.37,35.57-42.08,28.62-42.77,12.09-39.28,30.72-41.1,34-61.29,5.49-20.25-7.6-60,20.23-40.26,24-63.87a62.59,62.59,0,0,0-4.82-38q-9.42-20.67-38.47-50l-88.33-23.15L1870,1682l-100.29-6.86-76,144.46,88.21,48,17.26,61.9-25,5.94q-34.55,31.34-37,46.41-10.1,24.32,37.49,76.86l-31.14,63.94"/><path class="cls-6" d="M1137.42,1841.87l6-3.13a262.83,262.83,0,0,0,34.5-20.46q12.81-10.07,14.71-12.73a86.74,86.74,0,0,0,8.29-10,94.47,94.47,0,0,0,6.86-11.37q1.88-2.68,8-19.31,5.84-16.92,12.46-51.17,7.26,47.35,10,60.25,3.33,16.58,4.07,19.11.08,1.17,5.52,20.38a71.24,71.24,0,0,1,1.76,7.93q1.32,7.18-2,11.72a14,14,0,0,1-5.12,4l-3.9,1.54q-7.86,2.42-21,3.34-19.52,1.82-80.21-.08"/><path class="cls-6" d="M1942.47,1841.87l-6-3.13a263,263,0,0,1-34.51-20.46q-12.8-10.07-14.71-12.73a86.66,86.66,0,0,1-8.28-10,92,92,0,0,1-6.86-11.37q-1.89-2.68-8-19.31-5.83-16.92-12.46-51.17-7.26,47.35-10,60.25-3.33,16.58-4.07,19.11-.09,1.17-5.53,20.38a73.57,73.57,0,0,0-1.76,7.93q-1.32,7.18,2,11.72a14,14,0,0,0,5.12,4l3.9,1.54q7.86,2.42,21,3.34,19.51,1.82,80.2-.08"/><path class="cls-6" d="M1253.29,1827.22l-31.71-79.52,9.21-44.08q23,85.07,55.92,100.81,13,6.67,31.89,1.17,19.44-5.61,53.9-26.48a163.06,163.06,0,0,1,6.59,34,48.6,48.6,0,0,1-3.34,21.05,46.48,46.48,0,0,1-13.61,17.73,83.1,83.1,0,0,1-10,7.2q-2.41,2.09-17.56,8.59a94.48,94.48,0,0,1-24.57,5.93q-13.34,1.37-23.64-3.41a45.23,45.23,0,0,1-16-13.23,158.75,158.75,0,0,1-17-29.76"/><path class="cls-6" d="M1826.61,1827.22l31.7-79.52-9.21-44.08q-23,85.07-55.92,100.81-13,6.67-31.88,1.17-19.46-5.61-53.91-26.48a163,163,0,0,0-6.58,34,48.45,48.45,0,0,0,3.33,21.05,46.61,46.61,0,0,0,13.62,17.73,82.19,82.19,0,0,0,10,7.2q2.43,2.09,17.56,8.59a94.48,94.48,0,0,0,24.57,5.93q13.33,1.37,23.64-3.41a45.23,45.23,0,0,0,16-13.23,158.77,158.77,0,0,0,17-29.76"/><path class="cls-6" d="M1213.18,1838.74l7.45,3q50.37,19,64.25,35.08,13.83,14.13.25,48.25-40.61,17.31-61.89,24.29-26.37,8.91-47.07,10.72-16.29,1.64-38.79-1.57l-57.26-9.94q-11-2.64-12.67-3.76a36.36,36.36,0,0,1-13.72-9.78q-1.74-1.1-7.72-12.44-7.86-17-15-54.66a147.61,147.61,0,0,0,20.14,30.16q11.41,11,15,12.46a80.84,80.84,0,0,0,13.23,6.63q18.57,7,43.45,8.72,33.36,2,59.12-2a128.73,128.73,0,0,0,37.85-10.68q18-9.48,22.42-21.56,1.52-2,2.12-11.65a30.36,30.36,0,0,0-4.29-14.2q-6.7-11.58-26.93-27"/><path class="cls-6" d="M1866.71,1838.74l-7.45,3q-50.37,19-64.25,35.08-13.83,14.13-.25,48.25,40.6,17.31,61.9,24.29,26.35,8.91,47.06,10.72,16.3,1.64,38.79-1.57l57.27-9.94q11-2.64,12.67-3.76a36.41,36.41,0,0,0,13.71-9.78q1.75-1.1,7.73-12.44,7.84-17,15-54.66a147.2,147.2,0,0,1-20.14,30.16q-11.42,11-15,12.46a80.84,80.84,0,0,1-13.23,6.63q-18.56,7-43.44,8.72-33.37,2-59.13-2a128.73,128.73,0,0,1-37.85-10.68q-18-9.47-22.42-21.56-1.52-2-2.11-11.65a30.24,30.24,0,0,1,4.28-14.2q6.72-11.58,26.93-27"/><path class="cls-6" d="M1330.77,1964.9l13.08,50.32q-66.22,42.94-105.91,59.73-33.07,14.64-67,15.55-15.43.64-37.21-3.7-16.83-3.12-42.37-14.78-49.77-25.21-60.24-50.79-7-15.8,22.35-35.22a109.5,109.5,0,0,0,22.17,33q9.87,9.52,27.15,14.69,38.2,10,113.89-4.55,56.73-11,87.64-26.6,25.08-11.45,26.45-37.6"/><path class="cls-6" d="M1749.13,1964.9,1736,2015.22q66.23,42.94,105.92,59.73a176,176,0,0,0,67,15.55q15.43.64,37.21-3.7,16.85-3.12,42.37-14.78,49.77-25.21,60.24-50.79,7-15.8-22.35-35.22a109.5,109.5,0,0,1-22.17,33q-9.87,9.52-27.15,14.69-38.19,10-113.88-4.55-56.73-11-87.65-26.6-25.07-11.45-26.44-37.6"/><path class="cls-6" d="M1312.51,2091.23l3.26,36.19a117.58,117.58,0,0,1-52,40.95q-23.25,9.6-40.3,12.78-6.45,1.35-13.07,2.23l-6.65.74a135.41,135.41,0,0,1-24,.19q-19.35-2.07-30.32-7.44l-8.85-4.61a107.21,107.21,0,0,1-16.06-11.83q-30-29-38.3-54.64-.39-3.08,4-.15l17.12,12.1q12.23,7.82,15.6,9.22a110.08,110.08,0,0,0,12.2,5.36c2.45.9,5,1.71,7.54,2.45a138.13,138.13,0,0,0,24.41,4.5q18.67,1.47,31.17.3a181.94,181.94,0,0,0,61.7-15q23.61-10.66,52.55-33.36"/><path class="cls-6" d="M1767.38,2091.23l-3.26,36.19a117.58,117.58,0,0,0,52,40.95q23.25,9.6,40.31,12.78,6.43,1.35,13.07,2.23l6.65.74a135.41,135.41,0,0,0,24,.19q19.33-2.07,30.32-7.44l8.84-4.61a107.81,107.81,0,0,0,16.07-11.83q30-29,38.29-54.64.39-3.08-4-.15l-17.13,12.1q-12.22,7.82-15.59,9.22a111.75,111.75,0,0,1-12.2,5.36c-2.46.9-5,1.71-7.55,2.45a138,138,0,0,1-24.4,4.5q-18.69,1.47-31.18.3a181.94,181.94,0,0,1-61.7-15q-23.61-10.66-52.55-33.36"/><path class="cls-6" d="M1226.77,1671.18l-3.6-11.55q-24.26-76-31.54-118.8-7.16-38.74-2.79-97,22.9,70.55,57.61,121.59,41.83,57.11,109.83,117.27l39.76,36q37.24,6.16,58.14,17.43,3.88-.71,44,37,10.42,7.42,13,8.16,20.88,9.81,58.07,12.3l1.08,90.47-108.56-2.58-15.62-15.35,26.83-33q4-10-5.51-18.6a142.83,142.83,0,0,0-52.84-22.37q-19.3-3.39-35.25,4-39.9-82.14-65.86-101-24.9-22.82-86.72-24"/><path class="cls-6" d="M1853.13,1671.18l3.59-11.55q24.26-76,31.54-118.8,7.15-38.74,2.8-97-22.9,70.55-57.62,121.59-41.84,57.11-109.83,117.27l-39.76,36q-37.23,6.16-58.13,17.43-3.9-.71-44,37-10.41,7.42-12.94,8.16-20.88,9.81-58.08,12.3l-1.08,90.47,108.56-2.58,15.62-15.35-26.82-33q-4-10,5.5-18.6a142.9,142.9,0,0,1,52.84-22.37q19.32-3.39,35.26,4,39.89-82.14,65.85-101,24.9-22.82,86.73-24"/><path class="cls-6" d="M957,1769.11l12.88-9q86.33-57.3,117.35-112.61a233.71,233.71,0,0,0,20.19-52.65q3.38-8.86,18.48-91.89.85-6.78,9.29-31.68,9.93-30.29,46.45-72.83.21,23.71,21.12,66.23,17.2,37,93.2,172.41-134.88,63.36-190.3,84.43-57.57,22.95-148.66,47.63"/><path class="cls-6" d="M2122.86,1769.11l-12.87-9q-86.32-57.3-117.35-112.61a234.21,234.21,0,0,1-20.2-52.65q-3.37-8.86-18.48-91.89-.86-6.78-9.28-31.68-9.95-30.29-46.45-72.83-.21,23.71-21.13,66.23-17.19,37-93.2,172.41,134.88,63.36,190.31,84.43,57.57,22.95,148.65,47.63"/><path class="cls-6" d="M1894.23,1286.44q-9.13,9.12-28.28,40-73.64,128.63-89.41,148.54-22.57,33.22-49.18,48-19.84,11.12-53,6.77l-3.15-73.8-116,31.64-15.2.45-15.21-.45-116-31.64-3.15,73.8q-33.18,4.35-53-6.77-26.61-14.82-49.19-48-15.76-19.9-89.41-148.54-19.14-30.84-28.28-40-24.21-28.76-47.37-5.57l2.93,14.07q16.9,92,51.78,150.51a295.21,295.21,0,0,0,111.19,107.11q37.68,20.32,87,23.49,46.59,2.79,120.28-8.4l-57-57.37q36.45,12.53,57.46,12.78,8.92,1,27.94-1.48c12.65,1.63,22,2.13,27.93,1.48q21-.25,57.47-12.78l-57,57.37q73.69,11.19,120.29,8.4,49.35-3.16,87-23.49a295.14,295.14,0,0,0,111.19-107.11q34.89-58.53,51.78-150.51l2.93-14.07Q1918.46,1257.68,1894.23,1286.44Z"/><path class="cls-6" d="M1501.82,1826.49l-10-6.78q-66.4-43.35-96.13-81.17-27.57-33.06-50.79-114.53,65.41,67.44,107.16,96,40.14,29.44,138.48,77.92l-88.73,28.61"/><path class="cls-6" d="M1578.07,1826.49l10-6.78q66.4-43.35,96.13-81.17,27.57-33.06,50.79-114.53-65.42,67.44-107.16,96-40.12,29.44-138.48,77.92l88.73,28.61"/><path class="cls-6" d="M1085.35,2129.9l-14.88-7.73a1166.21,1166.21,0,0,1-114-65.41q-58.2-41.3-80.5-69.62Q807,1906.81,825.5,1843.68a316.67,316.67,0,0,1,18.32-52q25.78,71.22,49.26,95.36,21.58,26.19,85.92,55.64,2-109.51,42.22-148.27,17.43-16.15,45.36-18.67,27.4-3.07,81.37,4.06-56.12,4.45-77.16,21.1-28.41,21-36.23,57-8.5,34.47,27.86,95.48-25.17,32.91-20.27,59.8,2.8,12.1,11.79,25.17,2,4.25,33.56,43.24,9.12,13.17,9.07,14.89,7.48,19.38-11.22,33.4"/><path class="cls-6" d="M1994.54,2129.9l14.89-7.73a1166,1166,0,0,0,114-65.41q58.2-41.3,80.5-69.62,68.94-80.33,50.45-143.46a316.63,316.63,0,0,0-18.31-52q-25.8,71.22-49.27,95.36-21.58,26.19-85.92,55.64-2-109.51-42.22-148.27-17.43-16.15-45.35-18.67-27.42-3.07-81.38,4.06,56.13,4.45,77.17,21.1,28.4,21.06,36.22,57,8.51,34.47-27.86,95.48,25.18,32.91,20.27,59.8-2.79,12.1-11.79,25.17-2,4.25-33.56,43.24-9.11,13.17-9.07,14.89-7.47,19.38,11.22,33.4"/><path class="cls-6" d="M944.39,1794.27l9.2-13.85q61.63-91.14,84.24-142.31,21.53-46.33,25.16-115.6,7.53,30.46,12.44,60a245,245,0,0,1,3.14,38.1q-1,22.73-2.52,26.79a163.66,163.66,0,0,1-10.39,33.15q-8.34,20-29.32,53.92l-91.95,59.82"/><path class="cls-6" d="M2135.5,1794.27l-9.2-13.85q-61.62-91.14-84.24-142.31-21.52-46.33-25.16-115.6-7.51,30.46-12.43,60a245.06,245.06,0,0,0-3.15,38.1q1,22.73,2.52,26.79a164.29,164.29,0,0,0,10.39,33.15q8.36,20,29.32,53.92l92,59.82"/><path class="cls-7" d="M1290.86,1886.46l16.34,34.61,115.52,22.55,72,1q-67-11.65-87.61-17.47a167.21,167.21,0,0,1-43-17.47q84.07-1.32,99.68-9,7.35-4.15.31-10.93-5-5.51-24-17.2-95.06-13.47-125.75-18.47l-23.6,32.41"/><path class="cls-7" d="M1789,1886.46l-16.34,34.61-115.52,22.55-72,1q67-11.65,87.61-17.47a167.28,167.28,0,0,0,43-17.47q-84.07-1.32-99.69-9-7.33-4.15-.31-10.93,5-5.51,24-17.2,95.07-13.47,125.75-18.47l23.6,32.41"/><path class="cls-7" d="M1347.91,1860.24l8.74,0q26.61,0,49.68-1.26,7.56-.48,14.33-1.23l6.53-.84q6.3-.93,11.53-2.24a67.72,67.72,0,0,0,9.3-3l3.89-1.8a43.48,43.48,0,0,0,6.5-4q7.35-5.34,14.5-17.16-13,8-21.94,9.37-9.1,2-24.18,1.08-19.21-1.5-29.72-5.67-7.87-2.68-16.66-11.21l-32.5,38.1"/><path class="cls-7" d="M1732,1860.24l-8.74,0q-26.61,0-49.69-1.26-7.56-.48-14.33-1.23l-6.53-.84q-6.3-.93-11.53-2.24a67.72,67.72,0,0,1-9.3-3l-3.89-1.8a43.48,43.48,0,0,1-6.5-4q-7.34-5.34-14.49-17.16,13,8,21.93,9.37,9.12,2,24.18,1.08,19.23-1.5,29.72-5.67,7.88-2.68,16.66-11.21l32.51,38.1"/><path class="cls-7" d="M1307.07,2066.28q.18,6.57,6.27-3.15l-3.78-12.9Q1306.79,2064.39,1307.07,2066.28Z"/><path class="cls-7" d="M1770.08,2050.23l-3.78,12.9q6.1,9.7,6.28,3.15Q1772.85,2064.39,1770.08,2050.23Z"/><path class="cls-7" d="M1745.82,2009.64q-5.34-25.83,4.74-79.62l-73,15.22-136.69,20.7-1.1,2.52-1.09-2.52L1402,1945.24l-73-15.22q10.08,53.79,4.75,79.62-2.68,17.5-13.53,41-4.12,8-7,12.54l15.23,52,78.21-1.93-44.18-54q22.17-33,22.09-48.59,1.9-15.72-16.61-45.22,35.45,17.67,67.74,23.4,24.81,5.25,90.67,10.53s8.72,1.39,13.33,1c4.62.35,13.34-1,13.34-1q65.85-5.28,90.67-10.53,32.3-5.71,67.74-23.4-18.51,29.49-16.61,45.22-.07,15.54,22.09,48.59l-44.19,54,78.22,1.93,15.22-52q-2.83-4.52-7-12.54Q1748.49,2027.15,1745.82,2009.64Z"/><path d="M1463.49,1353.65l12.19,3.91q37.72,11.63,44.49,12.66a99.88,99.88,0,0,0,10.12,1.84l3.41.23a11.46,11.46,0,0,0,2-.14c1.26.13,4.13.13,8.59,0a11.46,11.46,0,0,0,2,.14q5.73,0,20.24-3.68,8.4-1.72,50-15l-8.6,5.34q-8.47,5.09-16.48,9.2t-15.54,7.24q-7.53,3.13-14.58,5.29l-6.93,1.9a46.56,46.56,0,0,1-28.66,0,136.5,136.5,0,0,1-14.11-4.3l-7.41-2.89q-3.46-.95-23.66-11.6Q1472.19,1359.24,1463.49,1353.65Z"/><path d="M1892.83,1188.79l-1.07,3.18a108.06,108.06,0,0,1-11.27,23.12q11.88,50.27-4,111.27-11.13,42.24-39.08,82.14-29.46,40.26-73.94,70.08-68.49,43-119.86,53.2-2.4,3.38-14.06,14.53,59.91-3,122.06-34.14,73-38.73,102.92-81.33a290.22,290.22,0,0,0,32.18-54.26q11.55-22.95,20.32-72.55Q1914,1252.7,1892.83,1188.79Z"/><path d="M1850.68,1091.94c-.13,0-.14.22,0,.64l0,.17c.08-.22.16-.45.23-.67A.48.48,0,0,0,1850.68,1091.94Z"/><path d="M1203.24,1145.19q-4.31,10.21-8.06,20.19-16.71,44.41-22.23,84.17-8.29,59.52,20.22,127,21,45.54,51.41,76.55,30.5,30.39,71.29,52.52,55.88,30.6,110.58,38.36h0q12,1.7,23.87,2.3-10.93-10.47-12.77-13.09-.68-.72-1.32-1.44a174.59,174.59,0,0,1-21.38-5.8q-4.6-1.38-9.31-3h0c.83,1,1.69,2,2.57,3h0c-.89-1-1.74-2-2.57-3a376.17,376.17,0,0,1-57.78-25.73q-74.22-39.49-114.68-102.5-35.94-59.36-38.6-126.75-.7-23.79,6.16-59.62.63-6,7.36-32.5h0q2.34-9.26,5.42-21a105.61,105.61,0,0,1-10.15-9.75Z"/><path d="M1700.66,1284.77q-6,5.77-12.45,11.29,1.69,3.81,2.87,7.35c1.4,4,2.65,8.22,3.73,12.51h0l0,0q9.45,37.35,2.47,87.1-7.14,61-29.76,97.49a207.65,207.65,0,0,1-23.82,31.23h0c-.43.49-.86,1-1.3,1.45q-1.85,2.63-12.78,13.09,11.89-.61,23.85-2.3a201,201,0,0,0,21-21h0q1.71-2,3.2-3.9,31.6-38.29,42.53-101.11,8.42-66.35-10.55-114.76h0c-.18-.51-.37-1-.56-1.5a110.43,110.43,0,0,0-8.26-17Z"/><path d="M1379.22,1284.77a108.63,108.63,0,0,0-8.26,17c-.2.5-.4,1-.59,1.49q-19,48.42-10.55,114.76,10.9,62.82,42.52,101.11,1.5,1.92,3.16,3.89h0a203.2,203.2,0,0,0,20.94,21q12,1.7,23.87,2.3-10.93-10.47-12.77-13.09-.68-.72-1.32-1.44h0a208,208,0,0,1-23.8-31.24q-22.62-36.43-29.76-97.49-7-49.77,2.42-87.12h0c1.08-4.29,2.33-8.47,3.74-12.51q1.17-3.54,2.83-7.37-6.4-5.52-12.42-11.27Z"/><path class="cls-8" d="M1361.71,1266.62q.88,15,3.37,31.66l0,0h0c0,.16,0,.32.07.48q1,6.46,2.19,12.79h0l0,0a434.53,434.53,0,0,0,12.35,50h0v.08c.46,1.4.91,2.79,1.36,4.18q3,8.94,6.21,16.34a194.43,194.43,0,0,0,13.73,24.07q24.09,35.85,65.06,53.62,15.48,6.94,38.78,6.95a218.35,218.35,0,0,0,35.12-3.18,218.58,218.58,0,0,0,35.14,3.18q23.3,0,38.77-6.95,41-17.78,65.06-53.62a193.15,193.15,0,0,0,13.74-24.07q3.22-7.41,6.2-16.34c.45-1.39.9-2.78,1.34-4.18v-.08h0a428.75,428.75,0,0,0,12.34-50c-.94-2.83-1.94-5.61-3-8.36h0q-7.12,6.52-14.7,12.67-.54-2.14-1.14-4.26c-.64,2.23-1.3,4.49-2,6.76h0a.05.05,0,0,0,0,0q-4.7,15.93-11,33.08-16,40.08-23.65,49.81a136.28,136.28,0,0,1-51.38,46.58q-16.42,9.57-65.64,13.82-49.23-4.24-65.65-13.82a136.25,136.25,0,0,1-51.37-46.58q-7.7-9.72-23.65-49.81-6.35-17.16-11.07-33.1l0,0h0q-2.54-8.58-4.61-16.78-2.27-8.69-4.07-16.59l-.29-.29q-9.21-8.79-17.51-18.15Zm333,49.34v0h0ZM1540,1461.75c2.41.21,4.87.41,7.4.6q-3.76.7-7.4,1.31-3.65-.6-7.4-1.31,3.78-.28,7.39-.6Z"/><path d="M1701.42,1284h0l-.76.72a109.23,109.23,0,0,1,8.84,18.47q2.1-1.9,5.29-5,.68-4.4,1.53-11.06c-2.48-.26-4.83-.62-7.07-1.07A57.8,57.8,0,0,1,1701.42,1284Z"/><path d="M1667.3,1294Z"/><path d="M1666.7,1293.75l0,0,.12,0h0Z"/><path d="M1663.57,1315.35q-8.13,5.79-16.76,11.29-1.44,10.68-2,18.47c-.14,1.53-.25,3.08-.34,4.64h0l0,0a158.43,158.43,0,0,0,.36,21.69c.26,2.91.69,6,1.27,9.17q.9,5.11,3,12.87l.14,1.15a18,18,0,0,1,0-3.18q.63-9.24,1.33-15.19,1-10.14,3.49-22.38,1.22-5.7,2.47-11.12h0q3.42-14.76,7-27.43Z"/><path d="M1667.46,1294.11h.08Z"/><path d="M1666.83,1293.83h0l.22.08h0l-.21-.09Z"/><path d="M1416.3,1315.34q3.62,12.67,7,27.43,1.26,5.43,2.47,11.13,2.46,12.24,3.49,22.38.69,5.94,1.34,15.19a20.1,20.1,0,0,1,0,3.18l.13-1.15q2.09-7.76,3-12.87c.58-3.2,1-6.26,1.27-9.17a156.89,156.89,0,0,0,.34-21.7h0c-.08-1.56-.2-3.11-.34-4.64q-.51-7.78-2-18.49-8.62-5.47-16.75-11.28Z"/><path d="M1666.7,1293.75a.57.57,0,0,0,.13.08h0l-.15,0Z"/><path d="M1194.38,1263.4q-11.67,1.63-23.09,4h0q-11.94,2.51-23.61,5.88-55.11,16.2-90,67.62a311,311,0,0,0-23.12,40.82q-6.62,11.51-47.33,112.41a465.6,465.6,0,0,1-25.11,49.41,419.45,419.45,0,0,1-24.43,36.87q-71.73,90.43-81.34,106.39-24.17,34.58-44.76,82.67-3.64,9.24-7,18.59A711.6,711.6,0,0,0,782,1863.29a386.4,386.4,0,0,0,26.77,73.63q7.08-34.83,17-68.2h0a741.11,741.11,0,0,1,41.57-108.1q16.46-31.66,29.9-50.41l79.54-103.67a461.56,461.56,0,0,0,27.34-41.85q7.53-11.49,23.81-50.44,45.88-130.41,48.23-130.42s.07,0,.09.09q9.84-24.26,30.19-49.37,17.43-22.29,64-40.81l1.34-.39h0l24-7.07q-1-9.06-1.33-18.25c0-1.51-.07-3.06-.07-4.64Z"/><path d="M2275.39,1788.21l0,0q-3.06,15.63-7.16,33.72a290.08,290.08,0,0,1-14.07,46.81q-19.07,48.76-57.18,100.31-52.62,70.47-132.6,114.93a570.43,570.43,0,0,1-67,31.54h0q-6.51,2.57-13.09,5-3.63,1.41-8.4,3.14-3.54,12.39-8,19.1a63.69,63.69,0,0,1-9.2,12.19q15.43-3.24,30.34-7.14a560.32,560.32,0,0,0,89.8-31.57q90-39.49,160.07-127a308.62,308.62,0,0,0,32.27-52.38,386.24,386.24,0,0,0,26.76-73.59A705.16,705.16,0,0,0,2275.39,1788.21Z"/><path d="M1851.67,2164.94q-1.64.64-3.27,1.32c-2.8,1.16-5.58,2.37-8.36,3.63q13.61-.69,26.87-1.78-4.58-.84-9.39-1.84Q1854.55,2165.61,1851.67,2164.94Z"/><path d="M1228.22,2164.94q-2.87.67-5.85,1.33c-3.2.67-6.34,1.28-9.4,1.84q13.27,1.09,26.88,1.78-5.79-2.64-11.61-4.95Z"/><path d="M804.53,1788.12A711.6,711.6,0,0,0,782,1863.29a386.4,386.4,0,0,0,26.77,73.63A309.26,309.26,0,0,0,841,1989.3q70.07,87.45,160.07,127a561.17,561.17,0,0,0,89.79,31.57h0q14.91,3.9,30.36,7.14a63.31,63.31,0,0,1-9.21-12.19q-4.43-6.72-8-19.12-4.73-1.72-8.31-3.12-6.62-2.42-13.13-5h0a572.18,572.18,0,0,1-67-31.53q-80-44.45-132.6-114.93-38.13-51.57-57.2-100.36h0a290.92,290.92,0,0,1-14-46.76q-4.12-18.15-7.17-33.84Z"/><path d="M1291.88,1671.79q6.43,8.14,13.5,18.3,7.57,10.86,15.86,24A664.53,664.53,0,0,1,1359.9,1786q10.66,24,7.89,34.32-6.45,17.94-41.8,30.3-16.38,5.87-28.9,5.86-12.28,0-20.86-5.65-10.24-6.93-19.13-29.63-4.63-12.15-7.88-23.75L1233.29,1738l-3.52-11-.85.42q-.8,40.18,10.42,92.52a160.89,160.89,0,0,0,5.32,17.32h0q7.74,20.61,19.41,29.62,13.56,11.73,35.89,11.74,1.88,0,3.81-.09h0a106.44,106.44,0,0,0,10.82-1q41.34-7.15,64.17-27.3,16.39-15,16.16-35.2.06-19.11-15.6-47.34a532,532,0,0,0-46.4-73.48h0q-6.35-8.4-13-16.43-13.74-3.51-28-5.94Z"/><path d="M1788,1671.79q-14.34,2.43-28.07,5.94-6.6,8-13,16.43h0a530.15,530.15,0,0,0-46.4,73.48q-15.67,28.23-15.6,47.34-.24,20.19,16.16,35.2,22.83,20.14,64.16,27.3a103.56,103.56,0,0,0,10.82,1h0c1.3,0,2.58.08,3.82.08q22.33,0,35.89-11.74,11.67-9,19.41-29.62h0a153.58,153.58,0,0,0,5.36-17.33q11.22-52.34,10.42-92.52l-.84-.42-3.53,11-15.93,59.42q-3.26,11.6-7.87,23.75-8.9,22.71-19.14,29.63-8.57,5.65-20.86,5.65-12.51,0-28.9-5.86-35.34-12.36-41.8-30.3-2.77-10.37,7.9-34.32a662.69,662.69,0,0,1,38.65-71.85q8.3-13.17,15.85-24h0q7.1-10.15,13.53-18.3Z"/><path d="M1833.6,1668.11a329,329,0,0,0-42.73,3.2l-2.89.48h0q-14.32,2.43-28,5.93-6.6,8-13,16.43,12.29-2.15,19.5-3.06c2.67-.37,5.34-.7,8-1h0q11.27-1.29,22.69-1.87,8.47-.57,16.5-.57,28.69,0,51.39,7.29a30.82,30.82,0,0,1,19.29,16,45.38,45.38,0,0,1,2.62,11q2,38.33,4.37,44.37a45.31,45.31,0,0,0,13,22.64q8,7.39,23.61,11.13-.06,1.13,51,7.39,17.2,3.42,22.81,6.49,13.18,4.32,25.33,26.6,10.5,24.12,10.18,47.81.3,23.94-8.51,37.71-12.75,22.11-79.21,23.46l-4.28,0q-63.62,0-106.94-14.65-45.84-18-42.34-41,11.82-29.64,69.06-45a184.66,184.66,0,0,1,38.89-4.41l2.69,0,18.54.68q44.84,4.11,50.78,4.11l.63,0q-48.63-19.84-90.94-19.85a163,163,0,0,0-50.36,7.73h0a158.55,158.55,0,0,0-23,9.47q-26.6,13.5-36.11,31.8h0a46.54,46.54,0,0,0-5.24,19.08q-.36,31.71,38.92,53.85,34.35,19.35,110.31,24.27,11,.39,21.06.4,60,0,85.29-14.07,30-15.93,35.44-50.07a143.76,143.76,0,0,0-11.12-83.28q-14.85-28.9-37.78-38.78a111,111,0,0,0-21.49-7q-5.13-1.76-54.26-7.92a39.69,39.69,0,0,1-14.85-5.39q-2.06-.22-5.27-9.79l-5.13-41.93a65.78,65.78,0,0,0-5.7-18q-7-16.62-32.14-25.88Q1858.85,1668.12,1833.6,1668.11Z"/><path d="M1246.29,1668.11q-25.24,0-40.56,5.86-25.17,9.26-32.14,25.88a66.47,66.47,0,0,0-5.7,18l-5.13,41.93q-3.21,9.56-5.27,9.79a39.69,39.69,0,0,1-14.85,5.39q-49.14,6.16-54.26,7.92a111.24,111.24,0,0,0-21.49,7q-22.92,9.87-37.78,38.78A143.84,143.84,0,0,0,1018,1912q5.41,34.15,35.45,50.07,25.32,14.07,85.29,14.07,10,0,21-.4,76-4.92,110.32-24.27,39.27-22.14,38.91-53.85a46.57,46.57,0,0,0-5.23-19.09c-1.3.06-2.57.09-3.82.09,1.25,0,2.51,0,3.8-.09q-9.49-18.3-36.09-31.79a159,159,0,0,0-23-9.48h0c.43,1.14.87,2.25,1.31,3.34h0c-.44-1.09-.88-2.21-1.31-3.35a162.74,162.74,0,0,0-50.32-7.73q-42.31,0-90.95,19.85l.63,0q6,0,50.78-4.11l18.54-.68,2.69,0a184.75,184.75,0,0,1,38.9,4.41q57.24,15.32,69,45,3.51,23-42.33,41-43.34,14.65-106.94,14.65l-4.29,0q-66.45-1.35-79.21-23.46-8.81-13.77-8.51-37.71-.32-23.69,10.19-47.81,12.13-22.29,25.33-26.6,5.6-3.08,22.8-6.49,51-6.26,51-7.39,15.62-3.72,23.62-11.13a45.29,45.29,0,0,0,12.94-22.64q2.42-6,4.37-44.37a45.86,45.86,0,0,1,2.62-11,30.87,30.87,0,0,1,19.29-16q22.7-7.29,51.4-7.29,8,0,16.49.57,11.43.58,22.67,1.87h0q4,.45,8,1,7.21.92,19.5,3.06-6.35-8.4-13-16.43-13.74-3.51-28-5.94h0l-2.85-.48A329.22,329.22,0,0,0,1246.29,1668.11Z"/><path d="M1272.12,1918.38a90.85,90.85,0,0,1-18.33,11.28q28.38,10.33,31.34,11.86h0c.34.17.44.26.28.26q21.49,9.66,29.2,16.46,13.13,9.21,17.16,29,2.9,14.8-5.81,32.48Q1313.28,2045,1247.4,2056q-45,8.13-100.28,10.82-9.94.3-18.52.3-32.76,0-45.53-4.42-20.29-6.3-27.46-30.09-9.22-30.67-.69-54.05a47.49,47.49,0,0,1,6.13-12.93c-.32-.12-.63-.25-.93-.38h0l.92.38a129,129,0,0,1,15.26-18.74q1.61-1.59,3.37-3.24a73.72,73.72,0,0,1-15.47-5.89h0a102.33,102.33,0,0,0-18.47,19.61l0,0h0a80.82,80.82,0,0,0-11,21.55q-11,30.83,2.08,69.82,11.27,29,38.28,38.17,17.14,6.95,54.13,6.94,22,0,51-2.45,89.46-8.34,124.66-23.18,33.12-13.45,43.88-36.6,13.52-26.6,4.12-57.28-8.58-28.12-45.91-44.46a53.7,53.7,0,0,0-7.39-3.21q-1.06,1.48-2.25,2.94h0c.78-1,1.53-2,2.24-2.93q-9.36-3.46-27.48-8.35Z"/><path d="M1807.76,1918.38q-18.12,4.89-27.49,8.34a53.7,53.7,0,0,0-7.39,3.21q-37.34,16.33-45.91,44.46-9.39,30.69,4.12,57.28,10.77,23.14,43.88,36.6,35.21,14.85,124.67,23.18,29,2.45,51,2.45,37,0,54.13-6.94,27-9.15,38.28-38.17,13.1-39,2.09-69.82a81.28,81.28,0,0,0-11-21.56h0a101.56,101.56,0,0,0-18.44-19.62h0a73.68,73.68,0,0,1-15.51,5.9q1.82,1.65,3.41,3.23a127.63,127.63,0,0,1,15.26,18.74h0l0,0a46.34,46.34,0,0,1,6.17,12.91q8.54,23.37-.69,54.05-7.15,23.79-27.46,30.09-12.78,4.42-45.52,4.42-8.58,0-18.52-.3-55.29-2.68-100.29-10.82-65.87-11-78.54-36.32-8.71-17.67-5.81-32.48,4-19.79,17.15-29,7.71-6.79,29.2-16.46c-.15,0-.07-.09.26-.26l-1.4-1.12h0c.46.38.92.75,1.4,1.12q3-1.53,31.31-11.86a91.11,91.11,0,0,1-18.3-11.28Z"/><path d="M1777.59,2040.33a135.79,135.79,0,0,0-13.06,17.23c-1,1.5-1.91,3-2.8,4.47q-27.72,45.79-5.33,80.74,25.53,35.08,101.88,50.81a256.39,256.39,0,0,0,44.49,4.36q37.35,0,58.38-15.29a81.54,81.54,0,0,0,27.88-34.8h0q-7.18,1.86-14.45,3.57h0q7.29-1.74,14.48-3.61a115.53,115.53,0,0,0,8.36-32.27h0c.19-1.42.36-2.85.49-4.29a147,147,0,0,0,.9-22.24h0a105.82,105.82,0,0,1-13.79,2.83h0a105.13,105.13,0,0,0,13.77-2.83q-.24-11.69-1.75-26.33h0l-.11,0a69.34,69.34,0,0,1-13.7,2.87c0,3.08,0,5.07-.12,6q-.09,10.24-1.14,20.68h0q-.73,7.47-2,15-1.83,9.13-3.93,16.34h0l-.06,0q-3.55,12.39-8,19.1a63.69,63.69,0,0,1-9.2,12.19h-.06a46.52,46.52,0,0,1-8.94,7.25q-15,10-42.43,10a228.78,228.78,0,0,1-40.33-4.13c-1.65.14-3.3.27-5,.39h0l5-.4q-4.58-.84-9.39-1.84-3-.66-5.85-1.33-1.64.64-3.27,1.32h0c1.08-.45,2.17-.9,3.25-1.33q-63.71-15-79.32-40.58-10.54-21.83,6.36-54.59h0q3.19-6.21,7.37-12.78,3.48-5.26,7.38-10.24a128.71,128.71,0,0,1-15.83-6.42Z"/><path d="M1302.31,2040.33a128.67,128.67,0,0,1-15.88,6.42q3.91,5,7.41,10.24,4.17,6.59,7.37,12.77h0q16.93,32.76,6.38,54.59-15.6,25.59-79.34,40.58h0q-2.87.67-5.85,1.33-4.8,1-9.41,1.84h0a228.88,228.88,0,0,1-40.34,4.12q-27.41,0-42.42-10a47.6,47.6,0,0,1-9-7.27h0a64.08,64.08,0,0,1-9.2-12.2q-4.43-6.72-8-19.12-2.1-7.21-3.92-16.35-1.26-7.56-2-15l-1.15-.15h0l1.14.15q-1-10.44-1.14-20.68-.17-1.38-.14-6a69.35,69.35,0,0,1-13.68-2.86l-.11,0h0q-1.52,14.64-1.8,26.32a145.63,145.63,0,0,0,.91,22.25c.13,1.44.28,2.87.45,4.28h0a115.53,115.53,0,0,0,8.33,32.27h0a81.6,81.6,0,0,0,27.88,34.82q21,15.29,58.38,15.29a256.5,256.5,0,0,0,44.5-4.36q76.34-15.73,101.88-50.81,22.38-34.93-5.33-80.75h0q-1.32-2.24-2.78-4.47A136.65,136.65,0,0,0,1302.31,2040.33Z"/><path d="M1245.69,2113a.83.83,0,0,0,.18.22l-.16-.22Z"/><path d="M1385.06,1780.35a200.93,200.93,0,0,0-26.93,1.82l1.77,3.79a144.52,144.52,0,0,1,5.53,14.18,194.34,194.34,0,0,1,19.63-1q3.95,0,7.69.14h0c46.49,1.75,71.66,19.06,71.66,29.85,0,11.37-28,30-79.35,30-6.07,0-11.82-.26-17.24-.74h0c-16-1.42-29.07-4.74-39-8.85h0l-2.79,1a96.2,96.2,0,0,1-23.9,5.64c9.05,7,21.45,12.26,35.34,15.89h0a191.76,191.76,0,0,0,47.63,5.88c46.66,0,98.18-16.66,98.18-48.82,0-32-51-48.64-97.43-48.82h-.75Z"/><path d="M1694.83,1780.35h-.75c-46.45.18-97.42,16.83-97.42,48.82,0,32.16,51.52,48.82,98.17,48.82a192,192,0,0,0,47.61-5.87q-4-1.23-7.74-2.61h0q3.77,1.38,7.75,2.6c13.89-3.64,26.28-8.94,35.32-15.88a96.39,96.39,0,0,1-23.89-5.65c-.94-.33-1.87-.66-2.78-1h0c-9.95,4.11-23,7.42-39,8.83h0c-5.45.47-11.17.73-17.23.73-51.38,0-79.34-18.62-79.34-30,0-10.79,25.17-28.1,71.63-29.85h0c2.5-.1,5.07-.15,7.69-.15a194.34,194.34,0,0,1,19.63,1A144.8,144.8,0,0,1,1720,1786c.58-1.26,1.16-2.52,1.75-3.78A198.83,198.83,0,0,0,1694.83,1780.35Z"/><path d="M1365.16,1518.88h0m5.32-.12Z"/><path d="M1631.78,1846.43l-1.52,20.07-.76,10-67.9,7a5.82,5.82,0,0,0,.59,11.6l.6,0,72.74-7.51a5.81,5.81,0,0,0,5.2-5.34l.88-11.63h0l1.46-19.21a87.26,87.26,0,0,1-11.27-4.89Z"/><path d="M1448.1,1846.43a87,87,0,0,1-11.29,4.89l1.47,19.21h0l.9,11.64a5.79,5.79,0,0,0,5.2,5.34l72.73,7.51.61,0a5.82,5.82,0,0,0,.59-11.6l-67.91-7-.75-10h0l-1.51-20.07Z"/><path d="M1282.32,1905.89q-5.05,11.28-23.53,21.22c24.47,8.1,50,15.87,78.44,22.18h0c8.89,2,18,3.79,27.55,5.43,51.29,8.88,112.41,12.52,172.47,16.12l.83,0a14,14,0,0,0,1.85-.13,14.41,14.41,0,0,0,1.86.13c.28,0,.55,0,.83,0,60.07-3.6,121.18-7.24,172.47-16.12,9.51-1.64,18.67-3.46,27.54-5.43l0,0,0,0h0l-.09.08c28.47-6.31,54-14.08,78.42-22.18a82.39,82.39,0,0,1-13.3-8.73q-7.3-6-10.2-12.48h0c-8,2.52-16,5-24.28,7.32h0a605.6,605.6,0,0,1-62.84,14.46c-49.48,8.55-108.93,12.13-169.44,15.76-.35,0-.7,0-1,.1s-.7-.08-1-.1c-60.5-3.63-120-7.21-169.43-15.76a604.36,604.36,0,0,1-62.86-14.47h0c-8.24-2.35-16.3-4.8-24.27-7.33Zm498,20.83h0l-1,.39h0l1-.39h0ZM1540,1943.55a13.72,13.72,0,1,1-11.83,14.41,13.73,13.73,0,0,1,11.83-14.41Z"/><path d="M1518.39,1903.88a14.51,14.51,0,0,0,2.2.17h.06l19.3-.08-21.54-.09Z"/><path d="M1561.49,1903.88,1540,1904l19.29.08h.06a14.51,14.51,0,0,0,2.2-.17Z"/><path d="M1440.44,1850a113.83,113.83,0,0,1-17,5.2,13.76,13.76,0,0,0,1.38,16.61l1.66,1.83h0l23,25.5a13.69,13.69,0,0,0,10.13,4.52l58.71.26a13.76,13.76,0,0,1-11-9.86l-63-6.51,63,6.5a13.88,13.88,0,0,1-.5-3.62,13.64,13.64,0,0,1,2.44-7.86l-58.92-6.08h0l58.92,6.08a13.71,13.71,0,0,1,11.23-5.92l19.41-.08-74.09-.32L1455,1864.13h0l-9.7-10.76a13.69,13.69,0,0,0-4.79-3.42Z"/><path class="cls-9" d="M1910.6,1758.6h0l113.22-17q60.25,33.21,80.84,52.67,22.28,18.95,47.77,62.55-6.54-32.08-11.94-48.32a129.37,129.37,0,0,0-16.94-35.39q-8.78-13.62-30.82-29.81a200,200,0,0,0-39.94-21q-9.9-4.27-38.92-12.94l-106.29,12.58,3,36.72"/><path d="M1893.56,1481.35q-31.38,126.78-49.67,162.45a140.82,140.82,0,0,1-13.68,24.34h0a143,143,0,0,1-16.45,19.51,184.55,184.55,0,0,1,35.63,3.26q12.86-2.79,20.4-2.79a22.42,22.42,0,0,1,6.51.78q7.2,0,15.61,7.17a34.88,34.88,0,0,1,5.67,7.77l9.85,22.89,2.19,4.09q5.75,8.37,10.77,9.56a40,40,0,0,0,13.76,2q18,0,49.11-9.73l-6-4.44a208.17,208.17,0,0,1-16.63-12.65l-48.23,5.7,48.21-5.7q-26-22.11-34.07-46.18-1.72-3.06-4.25-22.51c-.48-5.33-.75-10.8-.84-16.42q.4-43-.2-51.43.24-4.45-2.8-24.48Q1915,1530.46,1893.56,1481.35Z"/><path d="M1899,1163h0q.27-.46-3.7,17-1,3.9-2.11,7.64c-.77,2.49-1.61,4.93-2.52,7.3a112,112,0,0,1-4.53,10.31q14.27-11.43,36.19-33.19Z"/><path d="M1770.38,1282.75h0q-40.77,8.54-65.11,2.47-6.82,5.58-18.86,15.69l19.33,35.89q9.66-6.69,18.22-13.07,5-3.37,23.2-18.47A235.11,235.11,0,0,0,1770.38,1282.75Z"/><path class="cls-9" d="M1590.5,1457.08l37.09-16.15q65.9-73.83,76.4-97.81a75.11,75.11,0,0,0,4.72-11.69l1.32-5.24a44.43,44.43,0,0,0,.87-9.47q0-11.22-8.28-26.62l-65.5,55.54q5.42,26.46,5.5,40-.31,13.39-1.27,15.72a50.49,50.49,0,0,1-2.92,9.67q-6.5,19.07-47.93,46"/><path class="cls-9" d="M1365.67,1379.36l1.66,5.32q9.56,34.74,29.43,56.86,23.67,25.74,63,40.85,25.2,8.73,47.2,9.91,20.38,2.06,66.76-.76l-6.61-31q-43.61,1.65-70.7-3.18a107.66,107.66,0,0,1-41.61-16.25,103.44,103.44,0,0,1-14.61-12.23q-3.84-2.65-19.42-23.83-15.26-21.9-38.45-70.65l-16.62,45"/><path d="M1178.76,1172.63l-2,7.35a303.57,303.57,0,0,0-11.12,57.4q-2.75,50.26,2.25,71.83,6.72,38.8,14.12,58.83,19.29,47.25,31.77,63,98.65,129.57,251.25,123.58-34.46-44.41-47.71-79-10.45-34.41-5.38-75.59l-50.55-76q-8.31,81.61-3.08,99.27.38,21.43,28.11,75-81.06-30-110.45-74.43-79.42-120-57.83-208.94Z"/><path class="cls-9" d="M1901.13,1172.63l-5.48,5.88q-10.38,38.1-30.64,55.18,7.79,40.32-15.32,103.56-23.14,57-45.8,86.55-29.4,44.39-110.46,74.43,27.73-53.6,28.11-75,5.25-17.65-3.08-99.27l-50.54,76q3.87,58-5.38,75.59-13.26,34.64-47.71,79,134.2,5.36,226.41-94,30.16-32.53,39-53.17a263.34,263.34,0,0,0,28.3-80Q1925.56,1253.44,1901.13,1172.63Z"/><path class="cls-1" d="M1593.54,2019.13q-12.21.91-27.22,1.19l0-.65q-13.93.51-26.41.68-12.5-.18-26.42-.68l0,.65c-10-.19-19.08-.58-27.22-1.19q-26.91-1.74-81.71-11.57l35.08,59.47q54.24,8.83,74.13,9.72a216.61,216.61,0,0,0,26.1-.07,216.61,216.61,0,0,0,26.1.07q19.88-.89,74.13-9.72l35.08-59.47Q1620.45,2017.4,1593.54,2019.13Z"/><path class="cls-9" d="M1399.68,1343.14l9.91,7.1q34.67,24.66,49,33.17,23.88,14.1,28.35,15.71,20.38,9.45,32,11.65a107.16,107.16,0,0,0,29.45,2.54q37.48-2.71,68-26.79,16.15-12.72,34.73-35.73l-13.32-10.6q-56.68,26.5-70,32.24-17.19,7.77-20,7.12a10.16,10.16,0,0,1-3.88-.82q-8-4.85-32.78-13.38-11.22-4-61.06-19.37l-50.33-2.84"/><path d="M1819.45,1202.5l-6.9,5.45-6.89,5.46q2.63-1.82,7.35-5.53C1816.29,1205.26,1818.43,1203.46,1819.45,1202.5Z"/><path d="M1832.07,1260.23l-1,.58q-25.86,15.75-65.6,22.89a206.42,206.42,0,0,1,6.9,27.14,150.36,150.36,0,0,1,2.35,31.61q-.92,29.57-13,79.92,24.54-27.67,33.27-41.74a203.15,203.15,0,0,0,18.07-32.74q10.82-26.07,14.07-42.49,2.05-9.09,3.53-19.92Q1832.56,1263.09,1832.07,1260.23Z"/><path class="cls-9" d="M1498.87,1963.75l2.91.65q13.1,2.92,20.89,4c2.07.29,4.17.53,6.31.74,1.47.18,4.32.37,8.55.55q17.17.55,27.35-3.22a13.17,13.17,0,0,0,6-4.27,8.24,8.24,0,0,0,1.28-6.6,11.23,11.23,0,0,0-1.38-3.43l-1.14-1.63a16.43,16.43,0,0,0-3.15-2.93,21.58,21.58,0,0,0-8.37-3.46,56.61,56.61,0,0,0-13.87-.78q-5.93.15-21.49,2.19l-23.93,18.22"/><path class="cls-8" d="M1672.38,1345.13q-51,7.18-98.69-20-43.56-24.51-72.28-79,33,24.35,70.17,27.09,37.65,2.79,65.91-17.24,22.69,39.49,75,51.81Z"/><path d="M1680.27,1225.37c-11.81.47-24,.77-36.34,1a45,45,0,0,0-8.79,17.61c7.49-.12,15-.25,22.53-.43,3.89-7.11,11.59-13.91,22.62-18.19Z"/><path d="M1876,1096.51a48.86,48.86,0,0,0-16.76,3,54.3,54.3,0,0,0-15,8.37c-.79.62-1.58,1.27-2.35,1.94,0,4.37,0,8.66-.2,12.84a65,65,0,0,1,8.11-7.67,46.47,46.47,0,0,1,9.59-5.82h0a40.67,40.67,0,0,1,16.6-3.62,37.35,37.35,0,0,1,8.29.92,35.89,35.89,0,0,1,7.05,2.38l.78.36h0c6.47,3.14,12.11,8.2,17.5,14.37q.1-6.42,0-12.92a55,55,0,0,0-14.56-10c-1-.47-2.09-.91-3.16-1.3h0a43.38,43.38,0,0,0-5.63-1.67A46.5,46.5,0,0,0,1876,1096.51Z"/><path class="cls-1" d="M1482.38,1875.63v0h0v.09h0l0-.14h0v0h-.06Zm0-.05Z"/><path class="cls-1" d="M1057.88,1341.1h0a309.45,309.45,0,0,0-23.1,40.79h0q-4.08,7.1-21.18,48.31l48.12-94.51C1060.42,1337.47,1059.13,1339.25,1057.88,1341.1Z"/><path class="cls-1" d="M1750.39,2131.65h0a65.76,65.76,0,0,0,5.81,11.26h0q25.6,35.14,102,50.9h0a256.91,256.91,0,0,0,44.53,4.36q37.43,0,58.53-15.33h0a81.84,81.84,0,0,0,27.93-34.82h0a562.1,562.1,0,0,0,89.73-31.55h0q90.06-39.53,160.16-127h0a309.47,309.47,0,0,0,32.29-52.42,386.08,386.08,0,0,0,26.78-73.64v-.12a705.73,705.73,0,0,0-22.55-75.15h0a.13.13,0,0,0,0-.06h0q-3.36-9.36-7-18.63h0q-20.6-48.11-44.77-82.7h0q-9.6-16-81.35-106.41h0a420.36,420.36,0,0,1-24.41-36.85A465,465,0,0,1,2093,1494.1q-13.89-34.39-23.81-58.42h0s-67.77-153-136.79-162.58h0q-6.54-1.87-13.15-3.47c15.18-190.6-41.24-230.08-41.24-230.08-.06-2.75-.14-39.25-.24-42,0-.94-.09-1.87-.13-2.81-.07-1.77-.14-3.54-.23-5.29-.06-1.12-.14-2.23-.2-3.34-.09-1.56-.18-3.13-.29-4.68-.07-1.18-.17-2.35-.26-3.52-.11-1.47-.21-3-.33-4.42-.1-1.2-.22-2.4-.32-3.6-.13-1.41-.26-2.83-.4-4.24-.12-1.22-.25-2.43-.38-3.64-.14-1.38-.29-2.76-.44-4.13-.14-1.21-.29-2.42-.44-3.63s-.33-2.7-.5-4-.33-2.42-.49-3.63-.37-2.65-.56-4-.36-2.41-.54-3.61-.4-2.61-.61-3.91l-.6-3.58c-.22-1.28-.43-2.57-.66-3.84s-.43-2.38-.65-3.57-.47-2.52-.72-3.78-.46-2.35-.69-3.52-.51-2.51-.77-3.75-.49-2.32-.74-3.48-.55-2.48-.83-3.71l-.78-3.42c-.29-1.23-.59-2.46-.88-3.69s-.55-2.25-.83-3.37-.62-2.44-.94-3.66-.57-2.21-.86-3.31l-1-3.64c-.3-1.09-.6-2.17-.91-3.25s-.69-2.42-1-3.63c-.3-1.06-.61-2.12-.93-3.17-.36-1.22-.74-2.44-1.11-3.65l-1-3.08c-.39-1.23-.79-2.45-1.19-3.67-.32-1-.64-2-1-3-.41-1.25-.84-2.49-1.26-3.73-.33-.94-.65-1.89-1-2.83-.45-1.3-.91-2.57-1.38-3.86-.31-.87-.62-1.75-.94-2.62-.51-1.38-1-2.74-1.54-4.1-.29-.77-.57-1.54-.87-2.31q-.9-2.34-1.83-4.67l-.65-1.65q-2.55-6.35-5.24-12.53l-.26-.56c-.81-1.86-1.63-3.7-2.46-5.54l-.7-1.5q-1-2.28-2.09-4.53l-.87-1.8c-.66-1.39-1.32-2.78-2-4.16-.31-.64-.63-1.28-1-1.92-.66-1.33-1.31-2.65-2-4l-1-2-2-3.84c-.35-.66-.71-1.32-1.06-2-.67-1.25-1.33-2.5-2-3.75l-1.08-2c-.68-1.24-1.36-2.47-2.05-3.7l-.35-.64c-.13-.24-.27-.47-.41-.7q-2.28-4-4.63-8a.08.08,0,0,0,0,0c-1.57-2.65-3.17-5.27-4.77-7.87-.27-.42-.53-.85-.8-1.28q-2.37-3.81-4.8-7.55l-.49-.75q-2.34-3.59-4.72-7.09l-.57-.84q-2.48-3.63-5-7.18c-.29-.42-.59-.83-.89-1.24q-5.12-7.2-10.41-14.07c-.3-.39-.6-.79-.9-1.17q-2.58-3.35-5.2-6.61c-.27-.35-.55-.69-.83-1q-2.54-3.17-5.1-6.24l-.41-.51q-2.68-3.21-5.39-6.35l-1.05-1.21q-2.7-3.12-5.42-6.17l-.52-.56q-2.6-2.89-5.21-5.72c-.29-.31-.57-.63-.86-.93q-2.73-2.94-5.48-5.81l-1-1.05q-5.64-5.87-11.36-11.45l-1-1q-2.81-2.75-5.63-5.41l-.23-.21-1-.94-2.76-2.58-1.43-1.32L1717,656l-1.5-1.35-2.58-2.32-1.56-1.38-2.53-2.23-1.58-1.37-2.52-2.18-1.58-1.34c-.84-.73-1.69-1.44-2.54-2.15l-1.54-1.3-2.59-2.15L1695,637q-1.35-1.11-2.7-2.19l-1.36-1.11-2.93-2.34-1.13-.9c-1.25-1-2.49-2-3.73-2.92l-.31-.24q-2.05-1.61-4.1-3.16l-.45-.34c-1.18-.9-2.37-1.8-3.55-2.68l-1.26-.94-2.72-2-1.49-1.08-2.49-1.82-1.58-1.14-2.36-1.69-1.65-1.17-2.27-1.6-1.68-1.17L1655,606.9l-1.7-1.17-2.19-1.49-1.67-1.13-2.19-1.47-1.64-1.09-2.17-1.43-1.64-1.07-2.18-1.41-1.57-1-2.26-1.45-1.46-.92-2.47-1.55-1.21-.76-3.6-2.22-.78-.47-2.82-1.72-1.36-.81-2.17-1.3-1.54-.91-2-1.14-1.6-.93-1.85-1.07-1.58-.91-1.83-1-1.55-.88-1.78-1-1.55-.86-1.73-1-1.54-.85-1.69-.92-1.51-.82-1.66-.89-1.47-.79-1.65-.87-1.42-.75-1.63-.85-1.38-.71-1.66-.86-1.27-.65-2-1-.9-.46-2.74-1.37-1.13-.55-1.6-.79-1.23-.6-1.39-.68-1.25-.59-1.33-.64-1.21-.57-1.27-.61-1.18-.55-1.22-.57-1.16-.53-1.15-.53-1.13-.52-1.11-.5-1.07-.48-1.08-.48-1-.46-1-.45-1-.43-1-.42-.93-.41-1-.44-.79-.33-1.15-.49-.56-.24-1.6-.67-.65-.27-.85-.35-.69-.28-.75-.3-.6-.25-.7-.27-.58-.24-.61-.24L1545,547l-.56-.22-.45-.18-.56-.21-.35-.14-.48-.18-.35-.13-.41-.16-.29-.11-.29-.1-.28-.11-.25-.09-.18-.07-.23-.08-.08,0-.18-.06h0l-.07,0-.06,0h0l-.18.06-.08,0-.23.08-.21.08-.21.08-.3.11-.28.1-.31.12-.38.14-.37.14-.47.18-.36.14-.55.21-.45.18-.57.22-.53.21-.6.24-.61.24-.64.26-.66.26-.68.28-.75.31-.69.28-.81.34-1.59.66-.72.31-1,.41-.91.39-.89.38-1,.44-.9.39-1,.46-1,.42-1.09.49-1,.45-1.14.51-1,.47-1.2.54-1.07.5-1.24.57-1.12.52-1.28.6-1.16.55-1.31.62-1.23.59-1.34.64-1.26.61-1.37.67-1.3.64-1.44.71-1,.51-3.11,1.56-1.42.72-1.49.76-1.44.74-1.53.8-1.47.76-1.56.83-1.5.79-1.6.86-1.53.82-1.63.88-1.56.86-1.65.9-1.62.89-1.66.93-1.64.92-1.7,1-1.66.95-1.74,1-1.66,1-1.78,1-1.7,1c-.59.35-1.19.69-1.78,1.05l-1.81,1.08-1.73,1-2,1.19-3,1.82-2.18,1.34-1.74,1.1-1.93,1.2-1.75,1.11-2,1.27-1.77,1.14-2,1.27-1.82,1.2c-.66.43-1.32.86-2,1.3s-1.23.81-1.84,1.22l-2,1.32-1.87,1.26-2,1.35-1.89,1.3-2,1.38-1.9,1.33-2,1.42-1.89,1.34-2.1,1.5-1.82,1.32-2.2,1.6-1.77,1.3-2.31,1.72-1.68,1.24-2.74,2.08-1.25.94q-2,1.51-4,3.08l-1.14.88-2.89,2.27-1.57,1.25-2.48,2c-.57.45-1.13.91-1.69,1.37l-2.37,1.92-1.74,1.44-2.33,1.93c-.59.5-1.19,1-1.77,1.49-.77.65-1.54,1.29-2.3,2l-1.81,1.54-2.28,2-1.8,1.57-2.3,2-1.77,1.58q-1.17,1-2.34,2.1l-1.73,1.56-2.39,2.19-1.68,1.55-2.48,2.31-1.21,1.14-.27.26q-2.77,2.63-5.53,5.31l-1.12,1.09c-1.89,1.85-3.77,3.71-5.65,5.6l-.06.06c-1.86,1.87-3.7,3.77-5.55,5.68l-1.08,1.13c-1.82,1.9-3.63,3.81-5.43,5.75l-.92,1c-1.72,1.86-3.43,3.73-5.13,5.63l-.58.63q-2.7,3-5.39,6.13l-1.08,1.25c-1.79,2.09-3.58,4.19-5.36,6.32l-.46.56q-2.54,3-5,6.17c-.28.36-.57.71-.86,1.07q-2.6,3.25-5.16,6.57l-.95,1.23q-2.61,3.39-5.17,6.85l-.06.07q-2.58,3.49-5.12,7.07l-1,1.33q-2.49,3.51-4.93,7.09l-.67,1q-2.31,3.41-4.57,6.87l-.6.92q-2.38,3.67-4.72,7.42c-.31.49-.61,1-.91,1.47q-2.35,3.79-4.66,7.68c-.08.13-.16.26-.23.39-1.48,2.5-2.93,5-4.37,7.56-.17.3-.35.59-.51.89l-.45.8-1.77,3.19c-.44.82-.89,1.63-1.34,2.45-.59,1.08-1.17,2.18-1.75,3.27-.43.81-.87,1.62-1.29,2.44-.59,1.12-1.17,2.25-1.75,3.38-.42.8-.83,1.6-1.24,2.41-.59,1.16-1.17,2.33-1.75,3.5l-1.17,2.36c-.6,1.23-1.19,2.47-1.79,3.71-.35.75-.71,1.48-1.06,2.23-.64,1.34-1.26,2.7-1.88,4.06-.3.65-.61,1.3-.91,2-.73,1.62-1.46,3.26-2.18,4.9-.18.4-.36.79-.53,1.19q-1.35,3.1-2.67,6.24v0q-1.29,3.09-2.55,6.21c-.25.63-.49,1.26-.74,1.88-.58,1.48-1.17,3-1.74,4.46-.3.78-.59,1.57-.89,2.35-.51,1.35-1,2.7-1.52,4.05-.32.87-.63,1.75-.94,2.62-.47,1.29-.93,2.58-1.39,3.87-.32.93-.63,1.86-1,2.78-.43,1.26-.87,2.52-1.29,3.79-.32,1-.63,1.94-1,2.91-.41,1.25-.81,2.49-1.21,3.74l-.93,3c-.38,1.24-.77,2.48-1.14,3.73-.31,1-.6,2.05-.9,3.07-.37,1.25-.73,2.5-1.09,3.75l-.87,3.13c-.34,1.25-.69,2.5-1,3.76l-.84,3.2c-.32,1.26-.65,2.51-1,3.78-.27,1.08-.54,2.18-.81,3.27l-.9,3.78c-.26,1.11-.51,2.22-.76,3.33-.29,1.27-.57,2.54-.85,3.82l-.72,3.36c-.27,1.29-.53,2.58-.79,3.87-.23,1.13-.46,2.27-.68,3.4-.25,1.3-.49,2.6-.73,3.91q-.33,1.72-.63,3.45c-.24,1.32-.46,2.63-.68,4-.2,1.16-.4,2.32-.58,3.49-.22,1.33-.43,2.66-.63,4-.18,1.17-.36,2.34-.53,3.51-.2,1.35-.38,2.71-.57,4.07-.16,1.18-.32,2.35-.48,3.54-.18,1.37-.34,2.75-.51,4.13-.15,1.18-.29,2.36-.43,3.55-.16,1.4-.3,2.81-.45,4.21-.13,1.19-.26,2.37-.38,3.56-.14,1.44-.26,2.89-.39,4.34-.11,1.17-.22,2.33-.32,3.51-.12,1.49-.23,3-.34,4.5-.09,1.15-.18,2.29-.26,3.44-.1,1.59-.19,3.19-.29,4.79-.06,1.08-.13,2.15-.19,3.22-.09,1.81-.17,3.63-.24,5.45,0,.89-.09,1.77-.12,2.66-.1,2.72-.18,39.23-.24,42,0,0-56.43,39.49-41.24,230.09-4.4,1.07-8.79,2.21-13.13,3.46h0q-50.82,14.94-84.47,59.77l-1.44,2.83c.42-.58.82-1.18,1.24-1.74h0l-51.64,101.76h0l2.28-5.52-2.77,5.45h0q-9.93,24-23.81,58.43h0a466,466,0,0,1-25.1,49.37h0a420.36,420.36,0,0,1-24.41,36.85h0q-71.75,90.43-81.35,106.4h0q-24.18,34.58-44.77,82.69h0q-3.65,9.25-7,18.59a710.81,710.81,0,0,0-22.6,75.2v.11A387.18,387.18,0,0,0,808.53,1937a309.71,309.71,0,0,0,32.29,52.42h0q70.09,87.49,160.16,127h0a561.64,561.64,0,0,0,89.72,31.55h0a81.88,81.88,0,0,0,27.92,34.82h0q21.11,15.33,58.53,15.33a257,257,0,0,0,44.54-4.36h0q76.44-15.75,102-50.9h0a66.42,66.42,0,0,0,5.8-11.26h420.86Zm24-723.5q8.56-10.15,14.27-17.85a433.9,433.9,0,0,1-43,83.81Q1733,1481.37,1718,1488,1757.45,1446.42,1774.4,1408.15ZM1090.67,2148h0Zm0-.06,0-.06,0,.05Zm.1.16h0Zm.07,0h0Zm0,0h0v0l0,0Zm0,0h0Zm.08,0h-.1l.09,0h0v0Zm30.37,7h0l0,0,.15-.06Zm186-30.82h0q-15.57,25.48-79.19,40.44h0c-1.92.45-3.87.89-5.83,1.32h0c-3.21.66-6.34,1.27-9.41,1.83v.24l0-.23h0a228.9,228.9,0,0,1-40.26,4.11q-27.35,0-42.29-10h0a47.84,47.84,0,0,1-8.95-7.24h0a63.55,63.55,0,0,1-9.16-12.15h0q-4.39-6.69-8-19.06-2.1-7.2-3.92-16.32h0q-1.23-7.4-2-14.71h0a262.14,262.14,0,0,0,30.94,1.59q22,0,51-2.45h0q84.68-7.89,120.77-21.61h0Q1317.84,2102.6,1307.38,2124.26Zm-60-68.47h0q-45,8.13-100.25,10.82h0q-9.94.3-18.5.3-32.7,0-45.44-4.41h0l-.1,0h0q-20.08-6.3-27.19-29.9-9.19-30.6-.7-53.9v0a46.87,46.87,0,0,1,6-12.68h0q26,10.4,77.57,10.4,10.05,0,21.06-.4h0q76-4.92,110.42-24.29h0a120,120,0,0,0,14.93-9.86h0l.12.06h0a.21.21,0,0,1,0-.13h0l0,0h0a.16.16,0,0,1,0-.08.08.08,0,0,1,0,0h0l.1.06h0l-.08.33q21.47,9.64,29.14,16.42l0,0q13,9.15,17,28.84,2.89,14.71-5.79,32.32Q1313.13,2044.79,1247.38,2055.79ZM1043,1888.4h0q-.32-23.61,10.16-47.68h0q12.09-22.2,25.2-26.49h0q5.57-3.06,22.72-6.47h0q49.59-6.09,51-7.37h0l0,0q15.58-3.75,23.62-11.17h0a45.51,45.51,0,0,0,13-22.73h0q2.43-6.08,4.39-44.42h0a45.34,45.34,0,0,1,2.59-10.91h0a30.68,30.68,0,0,1,19.15-15.94h0q22.65-7.28,51.32-7.28,8,0,16.48.57h0q11.37.58,22.55,1.86h0q7.53,10.82,15.79,23.92a664.43,664.43,0,0,1,36.88,68h0q.9,1.89,1.77,3.78,10.63,23.88,7.88,34.16h0q-6.43,17.82-41.64,30.13h0q-16.35,5.85-28.82,5.85-12.22,0-20.73-5.62h0q-10.17-6.88-19-29.52-4.62-12.13-7.87-23.73l-15.93-59.41h0l-3.53-11-.34-.15-.84.42-.13.21q-.8,40.21,10.42,92.58h0a161.8,161.8,0,0,0,5.15,16.88h0a163,163,0,0,0-49.92-7.59q-42.36,0-91,19.86l.07.47.66,0q6,0,50.79-4.11h0l18.54-.69h0c.89,0,1.79,0,2.69,0a184.2,184.2,0,0,1,38.84,4.41h0q57.11,15.29,68.88,44.81h0q3.42,22.73-42.19,40.66h0q-43.29,14.63-106.85,14.63l-4.28,0h0q-31.38-.63-50.77-5.91h0a73.94,73.94,0,0,1-15.31-5.84h0q-9-4.83-12.9-11.59h0Q1042.67,1912.27,1043,1888.4Zm2.7,69.1,0,0v-.13h0Zm246-285.73v-.12l.19-.08v.22h0l-.18,0Zm13.74,18.39h0l-.27-.06,0,0,.27,0h0Zm87.64,109.42h0c46.32,1.82,71.08,19.09,71.08,29.59,0,11.1-27.66,29.75-79.1,29.75-5.8,0-11.31-.24-16.51-.68h0a90.09,90.09,0,0,0,10.38-7.88h0q16.47-15.09,16.24-35.38A62.28,62.28,0,0,0,1393.1,1799.58Zm33.43,74.24h0v0h0l-.06,0h0l-.09,0,.09,0h0l-.09,0h0l.08,0-.1-.1.11,0h0v.11l.12-.06v.13l0,0h0Zm.06,0v0h0Zm-41.5,4.42a196.1,196.1,0,0,0,41.35-4.37h0l23,25.39a14,14,0,0,0,10.3,4.61l8,0h0a14.11,14.11,0,0,0,2.62.25h0l5.64,0h1.66a.18.18,0,0,0,.1.06h0a2.46,2.46,0,0,0,.83.09,17.89,17.89,0,0,0,2-.15h2.48v0h0a16.94,16.94,0,0,0,2.64.26,2.26,2.26,0,0,0,.66-.06h0a.33.33,0,0,0,.2-.2c2.83,0,5.85,0,8.92,0h0V1904h.06l0,.06h.07c6.27.11,12.46.15,18.69.15h4.84c.46,0,.91.07,1.39.07h.06l19.3-.09,19.28.09h.06a12.08,12.08,0,0,0,1.35-.07h4.88c6.18,0,12.28,0,18.49-.15V1904h.1l0,.06h.07l8.83,0h.26a.33.33,0,0,0,.2.21h0a2.3,2.3,0,0,0,.66.06,16.62,16.62,0,0,0,2.62-.26h2.46a19,19,0,0,0,2.07.15,2.42,2.42,0,0,0,.83-.09h0l.1-.07h7.41a14.73,14.73,0,0,0,2.51-.24h0l8,0h0a14,14,0,0,0,10.31-4.61l22.92-25.39h0a196.22,196.22,0,0,0,41.37,4.37,192.48,192.48,0,0,0,47.61-5.87h0a185.43,185.43,0,0,0,22.78,5.35h0q5.46.78,10.5,1h0a46.67,46.67,0,0,0-5.1,18.84h0a47.44,47.44,0,0,0,2.36,15.47h0a606.68,606.68,0,0,1-62.59,14.38c-49.46,8.55-108.9,12.13-169.41,15.76-.34,0-.69,0-1,.1s-.69-.08-1-.1c-60.51-3.63-120-7.21-169.41-15.76a600.79,600.79,0,0,1-62.58-14.4h0a47.37,47.37,0,0,0,2.35-15.46h0a46.75,46.75,0,0,0-5.07-18.83c3.34-.16,6.83-.51,10.45-1h0a185.43,185.43,0,0,0,22.78-5.35h0A192.7,192.7,0,0,0,1385.09,1878.24Zm93,25.77h0l-.06.07h0l0-.09h.1Zm4.57,0v0Zm.5-28.21v0h0v0Zm12.35,0Zm101.34,28.35Zm.72-28.34v0h0Zm0,.21v0l.19-.1v.13h-.19Zm0-.23h0Zm.71.2Zm3.62,28,.07,0h0l0,.1A.21.21,0,0,1,1601.91,1904Zm7.71-.11h.2v0Zm.05.24h0Zm29.8-54.46a79.65,79.65,0,0,1-7.53-3.47h0c-10.73-5.67-16.17-12.13-16.17-17,0-10.5,24.76-27.78,71.07-29.59h0a61.35,61.35,0,0,0-2.1,15.4q-.24,20.3,16.24,35.38h0a91.27,91.27,0,0,0,10.4,7.89h0c-5.23.43-10.73.67-16.52.67a173,173,0,0,1-38.28-4h0m-3,18.82h0Zm121.09-183.43q11.19-1.29,22.56-1.87h0q8.47-.57,16.48-.57,28.66,0,51.32,7.28h0a30.65,30.65,0,0,1,19.14,15.93h0a45.55,45.55,0,0,1,2.6,10.9h0q1.95,38.34,4.38,44.42h0a45.52,45.52,0,0,0,13,22.73h0q8,7.42,23.64,11.17h0l0,0h0q1.45,1.29,51.06,7.37h0q17.16,3.39,22.72,6.46h0q13.11,4.29,25.2,26.49h0q10.47,24.06,10.16,47.68h0q.3,23.86-8.47,37.58h0q-12.69,22-79,23.34h0l-4.28,0q-63.56,0-106.85-14.64h0q-6.57-2.6-12.13-5.28h0a90.52,90.52,0,0,1-18.24-11.25h0q-13.71-11.33-11.78-24.16h0q11.76-29.54,68.88-44.82h0a184.29,184.29,0,0,1,38.85-4.41l2.68,0h0l18.53.67h0q44.84,4.1,50.8,4.1l.65,0,.07-.47q-48.67-19.86-91-19.86a163.31,163.31,0,0,0-50,7.59h0a156,156,0,0,0,5.19-16.88h0q11.22-52.37,10.43-92.57l-.13-.22-.85-.42-.34.15-3.52,11h0l-15.93,59.41q-3.24,11.6-7.87,23.73-8.86,22.64-19,29.51h0q-8.5,5.61-20.73,5.61-12.46,0-28.81-5.85h0q-35.22-12.31-41.64-30.13h0q-2.76-10.28,7.88-34.16a663.94,663.94,0,0,1,38.64-71.82Q1767.15,1701.15,1774.66,1690.33Zm-.22-.11,0-.07h0v.17l-.06-.1Zm142.69,67.41Zm-136.82,169.09h0Zm-7.07-13.62v.16h0l-.08,0h0l0,0,.05-.08Zm-231,56.87h0a12.48,12.48,0,0,1-2.29.52,12.27,12.27,0,0,1-2.27-.52l2.17,0h0v-.09l.09.09h0Zm-212.69,161.52h0l0,0h0l0,0Zm431.82-69.37q-13.31,22.07-15,41.63h0L1540,2105.21h-.28l-206.16-1.46h0q-1.69-19.58-15-41.63h0q22.08-12.2,30.52-30.34h0q13.56-26.67,4.14-57.46h0a58.53,58.53,0,0,0-15.14-24.6h0c8.64,1.89,17.5,3.64,26.71,5.23,51.15,8.85,112.07,12.5,172,16.09h0l.55,0h0l.84,0a14,14,0,0,0,1.84-.12h0a14.37,14.37,0,0,0,1.85.12c.28,0,.57,0,.85,0h0l.55,0,.54,0h0c59.71-3.58,120.41-7.23,171.41-16.06q13.8-2.39,26.73-5.25h0a58.37,58.37,0,0,0-15.14,24.6h0q-9.43,30.78,4.13,57.46h0q8.44,18.15,30.53,30.34Zm87,104.15h0Zm110.19-11.52Zm21-47.49h0q-1.82,9.09-3.9,16.26h0l-.08.08h0q-3.53,12.34-7.93,19h0a62.75,62.75,0,0,1-9.16,12.14h0l0,0a46.88,46.88,0,0,1-8.9,7.22h0q-15,10-42.29,10a228.28,228.28,0,0,1-40.29-4.13h0q-4.56-.84-9.36-1.84h0q-3-.66-5.85-1.34h0q-63.59-15-79.15-40.45h0q-10.45-21.66,6.26-54.19h0q36.09,13.72,120.8,21.62h0q29,2.45,51,2.45a261.84,261.84,0,0,0,30.91-1.59h0Q1980.86,2099.86,1979.64,2107.26Zm2.21-14.75h0Zm14.92-30q-12.74,4.41-45.45,4.41-8.57,0-18.5-.3h0q-55.26-2.68-100.25-10.82h0q-65.76-11-78.37-36.19-8.67-17.6-5.79-32.32,4-19.69,17.06-28.84l0,0q7.68-6.76,29.14-16.42l-.07-.33h0l0,0h0l.06,0h0a.62.62,0,0,1,0,.1h0l.08-.06h0a120,120,0,0,0,14.93,9.87h0q34.4,19.36,110.42,24.29h0q11,.4,21.06.4,51.52,0,77.52-10.38h0a46.06,46.06,0,0,1,6,12.66v0q8.51,23.3-.69,53.9-7.14,23.67-27.3,29.93Zm257.13-193.77q-19.07,48.72-57.13,100.2-52.59,70.44-132.52,114.87h0a570.53,570.53,0,0,1-66.57,31.37h0c.17-1.28.32-2.57.44-3.87h0a147.88,147.88,0,0,0,.91-22.11h0a61.92,61.92,0,0,0,5.88-2h0q27.12-9.19,38.42-38.32h0q13.13-39.07,2.09-70h0a81.26,81.26,0,0,0-10.85-21.42h0q23-15.95,27.65-45.44h0A144.1,144.1,0,0,0,2051,1828.6h0q-14.88-29-37.89-38.88h0a110.53,110.53,0,0,0-21.51-7.07h0q-5.16-1.77-54.3-7.94h0a39.73,39.73,0,0,1-14.76-5.36l-.1,0q-1.9-.21-5.06-9.58h0l-.23-1.88,106.61-16h0q60.16,33.17,80.71,52.59h0q22.26,18.91,47.73,62.48l.44-.18q-6.54-32.09-11.94-48.33a129.88,129.88,0,0,0-17-35.46h0q-8.79-13.65-30.89-29.87h0a199.77,199.77,0,0,0-40-21.07h0q-9.9-4.27-38.95-13h-.09l-53.14,6.28q-25.92-22-33.91-46l0,0q-1.71-3-4.23-22.41h0q-.71-8-.83-16.39h0v0h0q.4-42.88-.2-51.41h0q.26-4.48-2.79-24.52-3.45-24.16-24.93-73.3l-.46,0Q1862,1608,1843.7,1643.69h0a141.47,141.47,0,0,1-13.58,24.2h0a339.71,339.71,0,0,0-39.23,3.16h0l-2.89.48q-14.34,2.45-28.09,6l-.13.08h0q-6.6,8-12.94,16.42l0,0h0a530.77,530.77,0,0,0-46.38,73.46h0q-3.63,6.54-6.42,12.58h0c-46.35.21-97.51,16.84-97.51,49.06,0,15.17,11.36,26.88,28.15,35h0L1614,1876l-14.39.06-.5-.13c4.37-.39,2.5-.88-1.18-.15h-.28l.06-.17h0l0,.16h0v0h0l0-.17,0,.08,0-.08h-.06l0,.17h0l-.2,0h-.23c-3.23-.56-5.21-.28-3.29,0h-9.12c.1,0-.19,0-.19,0h0c-7,0-13.59,0-20.59,0h-4.65l-19.26,0v.26h-.13v-.25h-.43v.25h-.1v-.25c-7.51,0-14.09,0-21.6,0H1495l-4.46,0h0l-5.38,0h-2.54l-.09-.1,0,.1h0l0-.12,0,0v-.06h0l0,0v0h0v0h0l0,.13h0l0-.1-.14.1h-.1l-.22,0-.23,0h-.1c-.39.08-.82.18-1.23.29L1466,1876l-10.61-11.76h0c16.78-8.16,28.15-19.87,28.15-35,0-32.22-51.17-48.85-97.52-49.06h0q-2.79-6.06-6.41-12.59a533.07,533.07,0,0,0-46.42-73.51h0q-6.35-8.41-13-16.45l-.13-.08q-13.74-3.51-28.07-5.94h-.06c-.94-.17-1.87-.33-2.81-.48h0a340.09,340.09,0,0,0-39.23-3.18h0a140.75,140.75,0,0,1-13.57-24.2h0q-18.29-35.64-49.66-162.4l-.46,0q-21.47,49.14-24.93,73.3-3,20-2.79,24.52h0q-.6,8.54-.21,51.43-.12,8.4-.83,16.39h0q-2.52,19.39-4.22,22.41l0,0q-8,24-33.94,46l-53.11-6.29h-.1q-29,8.67-39,13h0a200,200,0,0,0-40,21.07h0Q965,1759.32,956.16,1773h0a129.67,129.67,0,0,0-17,35.45h0q-5.4,16.24-11.94,48.34l.45.17q25.47-43.56,47.72-62.48h0q20.55-19.43,80.71-52.6h0l106.63,16-.23,1.89h0q-3.15,9.38-5,9.58l-.1,0a39.54,39.54,0,0,1-14.77,5.35h0q-49.14,6.15-54.28,7.92h0a110,110,0,0,0-21.5,7h0q-23,9.9-37.9,38.87h0a144,144,0,0,0-11.14,83.43h0q4.68,29.51,27.67,45.45h0a81,81,0,0,0-10.89,21.41h0q-11,30.9,2.09,70h0q11.31,29.13,38.43,38.31h0a60.85,60.85,0,0,0,5.87,2h0a146.41,146.41,0,0,0,.91,22.1h0c.12,1.3.25,2.59.4,3.86a573.43,573.43,0,0,1-66.55-31.37h0q-79.92-44.43-132.52-114.87h0q-38.07-51.5-57.14-100.22h0a741.78,741.78,0,0,1,41.53-108h0q16.46-31.65,29.87-50.38h0L977,1606.69h0a462,462,0,0,0,27.35-41.87h0q7.55-11.49,23.84-50.47v0q45.16-128.37,48-130.25h0a.15.15,0,0,1-.14-.07h.46q9.81-24.23,30.15-49.3h0q16-20.48,56.69-37.76,1.13,10.43,2.52,21.4s2,14.81,12.15,37.9q1.9,6.59,3.86,11.89h0q19.31,47.28,31.8,63,94.36,123.94,238.06,123.94,6.64,0,13.39-.26l.18-.39q-34.41-44.39-47.67-79h0a158.06,158.06,0,0,1-4.4-18.49h0q19.58,15.29,46.45,25.62h0q25.23,8.75,47.26,9.93h0q8.6.85,21.8.86c3.48,0,7.19,0,11.15-.13h0v0h.06q6,.13,11.23.13,13.2,0,21.8-.86h0q22-1.18,47.27-9.93h0q27.29-10.48,47-26.09l.13,0q-1.62,12.32-5.08,18.92v0q-13.24,34.61-47.68,79l.18.39q6.87.27,13.62.27,125.41,0,213-94.38h0q30.18-32.55,39.06-53.22h0A270.64,270.64,0,0,0,1902,1356c10.06-23,12.06-37.67,12.06-37.67q1.4-11,2.52-21.41,40.68,17.29,56.7,37.77h0q20.33,25.08,30.15,49.3l.44,0h0a.17.17,0,0,1-.12,0h0q2.89,1.93,48,130.25v0q16.29,39,23.83,50.47h0a462,462,0,0,0,27.34,41.87h0l79.54,103.67q13.42,18.72,29.88,50.37h0a742.34,742.34,0,0,1,41.53,108Z"/><polygon class="cls-1" points="1599.28 1904.13 1599.28 1904.13 1599.28 1904.13 1599.28 1904.13"/><polygon class="cls-1" points="1597.74 1875.76 1597.73 1875.77 1597.74 1875.77 1597.74 1875.77 1597.74 1875.76"/><polygon class="cls-1" points="1486.12 1875.65 1486.01 1875.29 1486.06 1875.66 1486.12 1875.65"/><polygon class="cls-1" points="1486.13 1875.65 1486.13 1875.65 1486.13 1875.65 1486.13 1875.65"/><polygon class="cls-1" points="1486.06 1875.17 1486 1875.18 1485.98 1875.18 1486.01 1875.29 1486.01 1875.28 1486.05 1875.42 1486.12 1875.65 1486.12 1875.65 1486.12 1875.65 1486.12 1875.65 1486.13 1875.65 1486.13 1875.65 1486.06 1875.17"/><polygon class="cls-1" points="1597.62 1875.58 1597.62 1875.59 1597.62 1875.59 1597.62 1875.59 1597.62 1875.58"/><path class="cls-1" d="M1609.82,1904.15h0Z"/><polygon class="cls-1" points="1597.62 1875.59 1597.62 1875.59 1597.62 1875.59 1597.62 1875.59"/><polygon class="cls-1" points="1426.47 1873.76 1426.47 1873.72 1426.45 1873.74 1426.47 1873.76"/><polygon class="cls-1" points="1584.05 1904.09 1584.05 1904.1 1584.05 1904.09 1584.05 1904.09"/><polygon class="cls-1" points="1426.47 1873.79 1426.51 1873.8 1426.47 1873.76 1426.47 1873.79"/><path class="cls-1" d="M1483.05,1875.73h0Z"/><polygon class="cls-1" points="1482.15 1875.76 1482.14 1875.76 1482.13 1875.76 1482.14 1875.76 1482.15 1875.76"/><polygon class="cls-1" points="1481.63 1875.73 1481.63 1875.73 1481.65 1875.73 1481.63 1875.73"/><polygon class="cls-1" points="1481.6 1875.73 1481.63 1875.73 1481.61 1875.73 1481.6 1875.73"/><path class="cls-10" d="M1735.76,875.42c76.29,55.8,116.43,148,116.43,148-6.77-311.72-308.11-417.07-308.11-417.07S1242.74,711.65,1236,1023.37c0,0,40.14-92.15,116.43-148,0,0-176.44,220.21-149.39,430.93,0,0,16.9,123.64,207.07,205.49,0,0-130.16-114.07-114.95-295.17,0,0-31.27,34.82-38.88,73.13,0,0-5.91-120.16,206.24-257.72,0,0-72.26,15.23-125.51,44,0,0,93-90.55,207.09-99.69,114.09,9.14,207.1,99.69,207.1,99.69-53.25-28.73-125.52-44-125.52-44,212.16,137.56,206.24,257.72,206.24,257.72-7.6-38.31-38.88-73.13-38.88-73.13,15.22,181.1-115,295.17-115,295.17,190.18-81.85,207.08-205.49,207.08-205.49C1912.2,1095.63,1735.76,875.42,1735.76,875.42Z"/><path class="cls-11" d="M1497.7,883.85c-153.75,37.67-197,113.86-197,113.86,45.7-108.72,90.78-153.48,90.78-153.48-27.87,18.87-39.12,31.19-39.12,31.19S1176,1095.63,1203,1306.35c0,0,16.9,123.64,207.07,205.49,0,0-130.16-114.07-114.95-295.17,0,0-31.27,34.82-38.88,73.13,0,0-5.91-120.16,206.24-257.72-88.38,22.37-190,120.58-190,120.58C1369.34,923.68,1497.7,883.85,1497.7,883.85Z"/><path class="cls-11" d="M1735.76,875.42s-11.26-12.32-39.13-31.19c0,0,45.08,44.76,90.79,153.48,0,0-43.21-76.19-197-113.86,0,0,128.35,39.83,225.22,268.81,0,0-101.65-98.21-190-120.58,212.16,137.56,206.24,257.72,206.24,257.72-7.6-38.31-38.88-73.13-38.88-73.13,15.22,181.1-115,295.17-115,295.17,190.18-81.85,207.08-205.49,207.08-205.49C1912.2,1095.63,1735.76,875.42,1735.76,875.42Z"/><path class="cls-12" d="M1544.08,955.56C1410.37,965.84,1337,1076,1337,1076s93-90.55,207.09-99.69c114.09,9.14,207.1,99.69,207.1,99.69S1677.8,965.84,1544.08,955.56Z"/><path class="cls-10" d="M1695.4,1302.15c18.13-44.07,17.88-83.84,17.88-83.84-31.42,25.48-120.76,50.75-120.76,50.75l-48.93-14.56-48.93,14.56s-89.34-25.27-120.77-50.75c0,0-.25,39.77,17.88,83.84-9.14-12.8-18.35-31-21.25-45.06,0,0,12.3,79,49.31,114.62s123.76,74.38,123.76,74.38,86.74-38.74,123.75-74.38,49.32-114.62,49.32-114.62C1713.75,1271.2,1704.55,1289.35,1695.4,1302.15Z"/><path class="cls-11" d="M1695.4,1302.15c18.13-44.07,17.88-83.84,17.88-83.84s-10.06,58.55-36.24,95.79-67.31,50.51-67.31,50.51,33.45-3,58.17-25.47c0,0-27.59,43.45-124.31,67.42-96.73-24-124.32-67.42-124.32-67.42,24.73,22.47,58.18,25.47,58.18,25.47s-41.14-13.27-67.32-50.51-36.24-95.79-36.24-95.79-.25,39.77,17.88,83.84c-9.15-12.8-18.35-31-21.25-45.06,0,0,12.3,79,49.31,114.63s123.76,74.37,123.76,74.37,86.74-38.74,123.75-74.37,49.32-114.63,49.32-114.63C1713.75,1271.2,1704.55,1289.35,1695.4,1302.15Z"/><path class="cls-12" d="M1713.28,1218.31c-31.43,25.48-120.76,50.75-120.76,50.75l-48.93-14.56-48.93,14.56s-89.34-25.27-120.77-50.75c0,0,35.57,35.1,107,54.79,0,0-23.06,3.43-42,3.85,0,0,53.85,8.78,104.63-10.06,50.78,18.84,104.62,10.06,104.62,10.06-18.9-.42-42-3.85-42-3.85C1677.71,1253.41,1713.28,1218.31,1713.28,1218.31Z"/><path class="cls-10" d="M1793,1216.67c15.22,181.1-115,295.17-115,295.17s146.16-97.82,153.83-222C1824.3,1251.49,1793,1216.67,1793,1216.67Z"/><path class="cls-10" d="M1295.14,1216.67s-31.27,34.82-38.88,73.13c7.68,124.22,153.83,222,153.83,222S1279.93,1397.77,1295.14,1216.67Z"/><path class="cls-12" d="M1684.76,709.81c93.33,63.86,162.56,198.27,167.43,313.56-1.76-81.15-23.48-148.31-54.66-203.26-24.23-42.72-54.17-78.07-84.88-106.88-81.56-76.51-168.57-106.93-168.57-106.93s-87,30.42-168.57,106.93c-30.71,28.81-60.65,64.16-84.88,106.88-31.17,54.95-52.89,122.11-54.65,203.26,4.87-115.29,74.09-249.7,167.42-313.56,0,0-45.45,41.83-62.54,84.78,36.12-56.65,99.36-111.82,203.22-130.67,103.86,18.85,167.11,74,203.22,130.67C1730.21,751.64,1684.76,709.81,1684.76,709.81Z"/><path class="cls-6" d="M1620.19,1617.94a6.87,6.87,0,0,0-.85-2.11c-4.39-7.42-10.84-9.57-18.87-9.57h-71.68c-17,0-34.09-.27-51.12,0-8.6.14-16.28,4.49-18.59,13.35-1.68,6.44,1.27,11.93,4.71,17.12,4.57,6.88,9.1,13.78,13.68,20.66q15.94,24,31.92,47.89c5,7.52,9.84,15.24,15.1,22.6,3.62,5.07,7.57,8.09,13.41,9.12a6,6,0,0,0,2,.29h.11a5.82,5.82,0,0,0,2-.28c10-1.88,14.31-10.4,19.79-18.62q11.65-17.46,23.3-34.93t23.16-34.77C1614.23,1639.58,1624,1629.56,1620.19,1617.94Z"/><path class="cls-2" d="M1604.11,1624.39c-1.48-3-4.54-5.45-7.93-5.45H1483.71c-3.39,0-6.45,2.41-7.93,5.45-1.88,3.89-.68,7.28,1.65,10.62,2.77,4,5.37,8.1,8.06,12.14q12,18,24,36,10.17,15.24,20.33,30.47c2.6,3.9,4.87,7.82,10.12,7.87h.1c5.24,0,7.51-4,10.11-7.87q10.17-15.22,20.33-30.47,12-18,24-36c2.69-4,5.29-8.16,8.06-12.14C1604.79,1631.67,1606,1628.28,1604.11,1624.39ZM1540,1707.47l-51.14-76.29,51.14-.31,51.13.31Z"/><polygon class="cls-2" points="1539.95 1674.97 1558.93 1646.6 1520.96 1646.6 1539.95 1674.97"/><path class="cls-2" d="M1409,1159.78c-23.71-5-38.94-6.17-38.94-6.17l9.38,11.38c-39-11.58-103.13-7.81-140.17,4.12,0,0,59.63-9.13,103.45-3.61s58.51,14.51,58.51,14.51l-11.4-16.14s11.34,3.74,26.57,8.7c3.38,9.06,11.09,16.64,19.82,21.2a51.24,51.24,0,0,1-16.7-6.61c26.69,30.5,81.61,13.07,81.61,13.07-1.63-.94-3.35-1.88-5.14-2.82,9.5,1.86,26.93-2,26.93-2l-11.68-4.15S1432.78,1164.8,1409,1159.78Z"/><path class="cls-2" d="M1707.69,1165l9.38-11.38s-15.22,1.13-38.93,6.17-102.24,31.51-102.24,31.51l-11.68,4.15s17.42,3.83,26.93,2c-1.79.94-3.51,1.88-5.14,2.82,0,0,54.91,17.43,81.6-13.07a51.24,51.24,0,0,1-16.7,6.61c8.73-4.56,16.44-12.14,19.82-21.2,15.24-5,26.58-8.7,26.58-8.7L1685.9,1180s14.69-9,58.51-14.51,103.46,3.61,103.46,3.61C1810.82,1157.18,1746.74,1153.41,1707.69,1165Z"/></svg>