<svg id="Layer_1" data-name="Layer 1" xmlns="http://www.w3.org/2000/svg" xmlns:xlink="http://www.w3.org/1999/xlink" viewBox="0 0 1000 1000"><defs><style>.cls-1{fill:none;}.cls-2{clip-path:url(#clip-path);}.cls-3{fill:#18b4ca;}</style><clipPath id="clip-path"><rect class="cls-1" x="112.53" y="185.01" width="774.94" height="629.99"/></clipPath></defs><g class="cls-2"><path class="cls-3" d="M804.4,185h81.4l-330,376.87a26.19,26.19,0,0,0-.56,34L745.3,817.22H660.56L485,612.06,476,600.91c-8.37-9.48-7.81-24.53.55-34Z"/><path class="cls-3" d="M621,595.89c-5.58-6.13-7.25-15-5.58-22.86a35.41,35.41,0,0,1,7.81-12.26l21.74-24L887.47,817.22H810.53S668.37,651.09,621,595.89Z"/><path class="cls-3" d="M197.27,817.22H112.53l259.8-300.49a25.46,25.46,0,0,0,0-33.46L114.76,185h81.4L455.4,485.5c6.69,8.92,7.8,21.75.56,30.11C387.94,594.22,197.27,817.22,197.27,817.22Z"/><path class="cls-3" d="M338.88,185H260.83L501.12,463.2s.55-.55,27.31-32.33c7.25-8.36,8.92-19,.56-27.32C478.81,352.26,338.88,185,338.88,185Z"/><path class="cls-3" d="M573,379l166.7-194H660.56l-87,101.46L548.5,316a26.18,26.18,0,0,0-.55,34C554.08,357.28,573,379,573,379Z"/><path class="cls-3" d="M428.08,623.21l-166.69,194H340l87-101.46,25.08-29.55a26.18,26.18,0,0,0,.56-34Z"/></g></svg>