<?xml version="1.0" encoding="utf-8"?>
<!-- Generator: Adobe Illustrator 19.2.1, SVG Export Plug-In . SVG Version: 6.00 Build 0)  -->
<svg version="1.1" id="layer" xmlns="http://www.w3.org/2000/svg" xmlns:xlink="http://www.w3.org/1999/xlink" x="0px" y="0px"
	 viewBox="0 0 652 652" style="enable-background:new 0 0 652 652;" xml:space="preserve">
<style type="text/css">
	.st0{fill:url(#SVGID_1_);}
	.st1{fill:#FFFFFF;} 
</style>
<path class="st1" d="M197.8,313.7H154v-14.6h55.2v-14.6h-55.3c-3.8,0-7.5,1.5-10.2,4.2c-2.7,2.7-4.2,6.4-4.2,10.2v14.8c0,3.8,1.5,7.5,4.2,10.2
	c2.7,2.7,6.4,4.2,10.2,4.2h43.8v14.6h-57.3v14.6h57.4c3.8,0,7.5-1.5,10.2-4.2c2.7-2.7,4.2-6.4,4.2-10.2v-14.8
	c0-3.8-1.5-7.5-4.2-10.2C205.4,315.2,201.7,313.7,197.8,313.7z M282.8,284.5h-44c-1.9,0-3.8,0.4-5.5,1.1c-1.8,0.7-3.4,1.8-4.7,3.1
	c-1.3,1.3-2.4,2.9-3.1,4.7s-1.1,3.6-1.1,5.5V343c0,1.9,0.4,3.8,1.1,5.5c0.7,1.8,1.8,3.4,3.1,4.7c1.3,1.3,2.9,2.4,4.7,3.1
	c1.8,0.7,3.6,1.1,5.5,1.1h44c3.8,0,7.5-1.5,10.2-4.2c2.7-2.7,4.2-6.4,4.2-10.2V299c0-3.8-1.5-7.5-4.2-10.2
	C290.3,286.1,286.6,284.5,282.8,284.5L282.8,284.5z M282.7,342.9h-43.7v-43.7h43.7V342.9z M436.8,284.5h-42.9
	c-3.8,0-7.5,1.5-10.2,4.2c-2.7,2.7-4.2,6.4-4.2,10.2v58.4H394v-24h42.7v24h14.6V299c0-1.9-0.4-3.8-1.1-5.5c-0.7-1.8-1.8-3.4-3.1-4.7
	c-1.3-1.3-2.9-2.4-4.7-3.1C440.6,284.9,438.7,284.5,436.8,284.5z M436.7,318.9H394v-19.8h42.7V318.9z M607.5,284.5h-42.9
	c-1.9,0-3.8,0.4-5.6,1.1s-3.4,1.8-4.7,3.1c-1.3,1.3-2.4,2.9-3.1,4.7c-0.7,1.8-1.1,3.6-1.1,5.5v58.4h14.6v-24h42.7v24H622V299
	c0-3.8-1.5-7.5-4.2-10.2C615,286.1,611.4,284.5,607.5,284.5z M607.4,318.9h-42.7v-19.8h42.7V318.9z M522.6,342.9h-5.8l-20.9-52.3
	c-0.7-1.8-2-3.3-3.5-4.4c-1.6-1.1-3.5-1.7-5.4-1.7h-13c-2.6,0-5,1-6.8,2.8s-2.8,4.3-2.8,6.8v63.3h14.6v-58.3h5.8l20.9,52.3
	c0.7,1.8,1.9,3.3,3.5,4.4c1.6,1.1,3.5,1.7,5.4,1.7h13c2.6,0,5-1,6.8-2.8s2.8-4.3,2.8-6.8v-63.3h-14.6L522.6,342.9z M324.7,284.5
	h-14.6V343c0,3.8,1.5,7.5,4.2,10.2c2.7,2.7,6.4,4.2,10.2,4.2h43.8v-14.6h-43.7V284.5z"/>
<linearGradient id="SVGID_1_" gradientUnits="userSpaceOnUse" x1="24.4445" y1="292.9382" x2="100.5433" y2="369.0367" gradientTransform="matrix(1 0 0 -1 0 652)">
	<stop  offset="0" style="stop-color:#9945FF"/>
	<stop  offset="0.14" style="stop-color:#8A53F4"/>
	<stop  offset="0.42" style="stop-color:#6377D6"/>
	<stop  offset="0.79" style="stop-color:#24B0A7"/>
	<stop  offset="0.99" style="stop-color:#00D18C"/>
	<stop  offset="1" style="stop-color:#00D18C"/>
</linearGradient>
<path class="st0" d="M35.9,340.1c0.3-0.3,0.6-0.5,0.9-0.7c0.3-0.2,0.7-0.2,1.1-0.2h63.6c0.3,0,0.5,0.1,0.8,0.2
	c0.2,0.1,0.4,0.4,0.5,0.6c0.1,0.2,0.1,0.5,0.1,0.8c0,0.3-0.2,0.5-0.3,0.7l-13.5,15c-0.3,0.3-0.6,0.5-0.9,0.7
	c-0.3,0.2-0.7,0.2-1.1,0.2H23.4c-0.3,0-0.5-0.1-0.8-0.2c-0.2-0.1-0.4-0.4-0.5-0.6c-0.1-0.2-0.1-0.5-0.1-0.8c0-0.3,0.2-0.5,0.3-0.7
	L35.9,340.1z M102.6,327.7c0.2,0.2,0.3,0.4,0.3,0.7c0,0.3,0,0.5-0.1,0.8c-0.1,0.2-0.3,0.5-0.5,0.6c-0.2,0.1-0.5,0.2-0.8,0.2
	L38,330.1c-0.4,0-0.8-0.1-1.1-0.2s-0.7-0.4-0.9-0.7l-13.6-14.9c-0.2-0.2-0.3-0.4-0.3-0.7c0-0.3,0-0.5,0.1-0.8
	c0.1-0.2,0.3-0.5,0.5-0.6c0.2-0.1,0.5-0.2,0.8-0.2l63.7-0.1c0.4,0,0.8,0.1,1.1,0.2c0.3,0.2,0.7,0.4,0.9,0.7L102.6,327.7z
	 M35.9,285.5c0.3-0.3,0.6-0.5,0.9-0.7s0.7-0.2,1.1-0.2l63.7,0.1c0.3,0,0.5,0.1,0.8,0.2c0.2,0.1,0.4,0.4,0.5,0.6
	c0.1,0.2,0.1,0.5,0.1,0.8c0,0.3-0.2,0.5-0.3,0.7l-13.5,14.9c-0.3,0.3-0.6,0.5-0.9,0.7c-0.3,0.2-0.7,0.2-1.1,0.2H23.4
	c-0.3,0-0.5-0.1-0.8-0.2c-0.2-0.1-0.4-0.4-0.5-0.6c-0.1-0.2-0.1-0.5-0.1-0.8c0-0.3,0.2-0.5,0.3-0.7L35.9,285.5z"/>
</svg>
