<svg xmlns="http://www.w3.org/2000/svg" fill="none" viewBox="0 0 1233 546" height="546" width="1233">
<rect fill="black" height="546" width="1233"></rect>
<path fill="#CBFF01" d="M307.535 165.7C340.208 176.732 365.913 202.601 377.078 235.302C381.552 247.176 384 260.049 384 273.496C384 310.895 365.064 343.854 336.292 363.238C318.039 376.31 295.698 384 271.567 384C264.469 384 256.719 382.768 249.99 381.496L250.015 381.453C250.393 380.777 255.159 372.264 264.312 355.913L305.659 281.791L311.106 272.32L293.176 241.143H264.556C293.209 190.848 307.535 165.7 307.535 165.7Z" clip-rule="evenodd" fill-rule="evenodd"></path>
<path fill="#00FFA3" d="M271.567 160C279.82 160 287.176 160.57 294.919 162.277C294.976 162.29 279.53 190.029 248.582 245.496L243.383 254.667L238.341 263.706L232.894 273.177L250.824 304.354H279.536L238.473 376C238.393 376.123 238.324 376.245 238.257 376.361L237.968 376.865C237.308 378.019 236.978 378.595 236.978 378.595C191.986 364.162 160 321.955 160 272C160 210.144 209.95 160 271.567 160Z" clip-rule="evenodd" fill-rule="evenodd"></path>
<path fill="white" d="M491.296 340V218.912H515.408V340H491.296ZM451.872 237.568V216.272H554.832V237.568H451.872ZM583.307 341.76C575.563 341.76 568.582 339.824 562.363 335.952C556.144 332.08 551.275 326.8 547.755 320.112C544.235 313.424 542.475 305.915 542.475 297.584C542.475 289.136 544.235 281.568 547.755 274.88C551.275 268.192 556.144 262.912 562.363 259.04C568.582 255.168 575.563 253.232 583.307 253.232C589.408 253.232 594.864 254.464 599.675 256.928C604.486 259.392 608.299 262.853 611.115 267.312C614.048 271.653 615.632 276.581 615.867 282.096V312.72C615.632 318.352 614.048 323.339 611.115 327.68C608.299 332.021 604.486 335.483 599.675 338.064C594.864 340.528 589.408 341.76 583.307 341.76ZM587.531 320.464C593.984 320.464 599.206 318.352 603.195 314.128C607.184 309.787 609.179 304.213 609.179 297.408C609.179 292.949 608.24 289.019 606.363 285.616C604.603 282.096 602.08 279.397 598.795 277.52C595.627 275.525 591.872 274.528 587.531 274.528C583.307 274.528 579.552 275.525 576.267 277.52C573.099 279.397 570.576 282.096 568.699 285.616C566.939 289.019 566.059 292.949 566.059 297.408C566.059 301.984 566.939 306.032 568.699 309.552C570.576 312.955 573.099 315.653 576.267 317.648C579.552 319.525 583.307 320.464 587.531 320.464ZM607.947 340V317.12L611.643 296.352L607.947 275.936V254.992H630.827V340H607.947ZM680.44 341.936C675.629 341.936 670.877 341.291 666.184 340C661.608 338.709 657.384 336.949 653.512 334.72C649.64 332.373 646.296 329.557 643.48 326.272L657.208 312.368C660.141 315.653 663.544 318.117 667.416 319.76C671.288 321.403 675.57 322.224 680.264 322.224C684.018 322.224 686.834 321.696 688.712 320.64C690.706 319.584 691.704 318 691.704 315.888C691.704 313.541 690.648 311.723 688.536 310.432C686.541 309.141 683.901 308.085 680.616 307.264C677.33 306.325 673.869 305.328 670.232 304.272C666.712 303.099 663.309 301.632 660.024 299.872C656.738 297.995 654.04 295.472 651.928 292.304C649.933 289.019 648.936 284.795 648.936 279.632C648.936 274.235 650.226 269.541 652.808 265.552C655.506 261.563 659.32 258.453 664.248 256.224C669.176 253.995 674.984 252.88 681.672 252.88C688.712 252.88 695.048 254.112 700.68 256.576C706.429 259.04 711.181 262.736 714.936 267.664L701.032 281.568C698.45 278.4 695.517 276.112 692.232 274.704C689.064 273.296 685.602 272.592 681.848 272.592C678.445 272.592 675.805 273.12 673.928 274.176C672.168 275.232 671.288 276.699 671.288 278.576C671.288 280.688 672.285 282.331 674.28 283.504C676.392 284.677 679.09 285.733 682.376 286.672C685.661 287.493 689.064 288.491 692.584 289.664C696.221 290.72 699.624 292.245 702.792 294.24C706.077 296.235 708.717 298.875 710.712 302.16C712.824 305.445 713.88 309.669 713.88 314.832C713.88 323.163 710.888 329.792 704.904 334.72C698.92 339.531 690.765 341.936 680.44 341.936ZM783.635 340L750.723 296.176L783.459 254.992H810.035L771.667 301.456L772.547 290.192L811.795 340H783.635ZM729.427 340V212.752H752.483V340H729.427ZM882.779 341.936C873.744 341.936 865.296 340.293 857.435 337.008C849.691 333.723 842.886 329.205 837.019 323.456C831.27 317.589 826.752 310.784 823.467 303.04C820.182 295.179 818.539 286.789 818.539 277.872C818.539 268.955 820.123 260.683 823.291 253.056C826.576 245.312 831.094 238.565 836.843 232.816C842.71 226.949 849.515 222.432 857.259 219.264C865.003 215.979 873.392 214.336 882.427 214.336C891.579 214.336 900.027 215.979 907.771 219.264C915.515 222.432 922.262 226.949 928.011 232.816C933.878 238.565 938.454 245.312 941.739 253.056C945.024 260.8 946.667 269.131 946.667 278.048C946.667 286.965 945.024 295.296 941.739 303.04C938.454 310.784 933.878 317.589 928.011 323.456C922.262 329.205 915.515 333.723 907.771 337.008C900.144 340.293 891.814 341.936 882.779 341.936ZM882.427 319.584C890.406 319.584 897.328 317.824 903.195 314.304C909.062 310.784 913.638 305.915 916.923 299.696C920.326 293.477 922.027 286.203 922.027 277.872C922.027 271.771 921.088 266.197 919.211 261.152C917.334 256.107 914.635 251.765 911.115 248.128C907.595 244.373 903.43 241.499 898.619 239.504C893.808 237.509 888.411 236.512 882.427 236.512C874.683 236.512 867.819 238.272 861.835 241.792C855.968 245.195 851.334 250.005 847.931 256.224C844.646 262.443 843.003 269.659 843.003 277.872C843.003 284.091 843.942 289.781 845.819 294.944C847.814 300.107 850.512 304.507 853.915 308.144C857.435 311.781 861.6 314.597 866.411 316.592C871.339 318.587 876.678 319.584 882.427 319.584ZM1020.38 340V291.248C1020.38 286.203 1018.79 282.096 1015.62 278.928C1012.46 275.76 1008.35 274.176 1003.3 274.176C1000.02 274.176 997.086 274.88 994.505 276.288C991.923 277.696 989.87 279.691 988.345 282.272C986.937 284.853 986.233 287.845 986.233 291.248L977.257 286.672C977.257 279.984 978.665 274.176 981.481 269.248C984.414 264.203 988.403 260.272 993.449 257.456C998.611 254.64 1004.42 253.232 1010.87 253.232C1017.09 253.232 1022.66 254.816 1027.59 257.984C1032.52 261.035 1036.39 265.083 1039.21 270.128C1042.02 275.056 1043.43 280.395 1043.43 286.144V340H1020.38ZM963.177 340V254.992H986.233V340H963.177Z"></path>
</svg>
