<svg width="208" height="31" viewBox="0 0 208 31" fill="none" xmlns="http://www.w3.org/2000/svg">
<g clip-path="url(#clip0_1085_1752)">
<path fill-rule="evenodd" clip-rule="evenodd" d="M105.911 0.598114H106.513C108.072 0.597844 109.615 0.907541 111.056 1.50952C112.496 2.1115 113.804 2.99396 114.907 4.10652C116.009 5.21909 116.884 6.53994 117.48 7.99368C118.077 9.44739 118.384 11.0055 118.384 12.5791V18.2323C118.384 19.8055 118.077 21.3634 117.48 22.8168C116.884 24.2703 116.01 25.5909 114.907 26.7034C113.805 27.8157 112.497 28.698 111.057 29.2999C109.617 29.9017 108.073 30.2115 106.515 30.2111H100.914C97.767 30.2111 94.7486 28.949 92.5231 26.7026C90.2976 24.4561 89.0473 21.4093 89.0473 18.2323V12.5791C89.0473 9.40364 90.2961 6.35812 92.5195 4.1116C94.7426 1.8651 97.7584 0.601385 100.904 0.598114H101.508C102.218 0.598114 102.793 1.17854 102.793 1.89453V11.9457C102.793 12.1911 102.889 12.4265 103.061 12.6C103.233 12.7736 103.466 12.8711 103.709 12.8711C103.953 12.8711 104.186 12.7736 104.358 12.6C104.53 12.4265 104.626 12.1911 104.626 11.9457V1.89453C104.626 1.17854 105.201 0.598114 105.911 0.598114ZM75.3976 0.598114H69.7952C66.6476 0.59866 63.6292 1.86117 61.4037 4.10797C59.1784 6.35477 57.9281 9.40187 57.9281 12.5791V18.2323C57.9281 21.4093 59.1784 24.4561 61.4039 26.7026C63.6294 28.949 66.6478 30.2111 69.7952 30.2111H75.3976C77.7652 30.2152 80.0685 29.5017 82.0153 28.1792C82.6356 27.7578 82.6658 26.8767 82.1371 26.3432L76.3938 20.5458C76.3033 20.4617 76.2303 20.36 76.1798 20.2467C76.129 20.1335 76.1014 20.0111 76.0988 19.8868C76.0963 19.7626 76.1185 19.6391 76.1646 19.5238C76.2104 19.4085 76.2789 19.3038 76.366 19.2159C76.4531 19.128 76.5569 19.0588 76.671 19.0125C76.7853 18.9661 76.9075 18.9436 77.0306 18.9462C77.1537 18.9489 77.2751 18.9766 77.3872 19.0278C77.4994 19.079 77.6002 19.1525 77.6835 19.244L83.4267 25.0414C83.9554 25.5751 84.8281 25.5444 85.2455 24.9185C86.5557 22.9531 87.2627 20.6284 87.2587 18.2384V12.5791C87.2587 9.40293 86.0093 6.35678 83.785 4.11015C81.561 1.86353 78.5442 0.600295 75.3976 0.598114ZM136.375 15.7591C136.451 15.8623 136.557 15.9385 136.678 15.9763L149.383 19.9268C148.978 22.7805 147.567 25.3912 145.41 27.2799C143.252 29.1686 140.492 30.2085 137.636 30.2092H132.034C128.886 30.2092 125.868 28.9471 123.642 26.7006C121.417 24.4541 120.166 21.4072 120.166 18.2302V12.5791C120.166 11.0058 120.473 9.44789 121.069 7.9943C121.665 6.54072 122.54 5.21993 123.642 4.10736C124.744 2.99482 126.052 2.11227 127.492 1.51015C128.932 0.908025 130.475 0.598114 132.034 0.598114H137.636C140.492 0.599111 143.252 1.63928 145.409 3.52787C147.567 5.41644 148.978 8.02687 149.383 10.8804L136.678 14.8288C136.557 14.8667 136.451 14.9428 136.375 15.0461C136.3 15.1493 136.259 15.2743 136.259 15.4026C136.259 15.5309 136.3 15.6558 136.375 15.7591ZM147.093 14.4813H148.59C149.094 14.4813 149.503 14.8933 149.503 15.4016C149.503 15.9098 149.094 16.3219 148.59 16.3219H147.093C146.589 16.3219 146.18 15.9098 146.18 15.4016C146.18 14.8933 146.589 14.4813 147.093 14.4813ZM44.2825 0.598114H38.6801C35.5325 0.59866 32.5141 1.86117 30.2886 4.10797C28.0631 6.35479 26.813 9.40187 26.813 12.5791V18.2323C26.813 21.4093 28.0633 24.4561 30.2888 26.7026C32.5143 28.949 35.5327 30.2111 38.6801 30.2111H44.2825C47.4299 30.2111 50.4483 28.949 52.6738 26.7026C54.8993 24.4561 56.1496 21.4093 56.1496 18.2323V12.5791C56.1496 9.40187 54.8993 6.35479 52.674 4.10797C50.4485 1.86117 47.4299 0.59866 44.2825 0.598114ZM42.3939 19.3489C42.3939 19.5944 42.2974 19.8297 42.1255 20.0033C41.9536 20.1768 41.7203 20.2743 41.4771 20.2743C41.234 20.2743 41.0009 20.1768 40.829 20.0033C40.6571 19.8297 40.5603 19.5944 40.5603 19.3489V11.4706C40.5603 11.2252 40.6571 10.9898 40.829 10.8163C41.0009 10.6427 41.234 10.5452 41.4771 10.5452C41.7203 10.5452 41.9536 10.6427 42.1255 10.8163C42.2974 10.9898 42.3939 11.2252 42.3939 11.4706V19.3489ZM181.364 1.80943H205.917C206.224 1.80827 206.526 1.88668 206.794 2.03714C207.062 2.1876 207.287 2.40505 207.448 2.66866C207.609 2.93227 207.7 3.23319 207.713 3.54258C207.726 3.85197 207.659 4.15944 207.52 4.43553L195.244 29.22C195.095 29.5205 194.867 29.7733 194.584 29.9501C194.3 30.1268 193.974 30.2204 193.642 30.2204C193.309 30.2204 192.982 30.1268 192.699 29.9501C192.417 29.7733 192.188 29.5205 192.039 29.22L179.763 4.42525C179.626 4.14969 179.562 3.8435 179.575 3.53575C179.589 3.228 179.681 2.92892 179.841 2.66685C180.001 2.40479 180.226 2.18846 180.492 2.03839C180.759 1.88833 181.059 1.80951 181.364 1.80943ZM5.96664 3.03484L5.98332 3.02304C7.30715 2.08703 8.80068 1.42345 10.3786 1.0702C11.9565 0.716942 13.5879 0.680941 15.1796 0.964248C16.7714 1.24755 18.2922 1.84462 19.6553 2.72133C21.0183 3.59805 22.197 4.73725 23.1238 6.07384C23.3253 6.36425 23.4042 6.72353 23.3432 7.07266C23.2822 7.42179 23.0864 7.73217 22.7987 7.93551L22.2743 8.30618C21.6931 8.71684 21.5519 9.52522 21.9588 10.1117L22.1775 10.427L22.1824 10.4236L23.2959 12.0289C24.1759 13.2989 24.7994 14.7314 25.131 16.2446C25.4624 17.7578 25.4953 19.3221 25.2278 20.8482C24.9602 22.3743 24.3974 23.8321 23.5718 25.1386C22.746 26.4452 21.6734 27.5748 20.4151 28.4627C17.8755 30.2578 14.7334 30.9609 11.6802 30.4174C8.62695 29.874 5.91264 28.1286 4.13435 25.565L3.7838 25.0596C3.58235 24.7692 3.50345 24.4098 3.56444 24.0609C3.62542 23.7117 3.8213 23.4012 4.10899 23.1979L10.0838 18.9749C10.4606 18.7086 10.5522 18.1844 10.2883 17.8041C10.0245 17.4238 9.50523 17.3313 9.12845 17.5976L4.79025 20.6639C4.5025 20.8653 4.14745 20.9434 3.80276 20.8813C3.45807 20.8191 3.15183 20.6216 2.95098 20.3321C1.07911 17.6336 0.345878 14.295 0.91258 11.0508C1.47928 7.80658 3.2995 4.92249 5.97281 3.03298L5.96664 3.03484ZM159.063 3.61138L159.046 3.62309L159.047 3.62477C156.371 5.5025 154.544 8.37642 153.967 11.6143C153.39 14.8521 154.111 18.1887 155.971 20.89C156.171 21.1807 156.478 21.3792 156.823 21.4419C157.168 21.5046 157.524 21.4262 157.812 21.2242L162.587 17.8737C162.847 17.6912 163.204 17.7555 163.386 18.0174C163.568 18.28 163.505 18.6419 163.245 18.8257L157.066 23.1929C156.778 23.3963 156.582 23.7065 156.521 24.0557C156.46 24.4049 156.539 24.7642 156.741 25.0546L157.091 25.56C158.87 28.1234 161.584 29.8691 164.637 30.4125C167.69 30.9559 170.833 30.2528 173.372 28.4577L173.376 28.4629C175.915 26.6678 177.645 23.9278 178.183 20.8459C178.721 17.7639 178.025 14.5922 176.246 12.0286L175.133 10.4233L175.127 10.4272C174.779 9.92519 174.901 9.23316 175.4 8.88339L175.837 8.57633C176.125 8.37426 176.322 8.06498 176.384 7.71653C176.446 7.36809 176.368 7.00901 176.168 6.71831C175.247 5.38047 174.074 4.23886 172.716 3.35866C171.358 2.47848 169.842 1.87695 168.253 1.58844C166.665 1.29992 165.036 1.33008 163.459 1.67718C161.882 2.02428 160.388 2.68152 159.063 3.61138Z" fill="#C1BFB3"/>
</g>
<defs>
<clipPath id="clip0_1085_1752">
<rect width="206.989" height="30.0337" fill="white" transform="translate(0.725586 0.598114)"/>
</clipPath>
</defs>
</svg>
