<svg width="156" height="39" viewBox="0 0 156 39" fill="none" xmlns="http://www.w3.org/2000/svg">
<g clip-path="url(#clip0_1085_1736)">
<path fill-rule="evenodd" clip-rule="evenodd" d="M61.2026 19.7213L61.2894 19.4266C61.9935 17.0353 64.4779 15.2535 66.9447 15.2535C69.4107 15.2535 71.8943 17.0353 72.5992 19.4266L72.686 19.7213H61.2026ZM67.3669 11.1578H66.5233C60.9079 11.1578 56.3398 15.7399 56.3398 21.3706V22.2148C56.3398 27.8455 60.9079 32.4267 66.5233 32.4267H67.3669C71.1878 32.4267 74.0345 31.1512 76.0696 28.5268C76.1166 28.4653 76.1365 28.387 76.123 28.3111C76.1102 28.2392 76.0688 28.1777 76.0075 28.1394L72.5036 26.0125C72.3865 25.9382 72.232 25.9654 72.1579 26.0716C70.7314 28.117 68.2797 28.3311 66.9447 28.3311C64.3441 28.3311 61.7705 26.3711 61.2074 23.8489L61.1452 23.5694H72.9401L72.9369 23.5717H77.2286C77.3608 23.5717 77.4755 23.4735 77.489 23.3481C77.5296 22.9735 77.5496 22.5918 77.5496 22.2148V21.3706C77.5496 15.7399 72.9823 11.1578 67.3669 11.1578Z" fill="white"/>
<path fill-rule="evenodd" clip-rule="evenodd" d="M88.8538 32.4267H89.7015C94.4682 32.4267 96.9977 29.4715 97.2709 29.1344C98.5717 27.5258 98.9264 25.7815 98.2689 24.2224C97.7016 22.8733 96.4688 21.9924 96.1044 21.7551C94.4961 20.7072 91.0254 19.9277 90.8784 19.8949C90.8776 19.8941 89.9692 19.6897 89.4099 19.5587C89.0871 19.4828 88.7795 19.4165 88.4903 19.3534C87.2614 19.0851 86.4649 18.8918 85.9655 18.4245C85.63 18.1106 85.4718 17.7256 85.5077 17.3103C85.5588 16.7065 86.0854 16.2217 86.4393 15.9876C87.2918 15.4238 88.2034 15.2161 89.9028 15.2872C91.5975 15.3575 93.2641 16.0499 94.4769 17.5012C94.5712 17.6122 94.7374 17.6282 94.8581 17.5411L98.0803 15.1897C98.1458 15.141 98.1874 15.0699 98.1962 14.9877C98.2049 14.9038 98.1778 14.8239 98.121 14.7608C96.154 12.5716 93.0907 11.1578 90.3167 11.1578H89.4698C84.6193 11.1578 82.009 14.3159 81.9004 14.4501C80.6004 16.0579 80.2457 17.8023 80.9016 19.3622C81.4705 20.7128 82.7033 21.5922 83.0677 21.8294C84.664 22.8701 88.1467 23.6577 88.2937 23.6904L88.3848 23.7104C88.6285 23.7655 89.3084 23.9197 89.7606 24.0243C90.0682 24.0962 90.3599 24.1601 90.6347 24.2216C91.8819 24.4963 92.6905 24.696 93.2018 25.1569C93.4966 25.4212 93.6404 25.7511 93.6205 26.1097C93.5885 26.6712 93.0779 27.1736 92.7184 27.4172C91.7541 28.0706 90.9016 28.3477 89.2685 28.2974C87.5898 28.2455 85.8265 27.4779 84.664 26.0362C84.6113 25.9707 84.5322 25.9356 84.4507 25.9356C84.3979 25.9356 84.3444 25.95 84.2973 25.9795L80.8633 28.1017C80.793 28.1448 80.7474 28.2135 80.7339 28.295C80.7195 28.3797 80.7427 28.4667 80.7978 28.5346C82.768 30.9723 85.7794 32.4267 88.8538 32.4267Z" fill="white"/>
<path fill-rule="evenodd" clip-rule="evenodd" d="M114.565 27.1292H111.923C110.169 27.1292 108.743 25.7116 108.743 23.9681V17.0327C108.743 16.5854 109.108 16.2221 109.559 16.2221H114.565C114.762 16.2221 114.921 16.0639 114.921 15.8691V12.2887C114.921 12.0946 114.762 11.9365 114.565 11.9365H108.743V6.78363C108.743 6.58956 108.584 6.43143 108.388 6.43143L104.292 7.00086C104.096 7.00086 103.937 7.159 103.937 7.35307V11.9365H101.642C101.445 11.9365 101.286 12.0946 101.286 12.2887V15.8842C101.286 16.0791 101.445 16.2372 101.642 16.2372H103.121C103.572 16.2372 103.937 16.6006 103.937 17.0479V24.5943C103.937 28.3543 107.016 31.4139 110.802 31.4139H114.565C114.762 31.4139 114.921 31.2558 114.921 31.0625V27.4814C114.921 27.2873 114.762 27.1292 114.565 27.1292Z" fill="white"/>
<path fill-rule="evenodd" clip-rule="evenodd" d="M14.3809 28.0787H14.2919C9.45924 28.0787 5.52635 24.0982 5.52635 19.2056C5.52635 14.3137 9.45924 10.334 14.2919 10.334H14.3809C19.2152 10.334 23.1473 14.3137 23.1473 19.2056C23.1473 24.0982 19.2152 28.0787 14.3809 28.0787ZM27.7121 19.2056C27.7121 11.9754 21.9002 6.09384 14.7569 6.09384H13.9159C6.77187 6.09384 0.959961 11.9754 0.959961 19.2056C0.959961 26.4365 6.77187 32.3189 13.9159 32.3189H14.7569C15.4579 32.3189 16.1812 32.2576 16.9046 32.1366L16.9379 32.1301C17.4061 32.0503 17.8727 31.943 18.3242 31.8107C18.8042 31.7381 19.2827 31.7018 19.7549 31.7018C22.2499 31.7018 24.5907 32.7076 26.3481 34.5612C26.4173 34.6338 26.523 34.6418 26.5929 34.5781L29.6841 31.8172C29.7199 31.7849 29.7421 31.7381 29.7446 31.6889C29.7453 31.6623 29.7413 31.6099 29.7 31.5663C28.2875 30.0451 26.5739 28.9135 24.6058 28.2013L24.2895 28.0876L24.5112 27.8319C26.5754 25.4404 27.7121 22.3778 27.7121 19.2056Z" fill="white"/>
<path fill-rule="evenodd" clip-rule="evenodd" d="M33.9521 11.4955C32.374 11.4955 31.0908 12.783 31.0908 14.3655C31.0908 15.9471 32.374 17.2347 33.9521 17.2347C35.5301 17.2347 36.8141 15.9471 36.8141 14.3655C36.8141 12.783 35.5301 11.4955 33.9521 11.4955Z" fill="white"/>
<path fill-rule="evenodd" clip-rule="evenodd" d="M50.1134 11.4955C48.5348 11.4955 47.251 12.783 47.251 14.3655C47.251 15.9471 48.5348 17.2347 50.1134 17.2347C51.6904 17.2347 52.9742 15.9471 52.9742 14.3655C52.9742 12.783 51.6904 11.4955 50.1134 11.4955Z" fill="white"/>
<path fill-rule="evenodd" clip-rule="evenodd" d="M52.7436 31.7275C52.8706 31.7275 52.9739 31.621 52.9739 31.4893V19.8395C52.9739 19.776 52.9502 19.7151 52.9061 19.6695C52.8627 19.6256 52.8044 19.6012 52.7436 19.6012H52.7421L48.6668 19.637C48.5406 19.6378 48.4389 19.7451 48.4389 19.8752L48.4318 22.1837C48.424 22.422 48.405 22.6456 48.3703 22.8838C48.3522 23.0123 48.3404 23.0904 48.3246 23.1684C48.271 23.4368 48.2056 23.6832 48.1252 23.9182L48.1007 23.9824C47.496 25.668 46.1746 27.0048 44.4669 27.6724C43.159 28.214 41.7793 28.3075 40.48 27.9432C37.6259 27.2715 35.6265 24.8435 35.6265 22.0414L35.6218 21.4861C35.6202 21.1844 35.6171 20.8518 35.6171 20.7055V19.8354C35.6171 19.7053 35.5138 19.598 35.3869 19.598H31.321C31.1941 19.598 31.0908 19.7053 31.0908 19.8354V23.0961L31.0971 23.2099C31.2509 28.3782 35.2394 32.4268 40.1772 32.4268C42.1782 32.4268 44.0743 31.7592 45.663 30.4956C46.1423 30.1151 46.7423 30.0167 47.3052 30.2257C47.876 30.4363 48.297 30.9233 48.4326 31.5283C48.4547 31.6275 48.5304 31.7275 48.6487 31.7275H52.7436Z" fill="white"/>
<path fill-rule="evenodd" clip-rule="evenodd" d="M150.516 4.01571L127.549 0.913005C124.409 0.489436 121.521 2.69776 121.097 5.84691L118.003 28.879C117.579 32.0281 119.783 34.9251 122.924 35.3494L145.891 38.4513C149.031 38.8757 151.921 36.6666 152.343 33.5174L155.437 10.4861C155.86 7.3362 153.657 4.44008 150.516 4.01571Z" fill="#C8FF04"/>
<path fill-rule="evenodd" clip-rule="evenodd" d="M131.291 14.7658L141.209 32.6185C141.341 32.855 141.581 33.0186 141.849 33.0555L145.889 33.6048C145.991 33.6184 146.093 33.592 146.176 33.5294C146.258 33.4661 146.312 33.3755 146.326 33.2728L149.594 9.24717C149.607 9.14453 149.581 9.04269 149.518 8.96089C149.456 8.8783 149.366 8.82617 149.264 8.81254L145.29 8.27206C145.185 8.25923 145.086 8.28409 145.003 8.34664C144.921 8.40919 144.868 8.5006 144.854 8.60325L142.655 24.7671L132.736 6.91445C132.605 6.67789 132.367 6.5135 132.098 6.47822L128.056 5.92812C127.951 5.91529 127.852 5.94175 127.77 6.0035C127.688 6.06604 127.635 6.15746 127.62 6.2601L124.351 30.2857C124.337 30.3876 124.364 30.4894 124.427 30.572C124.49 30.6538 124.58 30.7067 124.682 30.7204L128.658 31.2609C128.758 31.2729 128.86 31.248 128.942 31.1863C129.025 31.1229 129.078 31.0323 129.091 30.9297L131.291 14.7658Z" fill="white"/>
</g>
<defs>
<clipPath id="clip0_1085_1736">
<rect width="154.528" height="37.81" fill="white" transform="translate(0.960938 0.709961)"/>
</clipPath>
</defs>
</svg>
