<svg width="224" height="39" viewBox="0 0 224 39" fill="none" xmlns="http://www.w3.org/2000/svg">
<g clip-path="url(#clip0_1085_1754)">
<path d="M214.218 29.3433C213.083 29.3433 212.056 29.1185 211.141 28.6687C210.224 28.1976 209.492 27.5659 208.946 26.7735C208.4 25.981 208.107 25.0709 208.063 24.0429V18.5499C208.107 17.5219 208.4 16.6117 208.946 15.8193C209.514 15.0056 210.245 14.3631 211.141 13.8919C212.056 13.4209 213.083 13.1853 214.218 13.1853C215.68 13.1853 216.99 13.5386 218.147 14.2454C219.304 14.952 220.21 15.9157 220.865 17.1365C221.542 18.3571 221.879 19.7384 221.879 21.2803C221.879 22.8008 221.542 24.1714 220.865 25.3921C220.21 26.6128 219.304 27.5765 218.147 28.2832C216.99 28.9899 215.68 29.3433 214.218 29.3433ZM213.465 25.4563C214.251 25.4563 214.949 25.285 215.56 24.9424C216.172 24.5784 216.641 24.0857 216.969 23.4647C217.318 22.8223 217.492 22.0834 217.492 21.2482C217.492 20.4344 217.318 19.7171 216.969 19.0959C216.641 18.4535 216.172 17.9609 215.56 17.6182C214.949 17.2542 214.251 17.0722 213.465 17.0722C212.701 17.0722 212.014 17.2542 211.402 17.6182C210.791 17.9609 210.31 18.4535 209.962 19.0959C209.634 19.7171 209.471 20.4344 209.471 21.2482C209.471 22.0834 209.634 22.8223 209.962 23.4647C210.31 24.0857 210.78 24.5784 211.369 24.9424C211.98 25.285 212.68 25.4563 213.465 25.4563ZM205.442 35.5109V13.5065H209.732V17.5862L209.012 21.3446L209.699 25.103V35.5109H205.442Z" fill="white"/>
<path d="M193.135 29.3433C191.694 29.3433 190.395 28.9899 189.238 28.2832C188.081 27.5765 187.176 26.6128 186.521 25.3921C185.865 24.1714 185.538 22.8008 185.538 21.2803C185.538 19.7384 185.865 18.3571 186.521 17.1365C187.176 15.9157 188.081 14.952 189.238 14.2454C190.395 13.5386 191.694 13.1853 193.135 13.1853C194.269 13.1853 195.285 13.4101 196.179 13.8598C197.075 14.3095 197.784 14.9414 198.308 15.7551C198.854 16.5475 199.148 17.447 199.192 18.4535V24.0429C199.148 25.0709 198.854 25.981 198.308 26.7735C197.784 27.5659 197.075 28.1976 196.179 28.6687C195.285 29.1185 194.269 29.3433 193.135 29.3433ZM193.921 25.4563C195.121 25.4563 196.093 25.0709 196.835 24.3C197.577 23.5076 197.948 22.4903 197.948 21.2482C197.948 20.4344 197.773 19.7171 197.423 19.0959C197.096 18.4535 196.628 17.9609 196.016 17.6182C195.426 17.2542 194.728 17.0722 193.921 17.0722C193.135 17.0722 192.436 17.2542 191.825 17.6182C191.235 17.9609 190.767 18.4535 190.417 19.0959C190.09 19.7171 189.926 20.4344 189.926 21.2482C189.926 22.0834 190.09 22.8223 190.417 23.4647C190.767 24.0857 191.235 24.5784 191.825 24.9424C192.436 25.285 193.135 25.4563 193.921 25.4563ZM197.718 29.0221V24.8461L198.406 21.0554L197.718 17.3292V13.5065H201.975V29.0221H197.718Z" fill="white"/>
<path d="M166.259 29.0221L160.332 13.5065H164.654L168.518 24.7818L167.209 24.8139L171.171 13.5065H174.281L178.243 24.8139L176.933 24.7818L180.796 13.5065H185.118L179.225 29.0221H176.115L172.12 18.2929H173.332L169.337 29.0221H166.259Z" fill="white"/>
<path d="M151.145 29.3433C149.29 29.3433 147.696 29.0327 146.364 28.4117C145.055 27.7907 143.865 26.8591 142.796 25.617L145.742 22.7259C146.419 23.604 147.205 24.2892 148.099 24.7818C148.995 25.2529 150.087 25.4885 151.374 25.4885C152.531 25.4885 153.448 25.2637 154.125 24.8139C154.823 24.3642 155.172 23.7432 155.172 22.9508C155.172 22.2655 154.976 21.7086 154.583 21.2803C154.19 20.8521 153.667 20.488 153.011 20.1881C152.379 19.8884 151.669 19.6207 150.882 19.3851C150.119 19.128 149.345 18.839 148.558 18.5178C147.794 18.1965 147.085 17.8003 146.429 17.3291C145.797 16.8366 145.284 16.2156 144.89 15.466C144.498 14.6951 144.302 13.7314 144.302 12.5749C144.302 11.2043 144.639 10.0372 145.316 9.07347C145.993 8.10977 146.921 7.37093 148.099 6.85696C149.278 6.34299 150.61 6.086 152.094 6.086C153.667 6.086 155.084 6.37511 156.351 6.95333C157.617 7.53155 158.654 8.2811 159.461 9.20196L156.515 12.0931C155.838 11.3649 155.139 10.8295 154.42 10.4869C153.72 10.1442 152.923 9.97292 152.029 9.97292C151.003 9.97292 150.195 10.1657 149.606 10.5511C149.016 10.9366 148.721 11.4934 148.721 12.2216C148.721 12.8426 148.919 13.3458 149.311 13.7314C149.704 14.1168 150.218 14.4487 150.85 14.7272C151.506 15.0056 152.214 15.2732 152.978 15.5303C153.764 15.7872 154.54 16.0764 155.303 16.3976C156.089 16.7188 156.798 17.1365 157.431 17.6503C158.086 18.1643 158.611 18.8283 159.003 19.642C159.396 20.4344 159.592 21.4195 159.592 22.5974C159.592 24.6961 158.839 26.3451 157.334 27.5444C155.827 28.7437 153.764 29.3433 151.145 29.3433Z" fill="white"/>
<path d="M129.617 29.3433C128.002 29.3433 126.55 28.9898 125.262 28.2832C123.973 27.5764 122.959 26.6127 122.217 25.3921C121.475 24.1713 121.104 22.8008 121.104 21.2802C121.104 19.7384 121.475 18.357 122.217 17.1364C122.959 15.9157 123.973 14.952 125.262 14.2453C126.571 13.5172 128.023 13.1531 129.617 13.1531C130.861 13.1531 132.006 13.378 133.054 13.8277C134.102 14.2774 135.008 14.9199 135.772 15.7551L133.022 18.4855C132.607 18.0358 132.105 17.6932 131.515 17.4576C130.948 17.2221 130.315 17.1042 129.617 17.1042C128.831 17.1042 128.122 17.2863 127.488 17.6504C126.877 17.993 126.385 18.4749 126.014 19.0959C125.666 19.6955 125.491 20.4129 125.491 21.2481C125.491 22.0619 125.666 22.7901 126.014 23.4326C126.385 24.0536 126.877 24.5461 127.488 24.9102C128.122 25.2529 128.831 25.4242 129.617 25.4242C130.337 25.4242 130.981 25.3064 131.549 25.0709C132.138 24.8138 132.64 24.4497 133.054 23.9787L135.837 26.7091C135.03 27.5658 134.102 28.2189 133.054 28.6686C132.006 29.1184 130.861 29.3433 129.617 29.3433Z" fill="white"/>
<path d="M114.357 29.0221V13.5065H118.679V29.0221H114.357ZM116.518 11.0009C115.819 11.0009 115.241 10.776 114.782 10.3263C114.324 9.85515 114.095 9.27693 114.095 8.59162C114.095 7.92773 114.324 7.36022 114.782 6.88909C115.241 6.41795 115.819 6.18237 116.518 6.18237C117.238 6.18237 117.817 6.41795 118.253 6.88909C118.711 7.36022 118.941 7.92773 118.941 8.59162C118.941 9.27693 118.711 9.85515 118.253 10.3263C117.817 10.776 117.238 11.0009 116.518 11.0009Z" fill="white"/>
<path d="M102.338 35.8965C100.657 35.8965 99.1725 35.5966 97.8846 34.9971C96.5967 34.4188 95.5708 33.5943 94.8067 32.5235L97.5244 29.8573C98.1357 30.564 98.8123 31.0993 99.5546 31.4635C100.318 31.8489 101.235 32.0417 102.305 32.0417C103.636 32.0417 104.684 31.7097 105.448 31.0459C106.234 30.3819 106.627 29.4611 106.627 28.2832V24.3964L107.347 20.9913L106.66 17.5862V13.5065H110.916V28.2189C110.916 29.7609 110.545 31.0993 109.803 32.2344C109.083 33.3909 108.079 34.2903 106.791 34.9328C105.503 35.5752 104.018 35.8965 102.338 35.8965ZM102.141 28.6045C100.722 28.6045 99.4454 28.2725 98.3102 27.6087C97.1751 26.9233 96.2802 25.9918 95.6254 24.8138C94.9923 23.636 94.6758 22.319 94.6758 20.8628C94.6758 19.4064 94.9923 18.1002 95.6254 16.9437C96.2802 15.7872 97.1751 14.8771 98.3102 14.2131C99.4454 13.5279 100.722 13.1853 102.141 13.1853C103.32 13.1853 104.357 13.4101 105.252 13.8598C106.169 14.3095 106.889 14.9306 107.413 15.7231C107.937 16.494 108.221 17.4041 108.264 18.4535V23.3363C108.221 24.3641 107.926 25.285 107.38 26.0988C106.856 26.8912 106.136 27.5123 105.219 27.962C104.324 28.3904 103.298 28.6045 102.141 28.6045ZM102.993 24.7818C103.778 24.7818 104.455 24.6212 105.023 24.3C105.612 23.9573 106.07 23.4968 106.398 22.9187C106.725 22.319 106.889 21.6445 106.889 20.8949C106.889 20.1239 106.725 19.4493 106.398 18.8711C106.07 18.2929 105.612 17.8431 105.023 17.5219C104.455 17.1793 103.778 17.008 102.993 17.008C102.207 17.008 101.519 17.1793 100.93 17.5219C100.34 17.8431 99.882 18.3035 99.5546 18.9032C99.2271 19.4815 99.0634 20.1453 99.0634 20.8949C99.0634 21.623 99.2271 22.2869 99.5546 22.8864C99.882 23.4647 100.34 23.9252 100.93 24.2678C101.519 24.6105 102.207 24.7818 102.993 24.7818Z" fill="white"/>
<path d="M83.4158 29.3433C81.9751 29.3433 80.6763 28.9899 79.5193 28.2832C78.3624 27.5765 77.4565 26.6128 76.8016 25.3921C76.1468 24.1714 75.8193 22.8008 75.8193 21.2803C75.8193 19.7384 76.1468 18.3571 76.8016 17.1365C77.4565 15.9157 78.3624 14.952 79.5193 14.2454C80.6763 13.5386 81.9751 13.1853 83.4158 13.1853C84.5509 13.1853 85.566 13.4101 86.461 13.8598C87.356 14.3095 88.0654 14.9414 88.5892 15.7551C89.135 16.5475 89.4296 17.447 89.4733 18.4535V24.0429C89.4296 25.0709 89.135 25.981 88.5892 26.7735C88.0654 27.5659 87.356 28.1976 86.461 28.6687C85.566 29.1185 84.5509 29.3433 83.4158 29.3433ZM84.2016 25.4563C85.4022 25.4563 86.3737 25.0709 87.1158 24.3C87.858 23.5076 88.2291 22.4903 88.2291 21.2482C88.2291 20.4344 88.0545 19.7171 87.7051 19.0959C87.3777 18.4535 86.9084 17.9609 86.2972 17.6182C85.7078 17.2542 85.0093 17.0722 84.2016 17.0722C83.4158 17.0722 82.7173 17.2542 82.1061 17.6182C81.5168 17.9609 81.0474 18.4535 80.6981 19.0959C80.3707 19.7171 80.207 20.4344 80.207 21.2482C80.207 22.0834 80.3707 22.8223 80.6981 23.4647C81.0474 24.0857 81.5168 24.5784 82.1061 24.9424C82.7173 25.285 83.4158 25.4563 84.2016 25.4563ZM87.9999 29.0221V24.8461L88.6874 21.0554L87.9999 17.3292V13.5065H92.2565V29.0221H87.9999Z" fill="white"/>
<path d="M49.7656 29.0221V6.43936H52.9089L62.2408 21.0876H60.4398L69.739 6.43936H72.8823V29.0221H68.462V13.9241L69.3133 14.1811L62.8301 24.3963H59.8178L53.3346 14.1811L54.2186 13.9241V29.0221H49.7656Z" fill="white"/>
<path fill-rule="evenodd" clip-rule="evenodd" d="M15.0501 24.0449C16.6757 25.6397 16.6757 28.2256 15.0501 29.8204L12.1898 32.6266L4.74079 25.3186L4.73092 25.3283L1.87062 22.5221C1.05487 21.7218 0.648454 20.672 0.651383 19.6231C0.649275 18.5751 1.05569 17.5267 1.87062 16.7272L4.73093 13.9211L4.74079 13.9307L16.7729 2.12643C18.3756 0.554088 20.974 0.554089 22.5767 2.12643C24.1793 3.69877 24.1793 6.24804 22.5767 7.82037L10.5446 19.6246L15.0501 24.0449ZM24.2797 15.1803C22.6541 13.5853 22.6541 10.9996 24.2797 9.40466L27.14 6.59852L34.602 13.9192L34.6198 13.9017L37.4801 16.7078C39.1058 18.3027 39.1058 20.8885 37.4801 22.4834L22.5778 37.1035C20.9752 38.6759 18.3766 38.6759 16.774 37.1035C15.1713 35.5312 15.1713 32.9819 16.774 31.4095L28.7981 19.6131L24.2797 15.1803ZM16.7733 16.7684C15.1708 18.3405 15.1708 20.8895 16.7733 22.4616C18.3757 24.0337 20.9739 24.0337 22.5763 22.4616C24.1787 20.8895 24.1787 18.3405 22.5763 16.7684C20.9739 15.1963 18.3757 15.1963 16.7733 16.7684Z" fill="url(#paint0_linear_1085_1754)"/>
</g>
<defs>
<linearGradient id="paint0_linear_1085_1754" x1="29.1897" y1="0.945464" x2="21.9718" y2="38.7234" gradientUnits="userSpaceOnUse">
<stop stop-color="#FF8066"/>
<stop offset="0.5" stop-color="#E666FF"/>
<stop offset="1" stop-color="#66B3FF"/>
</linearGradient>
<clipPath id="clip0_1085_1754">
<rect width="222.411" height="37.3392" fill="white" transform="translate(0.644531 0.945374)"/>
</clipPath>
</defs>
</svg>
