<svg width="171" height="33" viewBox="0 0 171 33" fill="none" xmlns="http://www.w3.org/2000/svg">
<g clip-path="url(#clip0_1085_1750)">
<path d="M75.0629 32.0047C71.9747 32.0047 69.3237 31.3264 67.1072 29.9697C64.8908 28.613 63.187 26.7873 61.9947 24.4913C60.8023 22.1965 60.2061 19.6472 60.2061 16.8447C60.2061 14.0422 60.8169 11.4942 62.0397 9.19814C63.2625 6.9034 64.9968 5.0764 67.2437 3.71971C69.4906 2.36302 72.1271 1.68467 75.153 1.68467C78.4241 1.68467 81.2592 2.46768 83.6585 4.03239C86.0578 5.59711 87.8238 7.61793 88.9539 10.0923H85.194C84.2772 8.51205 83.0001 7.26002 81.3652 6.33618C79.729 5.41234 77.7497 4.94977 75.4273 4.94977C72.9816 4.94977 70.8725 5.47953 69.0998 6.53774C67.3272 7.59596 65.9732 9.01982 65.0418 10.8081C64.1091 12.5963 63.6428 14.6094 63.6428 16.8447C63.6428 19.08 64.1012 21.0556 65.018 22.8594C65.9348 24.6631 67.2715 26.0947 69.0296 27.153C70.7877 28.2112 72.8889 28.7409 75.3345 28.7409C77.1681 28.7409 78.9036 28.3533 80.5385 27.5781C82.1734 26.8028 83.5035 25.6852 84.5276 24.2238C85.5517 22.7638 86.0644 21.0039 86.0644 18.9469H74.9675V15.9054H89.2282V31.6468H86.0644V26.4152C85.4219 27.37 84.5965 28.2706 83.5883 29.1208C82.5788 29.971 81.3639 30.6636 79.9423 31.1998C78.5208 31.736 76.8925 32.0047 75.059 32.0047H75.0629ZM104.004 32.0047C101.772 32.0047 99.8242 31.4905 98.1576 30.462C96.4909 29.4335 95.2005 28.0406 94.2838 26.2808C93.367 24.5223 92.9086 22.5842 92.9086 20.4677C92.9086 18.3513 93.367 16.3757 94.2838 14.6314C95.2005 12.887 96.4923 11.5006 98.1576 10.4721C99.8229 9.44364 101.772 8.92939 104.004 8.92939C105.899 8.92939 107.527 9.2873 108.888 10.0031C110.247 10.7189 111.356 11.688 112.212 12.9103V9.28859H115.651V31.6481H112.212V28.0703C111.356 29.2629 110.247 30.2165 108.888 30.9323C107.527 31.6481 105.899 32.006 104.004 32.006V32.0047ZM104.463 28.9632C106.174 28.9632 107.618 28.5755 108.796 27.8003C109.973 27.025 110.867 25.9888 111.479 24.6928C112.09 23.3956 112.396 21.9872 112.396 20.4664C112.396 18.9456 112.09 17.4998 111.479 16.2181C110.867 14.9363 109.973 13.9078 108.796 13.1325C107.618 12.3573 106.174 11.9697 104.463 11.9697C102.751 11.9697 101.329 12.3573 100.106 13.1325C98.8836 13.9078 97.9509 14.9363 97.3097 16.2181C96.6672 17.4998 96.3465 18.9159 96.3465 20.4664C96.3465 22.0169 96.6672 23.3956 97.3097 24.6928C97.9522 25.9901 98.8836 27.0263 100.106 27.8003C101.328 28.5755 102.781 28.9632 104.463 28.9632ZM120.62 31.6468V0.343484H124.06V31.6468H120.62ZM126.424 31.6468L135.274 20.1098L126.976 9.2873H131.378L137.293 17.7388L143.163 9.2873H147.564L139.265 20.1098L148.16 31.6468H143.757L137.292 22.5247L130.781 31.6468H126.424ZM159.553 32.0047C157.23 32.0047 155.197 31.4905 153.455 30.462C151.713 29.4335 150.36 28.0406 149.397 26.2808C148.434 24.5223 147.953 22.5842 147.953 20.4677C147.953 18.3513 148.412 16.3757 149.328 14.6314C150.245 12.887 151.559 11.5006 153.271 10.4721C154.983 9.44364 157.001 8.92939 159.324 8.92939C161.648 8.92939 163.703 9.44364 165.4 10.4721C167.097 11.5006 168.403 12.887 169.32 14.6314C170.237 16.3757 170.695 18.3203 170.695 20.4677V21.8089H151.483C151.665 23.1217 152.101 24.3207 152.79 25.4086C153.478 26.4979 154.403 27.3623 155.564 28.0019C156.726 28.6427 158.071 28.9632 159.6 28.9632C161.22 28.9632 162.581 28.613 163.68 27.9127C164.781 27.2124 165.636 26.3105 166.248 25.2071H170.008C169.213 27.2046 167.952 28.8365 166.225 30.1041C164.498 31.3716 162.275 32.0047 159.553 32.0047ZM151.529 18.6782H167.118C166.812 16.7711 165.987 15.1753 164.642 13.8936C163.296 12.6118 161.524 11.971 159.323 11.971C157.122 11.971 155.356 12.6118 154.028 13.8936C152.697 15.1753 151.864 16.7711 151.529 18.6782ZM36.5073 4.17969L3.91618 22.5312L34.1955 0.73757C35.2103 0.0075427 36.6504 0.300846 37.2797 1.36552C37.8626 2.35139 37.5169 3.61117 36.506 4.18098L36.5073 4.17969ZM41.1642 20.0633C40.727 19.3242 39.7585 19.0723 39.0007 19.4987L17.4243 31.6468L40.4037 22.2598C41.2834 21.9006 41.6398 20.8696 41.1628 20.0633H41.1642ZM52.0504 3.77785C51.1376 2.23639 49.0827 1.75961 47.5565 2.73514L0.419922 32.8498L50.7295 8.0947C52.3591 7.29232 52.9632 5.31931 52.0504 3.77785Z" fill="white"/>
</g>
<defs>
<clipPath id="clip0_1085_1750">
<rect width="170.375" height="32.5605" fill="white" transform="translate(0.419922 0.334717)"/>
</clipPath>
</defs>
</svg>
