<svg width="589" height="226" viewBox="0 0 589 226" fill="none" xmlns="http://www.w3.org/2000/svg">
<path d="M29.4566 0.125H85.6469C90.2676 0.125 94.3932 1.03263 98.0237 2.84789C101.654 4.49812 104.707 6.80844 107.182 9.77885C109.823 12.5842 111.803 15.8022 113.123 19.4327C114.443 22.8982 115.104 26.4462 115.104 30.0767V225.876H78.2209V163.003H36.6351V225.876H0V31.3144C0 27.8489 0.660092 24.3009 1.98028 20.6704C3.30046 16.8748 5.19822 13.4919 7.67357 10.5214C10.3139 7.55103 13.4494 5.07569 17.0799 3.09542C20.7104 1.11514 24.836 0.125 29.4566 0.125ZM36.6351 140.477H78.2209V30.0767C78.2209 27.7664 77.4783 25.7861 75.9931 24.1358C74.5079 22.3206 72.8577 21.413 71.0424 21.413H44.0611C42.2459 21.413 40.5131 22.3206 38.8629 24.1358C37.3777 25.7861 36.6351 27.7664 36.6351 30.0767V140.477Z" fill="#F8F8F8"/>
<path d="M213.04 0.125C217.496 0.125 221.456 1.03263 224.922 2.84789C228.552 4.66314 231.688 7.05597 234.328 10.0264C236.969 12.8318 238.949 16.0497 240.269 19.6802C241.754 23.1457 242.497 26.6112 242.497 30.0767V131.813C242.497 135.279 241.837 138.909 240.517 142.705C239.196 146.335 237.216 149.718 234.576 152.854C232.1 155.824 229.047 158.3 225.417 160.28C221.786 162.095 217.661 163.003 213.04 163.003H211.555L244.725 225.876H207.099L174.177 163.003H164.028V225.876H127.393V0.125H213.04ZM164.028 140.477H198.436C200.581 140.477 202.314 139.652 203.634 138.002C204.954 136.351 205.614 134.289 205.614 131.813V30.0767C205.614 27.7664 204.872 25.7861 203.386 24.1358C201.901 22.3206 200.251 21.413 198.436 21.413H164.028V140.477Z" fill="#F8F8F8"/>
<path d="M257.204 0.125H341.613C346.234 0.125 350.359 1.03263 353.99 2.84789C357.62 4.49812 360.673 6.80844 363.149 9.77885C365.789 12.5842 367.769 15.8022 369.089 19.4327C370.41 22.8982 371.07 26.4462 371.07 30.0767V131.813C371.07 135.444 370.41 139.157 369.089 142.952C367.934 146.583 366.119 149.883 363.644 152.854C361.168 155.824 358.033 158.3 354.237 160.28C350.607 162.095 346.399 163.003 341.613 163.003H292.601V225.876H257.204V0.125ZM292.601 140.477H328.246C330.061 140.477 331.712 139.652 333.197 138.002C334.682 136.186 335.425 134.124 335.425 131.813V30.0767C335.425 28.2614 334.6 26.3637 332.949 24.3834C331.299 22.4031 329.731 21.413 328.246 21.413H292.601V140.477Z" fill="#F8F8F8"/>
<path d="M412.845 0.125H467.798C472.418 0.125 476.544 1.03263 480.174 2.84789C483.805 4.49812 486.858 6.80844 489.333 9.77885C491.974 12.5842 493.954 15.8022 495.274 19.4327C496.594 22.8982 497.254 26.4462 497.254 30.0767V44.4337H461.609V30.0767C461.609 28.2614 460.784 26.3637 459.134 24.3834C457.484 22.4031 455.916 21.413 454.431 21.413H426.212C424.727 21.413 423.076 22.4031 421.261 24.3834C419.611 26.3637 418.786 28.2614 418.786 30.0767V195.925C418.786 198.235 419.446 200.05 420.766 201.371C422.251 202.691 424.067 203.351 426.212 203.351H454.431C456.576 203.351 458.309 202.691 459.629 201.371C460.949 200.05 461.609 198.235 461.609 195.925V184.043H497.254V195.925C497.254 199.555 496.594 203.186 495.274 206.816C493.954 210.282 491.974 213.5 489.333 216.47C486.858 219.276 483.805 221.586 480.174 223.401C476.544 225.051 472.418 225.876 467.798 225.876H412.845C408.224 225.876 404.099 225.051 400.468 223.401C396.838 221.586 393.702 219.276 391.062 216.47C388.587 213.5 386.689 210.282 385.369 206.816C384.048 203.186 383.388 199.555 383.388 195.925V30.0767C383.388 26.4462 384.048 22.8982 385.369 19.4327C386.689 15.8022 388.587 12.5842 391.062 9.77885C393.702 6.80844 396.838 4.49812 400.468 2.84789C404.099 1.03263 408.224 0.125 412.845 0.125Z" fill="#F8F8F8"/>
<g clip-path="url(#clip0_209_69)">
<path d="M501.681 91.9456L516.613 99.3089C517.307 99.6635 518.095 99.6618 518.806 99.2925C519.517 98.9231 519.994 98.3101 520.142 97.5344L520.788 94.2873C520.98 93.2996 521.681 92.5537 522.682 92.3176C532.142 90.0818 536.993 76.3972 536.979 66.9837C536.973 54.2878 528.174 47.45 515.87 50.579C506.745 52.8906 494.682 60.97 494.851 70.6892C494.866 71.6838 494.335 72.5618 493.41 73.011L490.423 74.4386C489.708 74.7741 489.232 75.3872 489.049 76.1674C488.867 76.9475 489.075 77.6931 489.575 78.2967L500.397 90.9478C500.515 91.0696 500.613 91.1768 500.745 91.2796L501.293 91.7051C501.406 91.7931 501.519 91.8812 501.681 91.9456ZM526.072 71.1986C527.661 68.5306 530.365 67.4671 532.121 68.8317C533.877 70.1963 534.005 73.4609 532.416 76.1288C530.828 78.7967 528.123 79.8603 526.367 78.4956C524.63 77.1457 524.483 73.8665 526.072 71.1986ZM514.422 62.1451C512.229 64.3435 509.034 65.0256 507.278 63.661C505.522 62.2963 505.885 59.4133 508.078 57.2149C510.271 55.0166 513.466 54.3345 515.222 55.6991C516.978 57.0637 516.615 59.9468 514.422 62.1451Z" fill="#20E764"/>
<path d="M423.866 151.958L420.52 152.522C419.019 153.323 416.811 158.152 412.066 158.49C410.245 158.612 408.364 158.071 406.86 156.811L400.094 151.215C397.091 148.727 396.527 144.387 398.769 141.151L409.582 125.523C411.545 122.685 415.093 121.51 418.316 122.662L423.542 124.511C421.938 133.589 421.97 143.017 423.866 151.958ZM442.82 86.4544L442.467 83.7523C442.376 83.1287 442.002 82.7146 441.423 82.6025L434.246 81.0816C429.691 80.1231 427.182 75.2848 428.981 70.9053L434.432 57.8109C435.77 54.6094 438.994 52.7208 442.407 53.1609L463.481 55.8942C466.251 56.2651 468.521 58.0597 469.467 60.7002L473.849 72.8322C464.027 73.312 454.688 76.7172 446.475 83.2716C445.186 84.2674 443.992 85.3367 442.82 86.4544ZM491.849 73.7917L493.73 73.748L493.768 73.7774L491.849 73.7917ZM519.896 94.0514L519.933 94.0807L520.36 95.9484L519.896 94.0514ZM525.734 113.154L538.573 114.404C541.365 114.669 543.665 116.425 544.708 119.019L552.56 138.765C553.83 141.964 552.796 145.554 550.024 147.641L538.647 156.162C534.866 159 529.558 157.764 527.486 153.572C526.926 152.461 524.423 146.797 523.672 146.399C523.454 146.29 523.191 146.239 522.868 146.265L520.162 146.59C520.956 145.179 521.678 143.743 522.363 142.277C526.705 132.715 527.714 122.805 525.734 113.154ZM488.049 174.702L491.112 179.295C493.006 182.119 492.761 185.863 490.477 188.451L478.003 202.788C475.422 205.759 471.076 206.285 467.924 203.989L460.831 198.814C457.641 196.489 456.867 192.108 459.006 188.731L461.628 184.5L461.349 181.118C470.533 180.757 479.677 178.46 488.049 174.702Z" fill="#20E764"/>
<path d="M439.756 143.432L438.978 135.237C438.889 134.338 438.396 133.648 437.597 133.273L432.224 130.756C431.463 130.411 430.644 130.451 429.922 130.873C429.186 131.314 428.77 132.005 428.716 132.854C428.443 136.791 428.516 140.75 428.956 144.626C429.097 145.964 430.29 146.923 431.626 146.762L437.552 146.113C438.231 146.057 438.777 145.744 439.228 145.203C439.634 144.72 439.803 144.113 439.756 143.432ZM486.961 89.5881L477.624 91.7044C476.487 91.9584 475.709 92.9208 475.676 94.0935L475.35 106.009C475.333 106.733 475.577 107.353 476.099 107.851L482.89 114.388C483.008 114.51 483.14 114.613 483.287 114.696L491.299 119.663C491.91 120.046 492.571 120.13 493.269 119.934L504.735 116.676C505.848 116.373 506.584 115.348 506.55 114.184L506.295 104.614C506.267 103.793 505.894 103.103 505.222 102.643L496.694 96.9373C496.6 96.864 496.524 96.8053 496.43 96.7319L489.12 90.1603C488.523 89.6039 487.744 89.3981 486.961 89.5881ZM512.422 104.796L512.716 115.719C512.737 116.472 513.053 117.117 513.638 117.572L516.21 119.601C517.022 120.232 518.059 120.301 518.975 119.784C519.873 119.252 520.343 118.296 520.19 117.286C519.699 113.709 518.72 110.059 517.222 106.375C516.84 105.464 516.036 104.9 515.055 104.876L512.422 104.796ZM507.83 122.123L496.746 125.279C495.633 125.582 494.896 126.607 494.931 127.771L495.249 138.312C495.265 139.032 495.577 139.643 496.114 140.122L507.591 149.748C508.124 150.192 508.745 150.368 509.439 150.293C510.133 150.218 510.709 149.866 511.141 149.311C515.071 144.098 518.064 138.22 519.526 131.858C519.756 130.9 519.441 129.979 518.667 129.378L510.022 122.537C509.365 122.057 508.609 121.899 507.83 122.123ZM487.597 124.622C478.171 118.864 480.115 120.375 472.189 112.648C471.588 112.058 470.79 111.838 469.954 112.017L460.313 114.174C459.143 114.433 458.354 115.448 458.359 116.65L458.47 127.184C458.472 127.923 458.769 128.554 459.339 129.028L466.79 135.34C466.846 135.384 466.884 135.413 466.941 135.457L474.898 141.118C475.498 141.554 476.163 141.672 476.898 141.506L487.134 139.012C488.285 138.739 489.07 137.69 489.051 136.507L488.741 126.617C488.728 125.777 488.317 125.059 487.597 124.622ZM469.293 103.944L469.614 92.4246C469.638 91.6138 469.314 90.9009 468.657 90.4212L459.893 83.7335C459.138 83.1465 458.15 83.0545 457.278 83.5139C451.493 86.5158 446.517 90.8534 442.436 95.9484C442.004 96.504 441.821 97.1297 441.905 97.8401C442.003 98.5315 442.327 99.0899 442.889 99.4962L455.051 108.241C455.633 108.662 456.298 108.78 457.018 108.633L467.312 106.338C468.463 106.065 469.241 105.102 469.293 103.944ZM474.614 86.108L485.271 83.6961L484.562 81.1787C484.296 80.2347 483.548 79.5609 482.555 79.435C478.597 78.8784 474.818 78.8304 471.249 79.2529C470.217 79.3728 469.407 80.0645 469.129 81.0465C468.835 82.0476 469.177 83.0503 469.988 83.6812L472.59 85.6723C473.19 86.108 473.894 86.2552 474.614 86.108ZM490.222 144.547L480.587 146.892C479.353 147.193 478.561 148.329 478.675 149.585L479.432 156.872C479.492 157.38 479.66 157.787 479.963 158.176L486.755 166.466C487.498 167.381 488.743 167.611 489.775 167.062C494.539 164.556 499.076 161.445 503.145 157.846C503.705 157.36 504.005 156.701 504.003 155.963C504.002 155.224 503.704 154.594 503.149 154.1L492.374 145.051C491.747 144.533 491.006 144.357 490.222 144.547ZM471.342 146.161L463.065 140.25C463.008 140.206 462.97 140.177 462.914 140.133L455.331 133.718C454.779 133.258 454.121 133.054 453.397 133.167L447.413 134.048C446.114 134.237 445.158 135.43 445.279 136.754L446.219 146.457C446.268 147.017 446.474 147.454 446.848 147.868L452.132 153.695C452.329 153.909 452.537 154.07 452.793 154.208L459.744 157.889C460.219 158.136 460.712 158.242 461.267 158.151L470.901 156.665C472.214 156.457 473.152 155.25 473.016 153.945L472.391 147.928C472.27 147.189 471.943 146.596 471.342 146.161ZM452.321 124.926L452.214 115.009C452.205 114.203 451.851 113.528 451.194 113.049L439.764 104.842C439.164 104.407 438.48 104.274 437.749 104.474C437.032 104.655 436.483 105.089 436.135 105.771C433.653 110.602 431.758 115.767 430.507 121.002C430.229 122.139 430.778 123.303 431.848 123.796L441.559 128.331C442.011 128.529 442.466 128.606 442.953 128.524L450.202 127.458C451.414 127.263 452.334 126.195 452.321 124.926ZM473.894 162.402L465.76 163.671C465.085 163.761 464.542 164.107 464.144 164.659C463.746 165.21 463.578 165.816 463.677 166.507L464.511 172.41C464.7 173.725 465.923 174.645 467.259 174.485C471.124 173.954 474.959 173.032 478.725 171.811C479.535 171.549 480.117 170.956 480.348 170.152C480.593 169.329 480.43 168.526 479.892 167.893L476.146 163.322C475.577 162.573 474.786 162.266 473.894 162.402ZM455.945 162.896C447.169 158.288 449.529 160.122 442.917 152.771C442.383 152.172 441.664 151.889 440.853 151.997L433.419 152.795C432.657 152.879 432.017 153.274 431.593 153.897C431.174 154.554 431.07 155.272 431.293 155.999C432.96 161.258 435.379 166.211 438.644 170.623C438.928 170.997 439.249 171.247 439.682 171.43C444.763 173.504 450.16 174.625 455.668 174.942C456.427 174.978 457.117 174.715 457.631 174.131C458.164 173.562 458.388 172.845 458.266 172.106L457.204 164.704C457.094 163.911 456.657 163.265 455.945 162.896Z" fill="#20E764"/>
</g>
<defs>
<clipPath id="clip0_209_69">
<rect width="146.966" height="158.271" fill="white" transform="translate(472.957 7.73438) rotate(37.8519)"/>
</clipPath>
</defs>
</svg>
