<svg width="147" height="40" viewBox="0 0 147 40" fill="none" xmlns="http://www.w3.org/2000/svg">
<g clip-path="url(#clip0_267_3945)">
<path d="M60.5974 23.7089C60.0114 18.3429 57.1901 14.5164 52.359 12.2618C46.0885 9.32803 35.8977 11.6262 33.3236 21.8127C32.7205 24.195 32.7018 26.6162 33.5381 28.9798C33.6345 29.3008 33.7106 29.6311 33.8319 29.9411C37.1164 38.339 47.6398 41.3305 55.3264 36.7966C56.9678 35.8275 57.5259 33.7521 56.7253 32.0398C55.8129 30.0985 53.6165 29.3709 51.5958 30.382C50.2341 31.0629 48.8336 31.5584 47.2947 31.5038C44.7688 31.415 42.7573 30.3711 41.192 28.1712H42.0983C46.5543 28.1712 51.0056 28.1712 55.4523 28.1712C56.0213 28.1748 56.5893 28.1226 57.1482 28.0154C59.0306 27.6492 60.2197 26.4277 60.4684 24.6219C60.5872 24.3332 60.6315 24.0193 60.5974 23.7089ZM41.5589 21.188C43.3123 17.5795 48.3983 16.9002 51.1077 19.9181C51.4778 20.3163 51.7835 20.77 52.0139 21.2627C52.2253 21.7302 52.244 21.9997 51.5678 21.9841C49.9388 21.9436 48.3035 21.9717 46.6791 21.9717H42.0159C41.2713 21.9701 41.2216 21.8844 41.5589 21.188Z" fill="#F200AE"/>
<path d="M111.119 31.56C109.372 29.3205 107.537 27.1517 105.615 25.0535C105.473 24.6702 105.798 24.4833 105.98 24.2636C107.594 22.3129 109.217 20.37 110.85 18.4349C111.314 17.9111 111.645 17.2821 111.813 16.6019C111.981 15.9218 111.982 15.2109 111.815 14.5304C111.436 12.8368 110.328 11.7524 108.668 11.352C107.046 10.9593 105.573 11.352 104.449 12.6483C103.092 14.2063 101.779 15.8018 100.448 17.3832C99.8262 18.1264 99.8262 18.1217 99.2402 17.4019C97.9624 15.8439 96.6925 14.2858 95.3883 12.7402C94.7932 12.0489 93.9981 11.5605 93.1134 11.3427C92.2288 11.1249 91.2984 11.1886 90.4515 11.5249C89.6667 11.832 88.9946 12.3728 88.526 13.0746C88.0574 13.7764 87.8147 14.6054 87.8307 15.4497C87.6442 16.5902 88.1012 17.5219 88.7976 18.3632C90.38 20.275 91.9468 22.1976 93.5774 24.0657C94.1246 24.6889 94.0671 25.0831 93.5448 25.6768C91.9562 27.4763 90.4188 29.3257 88.8815 31.1705C88.0779 32.1349 87.5634 33.2349 87.7655 34.5203C88.0608 36.4009 89.0432 37.8125 90.9256 38.3547C92.8515 38.9109 94.4137 38.1989 95.6557 36.6813C96.8976 35.1638 98.1427 33.7054 99.3381 32.1894C99.7189 31.7111 99.935 31.7018 100.322 32.1785C101.623 33.7849 102.954 35.3679 104.294 36.9415C105.808 38.7208 108.517 39.0059 110.292 37.6006C112.125 36.1391 112.558 33.4016 111.119 31.56Z" fill="#F200AE"/>
<path d="M144.228 11.4844C143.957 11.3329 143.654 11.247 143.344 11.2335C141.488 11.0995 139.675 11.2943 137.953 12.0126C137.403 12.2447 137.002 12.226 136.467 11.9035C133.966 10.4 130.526 12.0718 130.405 14.9043C130.294 17.5094 130.395 20.1254 130.405 22.7367C130.923 22.5289 131.434 22.3004 131.937 22.0511C131.437 22.3004 130.926 22.5289 130.405 22.7367C130.392 26.5337 130.372 30.3306 130.37 34.1276C130.37 37.4136 133.649 39.4608 136.598 38.0119C138.102 37.2733 138.9 36.016 138.92 34.3613C138.965 30.6921 138.94 27.0244 138.952 23.3552C138.952 21.5681 139.967 20.3201 141.713 19.9353C142.092 19.8597 142.476 19.8113 142.862 19.7904C144.928 19.6346 146.692 18.0376 146.958 16.0775C147.236 14.038 146.12 12.1559 144.228 11.4844Z" fill="#F200AE"/>
<path d="M71.0897 30.0598C71.1279 29.8853 71.1533 29.7082 71.1659 29.53C71.1659 21.9475 71.1659 14.3686 71.1659 6.79332C71.1735 6.21605 71.0663 5.64304 70.8505 5.10776C70.6347 4.57249 70.3146 4.08568 69.909 3.67577C69.5034 3.26587 69.0204 2.94109 68.4882 2.7204C67.956 2.49971 67.3852 2.38754 66.8092 2.39044C66.2332 2.39333 65.6636 2.51124 65.1336 2.73728C64.6036 2.96331 64.1239 3.29294 63.7224 3.70691C63.3209 4.12087 63.0058 4.61088 62.7954 5.1483C62.5849 5.68572 62.4835 6.25978 62.4969 6.83695C62.486 9.26752 62.4969 11.6996 62.5078 14.1302C62.515 18.0357 62.5238 21.9413 62.5342 25.8468C62.5342 28.7604 62.4673 31.6755 62.5249 34.5891C62.5653 36.7033 64.3622 38.3409 66.6643 38.5309C68.5995 38.6867 70.7166 37.1427 71.04 35.2232C71.3244 33.514 71.2218 31.7814 71.0897 30.0598Z" fill="#F200AE"/>
<path d="M125.539 24.4477C125.55 21.4469 125.567 18.4476 125.57 15.4484C125.57 12.9882 123.837 11.1543 121.409 11.0281C119.137 10.9082 117.017 12.7015 116.95 15.0697C116.849 18.6533 116.95 22.2571 116.95 25.8499C116.936 28.7401 116.838 31.6334 116.936 34.519C117.017 36.8888 118.98 38.5029 121.444 38.4671C123.542 38.4359 125.504 36.6675 125.541 34.5891C125.603 31.2097 125.539 27.8287 125.539 24.4477Z" fill="#F200AE"/>
<path d="M121.243 9.86567C122.216 9.85098 123.145 9.45436 123.83 8.76097C124.514 8.06759 124.9 7.13274 124.905 6.15715C124.91 5.18156 124.533 4.24302 123.855 3.54307C123.177 2.84312 122.252 2.43757 121.279 2.41349C120.784 2.40126 120.293 2.48799 119.832 2.6686C119.372 2.84921 118.952 3.12008 118.597 3.46536C118.242 3.81063 117.96 4.22337 117.766 4.67942C117.572 5.13546 117.471 5.62566 117.469 6.1213C117.466 6.61695 117.563 7.10809 117.752 7.56599C117.941 8.02388 118.22 8.43932 118.571 8.788C118.923 9.13668 119.34 9.41158 119.799 9.59663C120.258 9.78167 120.749 9.87314 121.243 9.86567Z" fill="#F200AE"/>
<path d="M78.0628 9.52289C79.6483 10.2084 81.1576 9.92487 82.2271 8.74386C82.7901 8.23018 83.1737 7.54888 83.3215 6.80027C83.4692 6.05166 83.3733 5.27527 83.0478 4.58541C82.722 3.88054 82.1828 3.29647 81.507 2.9161C80.8312 2.53574 80.0531 2.37841 79.283 2.46645C79.0296 2.5054 78.7701 2.51942 78.5229 2.58331C77.1364 2.94789 76.0234 4.36261 75.9037 5.89729C75.7871 7.37277 76.7307 8.94641 78.0628 9.52289Z" fill="#F200AE"/>
<path d="M84.0364 15.4652C84.0474 14.9999 83.9834 14.5358 83.8468 14.091C83.1535 11.9736 81.1732 10.7614 78.9426 11.0917C76.8845 11.4033 75.3674 13.2044 75.3674 15.4028C75.3591 20.9869 75.3591 26.5715 75.3674 32.1566C75.3674 32.543 75.397 32.9357 75.4141 33.3143C75.0628 36.2419 76.9902 38.4964 79.7664 38.4091C82.1214 38.5042 84.0317 36.58 84.0333 34.0808C84.0354 27.8735 84.0364 21.6683 84.0364 15.4652Z" fill="#F200AE"/>
<path d="M14.8229 13.3262C17.1551 13.3262 19.4349 14.0194 21.3741 15.3181C23.3132 16.6169 24.8246 18.4628 25.7171 20.6225C26.6096 22.7823 26.8431 25.1587 26.3881 27.4515C25.9331 29.7442 24.8101 31.8503 23.161 33.5032C21.5119 35.1562 19.4107 36.2819 17.1234 36.7379C14.836 37.194 12.465 36.9599 10.3104 36.0654C8.15569 35.1708 6.31406 33.6558 5.01836 31.7121C3.72266 29.7685 3.03108 27.4833 3.03108 25.1456C3.03149 22.0111 4.27397 19.005 6.48527 16.7885C8.69658 14.572 11.6956 13.3266 14.8229 13.3262ZM14.8229 11.4565C12.1218 11.4565 9.48131 12.2594 7.23541 13.7636C4.98951 15.2677 3.23904 17.4057 2.20536 19.907C1.17169 22.4084 0.901232 25.1608 1.4282 27.8162C1.95516 30.4717 3.25587 32.9108 5.16585 34.8253C7.07584 36.7397 9.5093 38.0435 12.1585 38.5717C14.8077 39.0999 17.5537 38.8288 20.0492 37.7927C22.5448 36.7566 24.6777 35.002 26.1784 32.7509C27.679 30.4997 28.48 27.8531 28.48 25.1456C28.4743 21.5168 27.0335 18.0383 24.4736 15.4724C21.9136 12.9064 18.4432 11.4623 14.8229 11.4565Z" fill="#EBEBF6"/>
<path fill-rule="evenodd" clip-rule="evenodd" d="M22.5639 16.2537C21.4463 17.3786 19.4551 19.8372 18.6639 23.7323C17.7312 28.327 13.2499 34.5655 11.7421 36.5707C14.316 37.2678 17.0497 37.0697 19.4969 36.0088C21.9441 34.9479 23.9601 33.0868 25.216 30.7293C26.4719 28.3719 26.8934 25.6573 26.4118 23.0288C25.9301 20.4002 24.5736 18.013 22.5639 16.2568V16.2537Z" fill="#BC0186"/>
<path fill-rule="evenodd" clip-rule="evenodd" d="M24.4338 18.3276C23.7872 20.551 21.2954 27.4625 15.0203 28.6872C9.35131 29.7996 6.86579 31.9809 5.98755 32.9905C7.98686 35.2538 10.7756 36.663 13.7799 36.9281C16.7843 37.1932 19.7757 36.2941 22.1388 34.4157C24.5019 32.5373 26.0568 29.8225 26.4837 26.8299C26.9106 23.8373 26.177 20.7946 24.4338 18.3276Z" fill="#F200AE"/>
<path d="M16.9711 4.0481e-08H12.6887C12.5936 -3.25132e-05 12.4996 0.0195693 12.4124 0.0575832C12.3253 0.0955971 12.2469 0.151207 12.1821 0.220943C12.1173 0.290678 12.0676 0.373043 12.036 0.462898C12.0044 0.552752 11.9917 0.648169 11.9985 0.743193L12.269 4.53706H17.3985L17.6628 0.743193C17.6694 0.648089 17.6564 0.55264 17.6246 0.462781C17.5929 0.372923 17.543 0.290578 17.4781 0.220869C17.4132 0.15116 17.3347 0.0955776 17.2475 0.0575802C17.1603 0.0195829 17.0662 -1.67732e-05 16.9711 4.0481e-08Z" fill="#F200AE"/>
<path fill-rule="evenodd" clip-rule="evenodd" d="M10.4812 4.54492H19.172C19.3279 4.54492 19.4824 4.57571 19.6264 4.63553C19.7705 4.69535 19.9014 4.78304 20.0117 4.89357C20.122 5.00411 20.2095 5.13533 20.2692 5.27975C20.3288 5.42417 20.3596 5.57896 20.3596 5.73528V7.11883C20.3593 7.395 20.2633 7.66251 20.0881 7.87564C19.9129 8.08877 19.6693 8.23431 19.3989 8.28738C19.3181 8.30763 18.2098 8.59899 18.2098 9.59303C18.2098 10.4717 19.0871 10.8837 19.3492 10.9871C21.5766 11.7025 23.625 12.9427 25.3096 14.6313C28.09 17.4182 29.6521 21.1981 29.6521 25.1395C29.6521 28.0786 28.7825 30.9518 27.1534 33.3956C25.5243 35.8395 23.2088 37.7442 20.4997 38.869C17.7906 39.9938 14.8096 40.2881 11.9336 39.7147C9.05765 39.1413 6.41591 37.7259 4.34245 35.6476C2.26899 33.5693 0.85695 30.9213 0.284885 28.0386C-0.287181 25.1559 0.0064242 22.1679 1.12857 19.4525C2.25072 16.737 4.15101 14.4161 6.58913 12.7832C7.73678 12.0146 8.97934 11.4146 10.279 10.9949C10.512 10.9052 11.4387 10.492 11.4387 9.59303C11.4387 8.56471 10.2496 8.28582 10.2418 8.28582C9.97386 8.23032 9.73312 8.08398 9.56015 7.87144C9.38717 7.6589 9.29251 7.39312 9.2921 7.11883V5.73528C9.2921 5.57883 9.32287 5.42391 9.38264 5.27939C9.44242 5.13487 9.53004 5.00357 9.64048 4.89302C9.75092 4.78246 9.88202 4.69482 10.0263 4.63509C10.1705 4.57536 10.3251 4.54472 10.4812 4.54492ZM7.54513 36.0616C9.70028 37.505 12.2341 38.2754 14.826 38.2754C18.3018 38.2754 21.6352 36.8915 24.0929 34.428C26.5506 31.9645 27.9313 28.6233 27.9313 25.1395C27.9313 22.5414 27.1627 20.0017 25.7227 17.8415C24.2827 15.6813 22.2359 13.9976 19.8412 13.0034C17.4465 12.0092 14.8115 11.749 12.2693 12.2559C9.72714 12.7627 7.392 14.0138 5.5592 15.8509C3.72639 17.688 2.47823 20.0286 1.97256 22.5768C1.46689 25.1249 1.72642 27.7661 2.71833 30.1664C3.71024 32.5667 5.38997 34.6182 7.54513 36.0616Z" fill="#A8AFC3"/>
</g>
<defs>
<clipPath id="clip0_267_3945">
<rect width="147" height="40" fill="white"/>
</clipPath>
</defs>
</svg>
